M48
; DRILL file {KiCad 7.0.8} date Fri Oct 27 12:44:36 2023
; FORMAT={-:-/ absolute / inch / decimal}
; #@! TF.CreationDate,2023-10-27T12:44:36+09:00
; #@! TF.GenerationSoftware,Kicad,Pcbnew,7.0.8
; #@! TF.FileFunction,Plated,1,2,PTH
FMAT,2
INCH
; #@! TA.AperFunction,Plated,PTH,ViaDrill
T1C0.0157
; #@! TA.AperFunction,Plated,PTH,ComponentDrill
T2C0.0354
; #@! TA.AperFunction,Plated,PTH,ComponentDrill
T3C0.0394
; #@! TA.AperFunction,Plated,PTH,ComponentDrill
T4C0.0402
; #@! TA.AperFunction,Plated,PTH,ComponentDrill
T5C0.0551
; #@! TA.AperFunction,Plated,PTH,ComponentDrill
T6C0.1063
%
G90
G05
T1
X5.3713Y-2.6199
X5.9202Y-3.1152
X6.0903Y-3.32
X6.1015Y-3.4162
X6.475Y-2.77
X6.535Y-2.71
T2
X7.9709Y-3.01
X7.9709Y-3.295
X8.0709Y-3.01
X8.0709Y-3.295
T3
X4.8425Y-2.2441
X4.8425Y-2.3441
X4.8425Y-2.4441
X4.8425Y-3.8189
X4.8425Y-3.9189
X4.8425Y-4.0189
X4.8819Y-2.874
X4.8819Y-2.974
X4.8819Y-3.3508
X4.8819Y-3.4508
X5.1508Y-4.78
X5.2508Y-4.78
X6.3386Y-4.4488
X6.3386Y-4.5488
X6.3386Y-4.6488
X6.3386Y-4.7488
X6.6142Y-4.4488
X6.6142Y-4.5488
X6.6142Y-4.6488
X6.6142Y-4.7488
X6.8898Y-4.4488
X6.8898Y-4.5488
X6.8898Y-4.6488
X6.8898Y-4.7488
X7.2Y-4.45
X7.3Y-4.45
X7.4Y-4.45
X7.5Y-4.45
X7.6Y-4.45
X7.7Y-4.45
X7.8Y-4.45
X7.9Y-4.45
X8.0Y-4.45
X8.0315Y-2.2441
X8.0315Y-2.3441
X8.0315Y-2.4441
X8.0315Y-3.8189
X8.0315Y-3.9189
X8.0315Y-4.0189
X8.1Y-4.45
T4
X5.17Y-2.24
X5.17Y-2.34
X5.17Y-2.44
X5.17Y-2.54
X5.17Y-2.64
X5.17Y-2.74
X5.17Y-2.84
X5.17Y-2.94
X5.17Y-3.04
X5.17Y-3.14
X5.17Y-3.24
X5.17Y-3.34
X5.17Y-3.44
X5.17Y-3.54
X5.17Y-3.64
X5.17Y-3.74
X5.17Y-3.84
X5.17Y-3.94
X5.17Y-4.04
X5.27Y-2.24
X5.27Y-2.34
X5.27Y-2.44
X5.27Y-2.54
X5.27Y-2.64
X5.27Y-2.74
X5.27Y-2.84
X5.27Y-2.94
X5.27Y-3.04
X5.27Y-3.14
X5.27Y-3.24
X5.27Y-3.34
X5.27Y-3.44
X5.27Y-3.54
X5.27Y-3.64
X5.27Y-3.74
X5.27Y-3.84
X5.27Y-3.94
X5.27Y-4.04
X7.57Y-2.24
X7.57Y-2.34
X7.57Y-2.44
X7.57Y-2.54
X7.57Y-2.64
X7.57Y-2.74
X7.57Y-2.84
X7.57Y-2.94
X7.57Y-3.04
X7.57Y-3.14
X7.57Y-3.24
X7.57Y-3.34
X7.57Y-3.44
X7.57Y-3.54
X7.57Y-3.64
X7.57Y-3.74
X7.57Y-3.84
X7.57Y-3.94
X7.57Y-4.04
X7.67Y-2.24
X7.67Y-2.34
X7.67Y-2.44
X7.67Y-2.54
X7.67Y-2.64
X7.67Y-2.74
X7.67Y-2.84
X7.67Y-2.94
X7.67Y-3.04
X7.67Y-3.14
X7.67Y-3.24
X7.67Y-3.34
X7.67Y-3.44
X7.67Y-3.54
X7.67Y-3.64
X7.67Y-3.74
X7.67Y-3.84
X7.67Y-3.94
X7.67Y-4.04
T5
X5.5301Y-4.4549
X5.5301Y-4.595
X5.5301Y-4.7352
X6.01Y-4.4051
X6.01Y-4.785
T6
X4.865Y-4.3931
X4.865Y-4.59
T0
M30
