%TF.GenerationSoftware,KiCad,Pcbnew,7.0.8*%
%TF.CreationDate,2023-10-27T03:08:27+09:00*%
%TF.ProjectId,doggedness_schemetic,646f6767-6564-46e6-9573-735f73636865,rev?*%
%TF.SameCoordinates,Original*%
%TF.FileFunction,Copper,L1,Top*%
%TF.FilePolarity,Positive*%
%FSLAX46Y46*%
G04 Gerber Fmt 4.6, Leading zero omitted, Abs format (unit mm)*
G04 Created by KiCad (PCBNEW 7.0.8) date 2023-10-27 03:08:27*
%MOMM*%
%LPD*%
G01*
G04 APERTURE LIST*
G04 Aperture macros list*
%AMRoundRect*
0 Rectangle with rounded corners*
0 $1 Rounding radius*
0 $2 $3 $4 $5 $6 $7 $8 $9 X,Y pos of 4 corners*
0 Add a 4 corners polygon primitive as box body*
4,1,4,$2,$3,$4,$5,$6,$7,$8,$9,$2,$3,0*
0 Add four circle primitives for the rounded corners*
1,1,$1+$1,$2,$3*
1,1,$1+$1,$4,$5*
1,1,$1+$1,$6,$7*
1,1,$1+$1,$8,$9*
0 Add four rect primitives between the rounded corners*
20,1,$1+$1,$2,$3,$4,$5,0*
20,1,$1+$1,$4,$5,$6,$7,0*
20,1,$1+$1,$6,$7,$8,$9,0*
20,1,$1+$1,$8,$9,$2,$3,0*%
G04 Aperture macros list end*
%TA.AperFunction,ComponentPad*%
%ADD10C,1.530000*%
%TD*%
%TA.AperFunction,ComponentPad*%
%ADD11R,1.530000X1.530000*%
%TD*%
%TA.AperFunction,ComponentPad*%
%ADD12R,1.700000X1.700000*%
%TD*%
%TA.AperFunction,ComponentPad*%
%ADD13O,1.700000X1.700000*%
%TD*%
%TA.AperFunction,SMDPad,CuDef*%
%ADD14RoundRect,0.225000X0.250000X-0.225000X0.250000X0.225000X-0.250000X0.225000X-0.250000X-0.225000X0*%
%TD*%
%TA.AperFunction,SMDPad,CuDef*%
%ADD15RoundRect,0.225000X-0.225000X-0.250000X0.225000X-0.250000X0.225000X0.250000X-0.225000X0.250000X0*%
%TD*%
%TA.AperFunction,SMDPad,CuDef*%
%ADD16RoundRect,0.200000X-0.275000X0.200000X-0.275000X-0.200000X0.275000X-0.200000X0.275000X0.200000X0*%
%TD*%
%TA.AperFunction,SMDPad,CuDef*%
%ADD17RoundRect,0.200000X0.275000X-0.200000X0.275000X0.200000X-0.275000X0.200000X-0.275000X-0.200000X0*%
%TD*%
%TA.AperFunction,SMDPad,CuDef*%
%ADD18RoundRect,0.200000X-0.200000X-0.275000X0.200000X-0.275000X0.200000X0.275000X-0.200000X0.275000X0*%
%TD*%
%TA.AperFunction,SMDPad,CuDef*%
%ADD19RoundRect,0.200000X0.200000X0.275000X-0.200000X0.275000X-0.200000X-0.275000X0.200000X-0.275000X0*%
%TD*%
%TA.AperFunction,ComponentPad*%
%ADD20R,2.100000X2.100000*%
%TD*%
%TA.AperFunction,ComponentPad*%
%ADD21C,2.100000*%
%TD*%
%TA.AperFunction,SMDPad,CuDef*%
%ADD22RoundRect,0.150000X0.825000X0.150000X-0.825000X0.150000X-0.825000X-0.150000X0.825000X-0.150000X0*%
%TD*%
%TA.AperFunction,ComponentPad*%
%ADD23R,3.800000X3.800000*%
%TD*%
%TA.AperFunction,ComponentPad*%
%ADD24C,4.000000*%
%TD*%
%TA.AperFunction,ComponentPad*%
%ADD25C,1.800000*%
%TD*%
%TA.AperFunction,ComponentPad*%
%ADD26R,1.800000X1.800000*%
%TD*%
%TA.AperFunction,SMDPad,CuDef*%
%ADD27R,1.562100X0.355600*%
%TD*%
%TA.AperFunction,SMDPad,CuDef*%
%ADD28RoundRect,0.225000X-0.250000X0.225000X-0.250000X-0.225000X0.250000X-0.225000X0.250000X0.225000X0*%
%TD*%
%TA.AperFunction,SMDPad,CuDef*%
%ADD29RoundRect,0.250000X-0.550000X1.500000X-0.550000X-1.500000X0.550000X-1.500000X0.550000X1.500000X0*%
%TD*%
%TA.AperFunction,ViaPad*%
%ADD30C,0.800000*%
%TD*%
%TA.AperFunction,Conductor*%
%ADD31C,0.250000*%
%TD*%
%TA.AperFunction,Conductor*%
%ADD32C,1.000000*%
%TD*%
G04 APERTURE END LIST*
D10*
%TO.P,U1,CN10_38*%
%TO.N,N/C*%
X194818000Y-102616000D03*
%TO.P,U1,CN10_37,PA3*%
%TO.N,Net-(J9-RX)*%
X192278000Y-102616000D03*
%TO.P,U1,CN10_36*%
%TO.N,N/C*%
X194818000Y-100076000D03*
%TO.P,U1,CN10_35,PA2*%
%TO.N,Net-(J9-TX)*%
X192278000Y-100076000D03*
%TO.P,U1,CN10_34,PC4*%
%TO.N,unconnected-(U1B-PC4-PadCN10_34)*%
X194818000Y-97536000D03*
%TO.P,U1,CN10_33,PA10*%
%TO.N,unconnected-(U1B-PA10-PadCN10_33)*%
X192278000Y-97536000D03*
%TO.P,U1,CN10_32,AGND*%
%TO.N,unconnected-(U1B-AGND-PadCN10_32)*%
X194818000Y-94996000D03*
%TO.P,U1,CN10_31,PB3*%
%TO.N,unconnected-(U1B-PB3-PadCN10_31)*%
X192278000Y-94996000D03*
%TO.P,U1,CN10_30,PB13*%
%TO.N,unconnected-(U1B-PB13-PadCN10_30)*%
X194818000Y-92456000D03*
%TO.P,U1,CN10_29,PB5*%
%TO.N,MOTOR_TXE*%
X192278000Y-92456000D03*
%TO.P,U1,CN10_28,PB14*%
%TO.N,LED_RUN*%
X194818000Y-89916000D03*
%TO.P,U1,CN10_27,PB4*%
%TO.N,GY_INT*%
X192278000Y-89916000D03*
%TO.P,U1,CN10_26,PB15*%
%TO.N,LED_ERR*%
X194818000Y-87376000D03*
%TO.P,U1,CN10_25,PB10*%
%TO.N,Net-(J10-TX)*%
X192278000Y-87376000D03*
%TO.P,U1,CN10_24,PB1*%
%TO.N,unconnected-(U1B-PB1-PadCN10_24)*%
X194818000Y-84836000D03*
%TO.P,U1,CN10_23,PA8*%
%TO.N,unconnected-(U1B-PA8-PadCN10_23)*%
X192278000Y-84836000D03*
%TO.P,U1,CN10_22,PB2*%
%TO.N,unconnected-(U1B-PB2-PadCN10_22)*%
X194818000Y-82296000D03*
%TO.P,U1,CN10_21,PA9*%
%TO.N,unconnected-(U1B-PA9-PadCN10_21)*%
X192278000Y-82296000D03*
%TO.P,U1,CN10_20,CN10_GND*%
%TO.N,GND*%
X194818000Y-79756000D03*
%TO.P,U1,CN10_19,PC7*%
%TO.N,Net-(J8-RX)*%
X192278000Y-79756000D03*
%TO.P,U1,CN10_18*%
%TO.N,N/C*%
X194818000Y-77216000D03*
%TO.P,U1,CN10_17,PB6*%
%TO.N,MOTOR_TX*%
X192278000Y-77216000D03*
%TO.P,U1,CN10_16,PB12*%
%TO.N,unconnected-(U1B-PB12-PadCN10_16)*%
X194818000Y-74676000D03*
%TO.P,U1,CN10_15,PA7*%
%TO.N,unconnected-(U1B-PA7-PadCN10_15)*%
X192278000Y-74676000D03*
%TO.P,U1,CN10_14,PA11*%
%TO.N,CAN_RX*%
X194818000Y-72136000D03*
%TO.P,U1,CN10_13,PA6*%
%TO.N,unconnected-(U1B-PA6-PadCN10_13)*%
X192278000Y-72136000D03*
%TO.P,U1,CN10_12,PA12*%
%TO.N,CAN_TX*%
X194818000Y-69596000D03*
%TO.P,U1,CN10_11,PA5*%
%TO.N,unconnected-(U1B-PA5-PadCN10_11)*%
X192278000Y-69596000D03*
%TO.P,U1,CN10_10*%
%TO.N,N/C*%
X194818000Y-67056000D03*
%TO.P,U1,CN10_9,CN10_GND*%
%TO.N,GND*%
X192278000Y-67056000D03*
%TO.P,U1,CN10_8,U5V*%
%TO.N,unconnected-(U1B-U5V-PadCN10_8)*%
X194818000Y-64516000D03*
%TO.P,U1,CN10_7,AVDD*%
%TO.N,unconnected-(U1B-AVDD-PadCN10_7)*%
X192278000Y-64516000D03*
%TO.P,U1,CN10_6,PC5*%
%TO.N,Net-(J10-RX)*%
X194818000Y-61976000D03*
%TO.P,U1,CN10_5,PB9*%
%TO.N,GY_SDA*%
X192278000Y-61976000D03*
%TO.P,U1,CN10_4,PC6*%
%TO.N,Net-(J8-TX)*%
X194818000Y-59436000D03*
%TO.P,U1,CN10_3,PB8*%
%TO.N,GY_SCL*%
X192278000Y-59436000D03*
%TO.P,U1,CN10_2,PC8*%
%TO.N,unconnected-(U1B-PC8-PadCN10_2)*%
X194818000Y-56896000D03*
D11*
%TO.P,U1,CN10_1,PC9*%
%TO.N,unconnected-(U1B-PC9-PadCN10_1)*%
X192278000Y-56896000D03*
D10*
%TO.P,U1,CN7_38,PC0/PB8*%
%TO.N,unconnected-(U1A-PC0{slash}PB8-PadCN7_38)*%
X133858000Y-102616000D03*
%TO.P,U1,CN7_37,PC3*%
%TO.N,unconnected-(U1A-PC3-PadCN7_37)*%
X131318000Y-102616000D03*
%TO.P,U1,CN7_36,PC1/PB9*%
%TO.N,unconnected-(U1A-PC1{slash}PB9-PadCN7_36)*%
X133858000Y-100076000D03*
%TO.P,U1,CN7_35,PC2*%
%TO.N,unconnected-(U1A-PC2-PadCN7_35)*%
X131318000Y-100076000D03*
%TO.P,U1,CN7_34,PB0*%
%TO.N,unconnected-(U1A-PB0-PadCN7_34)*%
X133858000Y-97536000D03*
%TO.P,U1,CN7_33,VBAT*%
%TO.N,unconnected-(U1A-VBAT-PadCN7_33)*%
X131318000Y-97536000D03*
%TO.P,U1,CN7_32,PA4*%
%TO.N,unconnected-(U1A-PA4-PadCN7_32)*%
X133858000Y-94996000D03*
%TO.P,U1,CN7_31,PH1*%
%TO.N,unconnected-(U1A-PH1-PadCN7_31)*%
X131318000Y-94996000D03*
%TO.P,U1,CN7_30,PA1*%
%TO.N,unconnected-(U1A-PA1-PadCN7_30)*%
X133858000Y-92456000D03*
%TO.P,U1,CN7_29,PH0*%
%TO.N,unconnected-(U1A-PH0-PadCN7_29)*%
X131318000Y-92456000D03*
%TO.P,U1,CN7_28,PA0*%
%TO.N,Net-(U1A-PA0)*%
X133858000Y-89916000D03*
%TO.P,U1,CN7_27,PC15*%
%TO.N,unconnected-(U1A-PC15-PadCN7_27)*%
X131318000Y-89916000D03*
%TO.P,U1,CN7_26*%
%TO.N,N/C*%
X133858000Y-87376000D03*
%TO.P,U1,CN7_25,PC14*%
%TO.N,unconnected-(U1A-PC14-PadCN7_25)*%
X131318000Y-87376000D03*
%TO.P,U1,CN7_24,CN7_VIN*%
%TO.N,unconnected-(U1A-CN7_VIN-PadCN7_24)*%
X133858000Y-84836000D03*
%TO.P,U1,CN7_23,PC13*%
%TO.N,unconnected-(U1A-PC13-PadCN7_23)*%
X131318000Y-84836000D03*
%TO.P,U1,CN7_22,CN7_GND*%
%TO.N,GND*%
X133858000Y-82296000D03*
%TO.P,U1,CN7_21,PB7*%
%TO.N,MOTOR_RX*%
X131318000Y-82296000D03*
%TO.P,U1,CN7_20,CN7_GND*%
%TO.N,GND*%
X133858000Y-79756000D03*
%TO.P,U1,CN7_19,CN7_GND*%
X131318000Y-79756000D03*
%TO.P,U1,CN7_18,CN7_+5V*%
%TO.N,unconnected-(U1A-CN7_+5V-PadCN7_18)*%
X133858000Y-77216000D03*
%TO.P,U1,CN7_17,PA15*%
%TO.N,unconnected-(U1A-PA15-PadCN7_17)*%
X131318000Y-77216000D03*
%TO.P,U1,CN7_16,CN7_+3V3*%
%TO.N,+3.3V*%
X133858000Y-74676000D03*
%TO.P,U1,CN7_15,PA14*%
%TO.N,unconnected-(U1A-PA14-PadCN7_15)*%
X131318000Y-74676000D03*
%TO.P,U1,CN7_14,CN7_RESET*%
%TO.N,unconnected-(U1A-CN7_RESET-PadCN7_14)*%
X133858000Y-72136000D03*
%TO.P,U1,CN7_13,PA13*%
%TO.N,unconnected-(U1A-PA13-PadCN7_13)*%
X131318000Y-72136000D03*
%TO.P,U1,CN7_12,CN7_IOREF*%
%TO.N,unconnected-(U1A-CN7_IOREF-PadCN7_12)*%
X133858000Y-69596000D03*
%TO.P,U1,CN7_11*%
%TO.N,N/C*%
X131318000Y-69596000D03*
%TO.P,U1,CN7_10*%
X133858000Y-67056000D03*
%TO.P,U1,CN7_9*%
X131318000Y-67056000D03*
%TO.P,U1,CN7_8,CN7_GND*%
%TO.N,GND*%
X133858000Y-64516000D03*
%TO.P,U1,CN7_7,BOOT0*%
%TO.N,unconnected-(U1A-BOOT0-PadCN7_7)*%
X131318000Y-64516000D03*
%TO.P,U1,CN7_6,E5V*%
%TO.N,+5V*%
X133858000Y-61976000D03*
%TO.P,U1,CN7_5,VDD*%
%TO.N,unconnected-(U1A-VDD-PadCN7_5)*%
X131318000Y-61976000D03*
%TO.P,U1,CN7_4,PD2*%
%TO.N,unconnected-(U1A-PD2-PadCN7_4)*%
X133858000Y-59436000D03*
%TO.P,U1,CN7_3,PC12*%
%TO.N,unconnected-(U1A-PC12-PadCN7_3)*%
X131318000Y-59436000D03*
%TO.P,U1,CN7_2,PC11*%
%TO.N,unconnected-(U1A-PC11-PadCN7_2)*%
X133858000Y-56896000D03*
D11*
%TO.P,U1,CN7_1,PC10*%
%TO.N,unconnected-(U1A-PC10-PadCN7_1)*%
X131318000Y-56896000D03*
%TD*%
D12*
%TO.P,J11,1,-*%
%TO.N,GND*%
X130830000Y-121412000D03*
D13*
%TO.P,J11,2,+*%
%TO.N,+5V*%
X133370000Y-121412000D03*
%TD*%
D14*
%TO.P,C4,1*%
%TO.N,Net-(C4-Pad1)*%
X153289000Y-61875000D03*
%TO.P,C4,2*%
%TO.N,GND*%
X153289000Y-60325000D03*
%TD*%
D15*
%TO.P,C2,1*%
%TO.N,+5V*%
X159359000Y-75565000D03*
%TO.P,C2,2*%
%TO.N,GND*%
X160909000Y-75565000D03*
%TD*%
D16*
%TO.P,R11,1*%
%TO.N,Net-(U1A-PA0)*%
X145669000Y-85852000D03*
%TO.P,R11,2*%
%TO.N,+BATT*%
X145669000Y-87502000D03*
%TD*%
D17*
%TO.P,R8,1*%
%TO.N,Net-(J7-CANL)*%
X153289000Y-65023000D03*
%TO.P,R8,2*%
%TO.N,Net-(C4-Pad1)*%
X153289000Y-63373000D03*
%TD*%
D18*
%TO.P,R2,1*%
%TO.N,+5V*%
X152020000Y-79308000D03*
%TO.P,R2,2*%
%TO.N,Net-(J2-DATA)*%
X153670000Y-79308000D03*
%TD*%
D12*
%TO.P,J10,1,RX*%
%TO.N,Net-(J10-RX)*%
X175000000Y-113000000D03*
D13*
%TO.P,J10,2,TX*%
%TO.N,Net-(J10-TX)*%
X175000000Y-115540000D03*
%TO.P,J10,3,GND*%
%TO.N,GND*%
X175000000Y-118080000D03*
%TO.P,J10,4,VCC*%
%TO.N,+5V*%
X175000000Y-120620000D03*
%TD*%
D16*
%TO.P,R5,1*%
%TO.N,Net-(D1-A)*%
X199898000Y-76391000D03*
%TO.P,R5,2*%
%TO.N,LED_ERR*%
X199898000Y-78041000D03*
%TD*%
D12*
%TO.P,J9,1,RX*%
%TO.N,Net-(J9-RX)*%
X168000000Y-113000000D03*
D13*
%TO.P,J9,2,TX*%
%TO.N,Net-(J9-TX)*%
X168000000Y-115540000D03*
%TO.P,J9,3,GND*%
%TO.N,GND*%
X168000000Y-118080000D03*
%TO.P,J9,4,VCC*%
%TO.N,+3.3V*%
X168000000Y-120620000D03*
%TD*%
%TO.P,JP1,2,B*%
%TO.N,Net-(J7-CANH)*%
X124000000Y-75540000D03*
D12*
%TO.P,JP1,1,A*%
%TO.N,Net-(JP1-A)*%
X124000000Y-73000000D03*
%TD*%
%TO.P,J5,1,GND*%
%TO.N,GND*%
X204000000Y-97000000D03*
D13*
%TO.P,J5,2,VDD*%
%TO.N,+BATT*%
X204000000Y-99540000D03*
%TO.P,J5,3,DATA*%
%TO.N,Net-(J2-DATA)*%
X204000000Y-102080000D03*
%TD*%
%TO.P,J7,2,CANL*%
%TO.N,Net-(J7-CANL)*%
X124000000Y-87650000D03*
D12*
%TO.P,J7,1,CANH*%
%TO.N,Net-(J7-CANH)*%
X124000000Y-85110000D03*
%TD*%
D19*
%TO.P,R10,1*%
%TO.N,Net-(U3-Rs)*%
X158242000Y-71120000D03*
%TO.P,R10,2*%
%TO.N,GND*%
X156592000Y-71120000D03*
%TD*%
D20*
%TO.P,VR1,1,VI*%
%TO.N,+BATT*%
X140464000Y-113154000D03*
D21*
%TO.P,VR1,2,GND*%
%TO.N,GND*%
X140464000Y-116714000D03*
%TO.P,VR1,3,VO*%
%TO.N,+5V*%
X140464000Y-120274000D03*
%TO.P,VR1,4,VO_ADJ*%
%TO.N,Net-(VR1-VO_ADJ)*%
X152654000Y-121539000D03*
%TO.P,VR1,5,~{INHIBIT}*%
%TO.N,unconnected-(VR1-~{INHIBIT}-Pad5)*%
X152654000Y-111889000D03*
%TD*%
D12*
%TO.P,J2,1,GND*%
%TO.N,GND*%
X123000000Y-57000000D03*
D13*
%TO.P,J2,2,VDD*%
%TO.N,+BATT*%
X123000000Y-59540000D03*
%TO.P,J2,3,DATA*%
%TO.N,Net-(J2-DATA)*%
X123000000Y-62080000D03*
%TD*%
D12*
%TO.P,J4,1,GND*%
%TO.N,GND*%
X123000000Y-97000000D03*
D13*
%TO.P,J4,2,VDD*%
%TO.N,+BATT*%
X123000000Y-99540000D03*
%TO.P,J4,3,DATA*%
%TO.N,Net-(J2-DATA)*%
X123000000Y-102080000D03*
%TD*%
D12*
%TO.P,J3,1,GND*%
%TO.N,GND*%
X204000000Y-57000000D03*
D13*
%TO.P,J3,2,VDD*%
%TO.N,+BATT*%
X204000000Y-59540000D03*
%TO.P,J3,3,DATA*%
%TO.N,Net-(J2-DATA)*%
X204000000Y-62080000D03*
%TD*%
D22*
%TO.P,U3,1,TXD*%
%TO.N,CAN_TX*%
X163257000Y-67691000D03*
%TO.P,U3,2,VSS*%
%TO.N,GND*%
X163257000Y-66421000D03*
%TO.P,U3,3,VDD*%
%TO.N,+5V*%
X163257000Y-65151000D03*
%TO.P,U3,4,RXD*%
%TO.N,CAN_RX*%
X163257000Y-63881000D03*
%TO.P,U3,5,Vref*%
%TO.N,unconnected-(U3-Vref-Pad5)*%
X158307000Y-63881000D03*
%TO.P,U3,6,CANL*%
%TO.N,Net-(J7-CANL)*%
X158307000Y-65151000D03*
%TO.P,U3,7,CANH*%
%TO.N,Net-(J7-CANH)*%
X158307000Y-66421000D03*
%TO.P,U3,8,Rs*%
%TO.N,Net-(U3-Rs)*%
X158307000Y-67691000D03*
%TD*%
D23*
%TO.P,J1,1,-*%
%TO.N,GND*%
X123571000Y-116586000D03*
D24*
%TO.P,J1,2,+*%
%TO.N,+BATT*%
X123571000Y-111586000D03*
%TD*%
D16*
%TO.P,R9,1*%
%TO.N,Net-(J7-CANH)*%
X153289000Y-66422000D03*
%TO.P,R9,2*%
%TO.N,Net-(C5-Pad1)*%
X153289000Y-68072000D03*
%TD*%
D25*
%TO.P,D2,2,A*%
%TO.N,Net-(D2-A)*%
X202460000Y-83693000D03*
D26*
%TO.P,D2,1,K*%
%TO.N,GND*%
X205000000Y-83693000D03*
%TD*%
D27*
%TO.P,U2,1,\u002A1OE*%
%TO.N,MOTOR_TXE*%
X159467550Y-82591001D03*
%TO.P,U2,2,1A*%
%TO.N,Net-(J2-DATA)*%
X159467550Y-83240999D03*
%TO.P,U2,3,2Y*%
X159467550Y-83891001D03*
%TO.P,U2,4,GND*%
%TO.N,GND*%
X159467550Y-84540999D03*
%TO.P,U2,5,2A*%
%TO.N,MOTOR_TX*%
X162858450Y-84540999D03*
%TO.P,U2,6,1Y*%
%TO.N,MOTOR_RX*%
X162858450Y-83891001D03*
%TO.P,U2,7,2OE*%
%TO.N,MOTOR_TXE*%
X162858450Y-83240999D03*
%TO.P,U2,8,VCC*%
%TO.N,+5V*%
X162858450Y-82591001D03*
%TD*%
D12*
%TO.P,J8,1,TX*%
%TO.N,Net-(J8-TX)*%
X161000000Y-113000000D03*
D13*
%TO.P,J8,2,RX*%
%TO.N,Net-(J8-RX)*%
X161000000Y-115540000D03*
%TO.P,J8,3,GND*%
%TO.N,GND*%
X161000000Y-118080000D03*
%TO.P,J8,4*%
%TO.N,N/C*%
X161000000Y-120620000D03*
%TD*%
D28*
%TO.P,C5,1*%
%TO.N,Net-(C5-Pad1)*%
X153289000Y-69570000D03*
%TO.P,C5,2*%
%TO.N,GND*%
X153289000Y-71120000D03*
%TD*%
D12*
%TO.P,J6,1,VCC*%
%TO.N,+5V*%
X205740000Y-113030000D03*
D13*
%TO.P,J6,2,GND*%
%TO.N,GND*%
X203200000Y-113030000D03*
%TO.P,J6,3,SCL*%
%TO.N,GY_SCL*%
X200660000Y-113030000D03*
%TO.P,J6,4,SDA*%
%TO.N,GY_SDA*%
X198120000Y-113030000D03*
%TO.P,J6,5,EDA*%
%TO.N,unconnected-(J6-EDA-Pad5)*%
X195580000Y-113030000D03*
%TO.P,J6,6,ECL*%
%TO.N,unconnected-(J6-ECL-Pad6)*%
X193040000Y-113030000D03*
%TO.P,J6,7,AD0*%
%TO.N,unconnected-(J6-AD0-Pad7)*%
X190500000Y-113030000D03*
%TO.P,J6,8,INT*%
%TO.N,GY_INT*%
X187960000Y-113030000D03*
%TO.P,J6,9,NCS*%
%TO.N,unconnected-(J6-NCS-Pad9)*%
X185420000Y-113030000D03*
%TO.P,J6,10,FSYNC*%
%TO.N,unconnected-(J6-FSYNC-Pad10)*%
X182880000Y-113030000D03*
%TD*%
D16*
%TO.P,R6,1*%
%TO.N,Net-(D2-A)*%
X202057000Y-88265000D03*
%TO.P,R6,2*%
%TO.N,LED_RUN*%
X202057000Y-89915000D03*
%TD*%
D25*
%TO.P,D1,2,A*%
%TO.N,Net-(D1-A)*%
X202460000Y-76454000D03*
D26*
%TO.P,D1,1,K*%
%TO.N,GND*%
X205000000Y-76454000D03*
%TD*%
D15*
%TO.P,C3,1*%
%TO.N,+BATT*%
X159359000Y-78075000D03*
%TO.P,C3,2*%
%TO.N,GND*%
X160909000Y-78075000D03*
%TD*%
D29*
%TO.P,C1,2*%
%TO.N,GND*%
X132588000Y-116332000D03*
%TO.P,C1,1*%
%TO.N,+BATT*%
X132588000Y-110932000D03*
%TD*%
D16*
%TO.P,R12,1*%
%TO.N,GND*%
X145669000Y-82867000D03*
%TO.P,R12,2*%
%TO.N,Net-(U1A-PA0)*%
X145669000Y-84517000D03*
%TD*%
D18*
%TO.P,R4,2*%
%TO.N,MOTOR_RX*%
X153670000Y-84074000D03*
%TO.P,R4,1*%
%TO.N,+5V*%
X152020000Y-84074000D03*
%TD*%
%TO.P,R3,1*%
%TO.N,MOTOR_TXE*%
X152020000Y-81818000D03*
%TO.P,R3,2*%
%TO.N,GND*%
X153670000Y-81818000D03*
%TD*%
D19*
%TO.P,R1,1*%
%TO.N,Net-(VR1-VO_ADJ)*%
X148399000Y-104902000D03*
%TO.P,R1,2*%
%TO.N,GND*%
X146749000Y-104902000D03*
%TD*%
D18*
%TO.P,R7,1*%
%TO.N,Net-(JP1-A)*%
X145162000Y-65024000D03*
%TO.P,R7,2*%
%TO.N,Net-(J7-CANL)*%
X146812000Y-65024000D03*
%TD*%
D30*
%TO.N,MOTOR_RX*%
X154979000Y-86771900D03*
X154694000Y-84328000D03*
%TO.N,Net-(J2-DATA)*%
X150372000Y-79125300D03*
%TO.N,Net-(J7-CANL)*%
X136430000Y-66546700D03*
%TO.N,+5V*%
X165989000Y-68834000D03*
X164465000Y-70358000D03*
%TD*%
D31*
%TO.N,GND*%
X149987000Y-77597000D02*
X153797000Y-77597000D01*
X153797000Y-77597000D02*
X154686000Y-78486000D01*
X147585000Y-79999000D02*
X149987000Y-77597000D01*
X147585000Y-82450700D02*
X147585000Y-79999000D01*
%TO.N,Net-(VR1-VO_ADJ)*%
X148399000Y-117284000D02*
X148399000Y-104902000D01*
X152654000Y-121539000D02*
X148399000Y-117284000D01*
%TO.N,MOTOR_RX*%
X150302000Y-86548500D02*
X154979000Y-86548500D01*
X147447000Y-83693000D02*
X150302000Y-86548500D01*
X144145000Y-83693000D02*
X147447000Y-83693000D01*
X143891000Y-83439000D02*
X144145000Y-83693000D01*
X132461000Y-83439000D02*
X143891000Y-83439000D01*
X131318000Y-82296000D02*
X132461000Y-83439000D01*
X154979000Y-86548500D02*
X154979000Y-86771900D01*
X153670000Y-84328000D02*
X154694000Y-84328000D01*
X161751000Y-83891000D02*
X162858000Y-83891000D01*
X159093000Y-86548500D02*
X161751000Y-83891000D01*
X154979000Y-86548500D02*
X159093000Y-86548500D01*
X162858000Y-83891000D02*
X162858500Y-83891000D01*
X153670000Y-84074000D02*
X153670000Y-84328000D01*
%TO.N,MOTOR_TX*%
X163966000Y-84541000D02*
X162858500Y-84541000D01*
X173062000Y-93636200D02*
X163966000Y-84541000D01*
X192876000Y-93636200D02*
X173062000Y-93636200D01*
X193548000Y-92964000D02*
X192876000Y-93636200D01*
X193548000Y-78486000D02*
X193548000Y-92964000D01*
X192278000Y-77216000D02*
X193548000Y-78486000D01*
X162858500Y-84541000D02*
X162858000Y-84541000D01*
%TO.N,Net-(J2-DATA)*%
X152467000Y-78105000D02*
X153670000Y-79308000D01*
X151393000Y-78105000D02*
X152467000Y-78105000D01*
X150372000Y-79125300D02*
X151393000Y-78105000D01*
X156656000Y-85593000D02*
X158360000Y-83889300D01*
X150871000Y-85593000D02*
X156656000Y-85593000D01*
X149479000Y-84201000D02*
X150871000Y-85593000D01*
X149479000Y-80018600D02*
X149479000Y-84201000D01*
X150372000Y-79125300D02*
X149479000Y-80018600D01*
X158360000Y-83241000D02*
X159467600Y-83241000D01*
X158360000Y-83889300D02*
X158360000Y-83241000D01*
X159467600Y-83241000D02*
X159468000Y-83241000D01*
X159468000Y-83891000D02*
X159467600Y-83891000D01*
X158361000Y-83891000D02*
X158360000Y-83889300D01*
X159467600Y-83891000D02*
X158361000Y-83891000D01*
%TO.N,MOTOR_TXE*%
X164048000Y-83241000D02*
X162858500Y-83241000D01*
X171994000Y-91186000D02*
X164048000Y-83241000D01*
X191008000Y-91186000D02*
X171994000Y-91186000D01*
X192278000Y-92456000D02*
X191008000Y-91186000D01*
X160576000Y-82591000D02*
X159467600Y-82591000D01*
X161226000Y-83241000D02*
X160576000Y-82591000D01*
X162858500Y-83241000D02*
X161226000Y-83241000D01*
X150241000Y-83597000D02*
X152020000Y-81818000D01*
X150241000Y-84201000D02*
X150241000Y-83597000D01*
X151180000Y-85139600D02*
X150241000Y-84201000D01*
X155163000Y-85139600D02*
X151180000Y-85139600D01*
X157711000Y-82591000D02*
X155163000Y-85139600D01*
X159467600Y-82591000D02*
X157711000Y-82591000D01*
%TO.N,CAN_RX*%
X180594000Y-63881000D02*
X163257000Y-63881000D01*
X186059000Y-69346000D02*
X180594000Y-63881000D01*
X189350000Y-69346000D02*
X186059000Y-69346000D01*
X190870000Y-70866000D02*
X189350000Y-69346000D01*
X193548000Y-70866000D02*
X190870000Y-70866000D01*
X194818000Y-72136000D02*
X193548000Y-70866000D01*
%TO.N,CAN_TX*%
X167452000Y-71886000D02*
X163257000Y-67691000D01*
X189350000Y-71886000D02*
X167452000Y-71886000D01*
X190870000Y-73406000D02*
X189350000Y-71886000D01*
X195707000Y-73406000D02*
X190870000Y-73406000D01*
X196596000Y-72517000D02*
X195707000Y-73406000D01*
X196596000Y-71374000D02*
X196596000Y-72517000D01*
X194818000Y-69596000D02*
X196596000Y-71374000D01*
%TO.N,+BATT*%
X158373000Y-77089000D02*
X159359000Y-78075000D01*
X143259000Y-77089000D02*
X158373000Y-77089000D01*
X141862000Y-78486000D02*
X143259000Y-77089000D01*
X133552000Y-78486000D02*
X141862000Y-78486000D01*
X132730000Y-79307300D02*
X133552000Y-78486000D01*
X132730000Y-79946200D02*
X132730000Y-79307300D01*
X131650000Y-81026000D02*
X132730000Y-79946200D01*
X131042000Y-81026000D02*
X131650000Y-81026000D01*
X130207000Y-81861100D02*
X131042000Y-81026000D01*
X130207000Y-88503000D02*
X130207000Y-81861100D01*
D32*
X138242000Y-110932000D02*
X140464000Y-113154000D01*
X132588000Y-110932000D02*
X138242000Y-110932000D01*
X131934000Y-111586000D02*
X132588000Y-110932000D01*
X123571000Y-111586000D02*
X131934000Y-111586000D01*
X207772000Y-54483000D02*
X207772000Y-59182000D01*
X204851000Y-51562000D02*
X207772000Y-54483000D01*
X185420000Y-51562000D02*
X204851000Y-51562000D01*
X180848000Y-56134000D02*
X185420000Y-51562000D01*
X137541000Y-56134000D02*
X180848000Y-56134000D01*
X133985000Y-52578000D02*
X137541000Y-56134000D01*
X121031000Y-52578000D02*
X133985000Y-52578000D01*
X120015000Y-53594000D02*
X121031000Y-52578000D01*
X120015000Y-59563000D02*
X120015000Y-53594000D01*
X204850000Y-99540000D02*
X204000000Y-99540000D01*
X207772000Y-96618000D02*
X204850000Y-99540000D01*
X207772000Y-59182000D02*
X207772000Y-96618000D01*
X120038000Y-59540000D02*
X120015000Y-59563000D01*
X123000000Y-59540000D02*
X120038000Y-59540000D01*
X207414000Y-59540000D02*
X204000000Y-59540000D01*
X207772000Y-59182000D02*
X207414000Y-59540000D01*
X120015000Y-110911000D02*
X120015000Y-99568000D01*
X120690000Y-111586000D02*
X120015000Y-110911000D01*
X123571000Y-111586000D02*
X120690000Y-111586000D01*
X120043000Y-99540000D02*
X123000000Y-99540000D01*
X120015000Y-99568000D02*
X120043000Y-99540000D01*
D31*
X120015000Y-97790000D02*
X120015000Y-97917000D01*
X144668000Y-88503000D02*
X145669000Y-87502000D01*
X130207000Y-88503000D02*
X144668000Y-88503000D01*
X126385000Y-92325000D02*
X130207000Y-88503000D01*
X120015000Y-92325000D02*
X126385000Y-92325000D01*
D32*
X120015000Y-92325000D02*
X120015000Y-59563000D01*
X120015000Y-99568000D02*
X120015000Y-97917000D01*
X120015000Y-97917000D02*
X120015000Y-97790000D01*
X120015000Y-97790000D02*
X120015000Y-92325000D01*
D31*
%TO.N,Net-(U1A-PA0)*%
X146477000Y-86660300D02*
X145669000Y-85852000D01*
X146477000Y-87917500D02*
X146477000Y-86660300D01*
X143280000Y-91114900D02*
X146477000Y-87917500D01*
X135057000Y-91114900D02*
X143280000Y-91114900D01*
X133858000Y-89916000D02*
X135057000Y-91114900D01*
X145669000Y-84517000D02*
X145669000Y-85852000D01*
%TO.N,Net-(U3-Rs)*%
X158242000Y-67756000D02*
X158242000Y-71120000D01*
X158307000Y-67691000D02*
X158242000Y-67756000D01*
%TO.N,Net-(C5-Pad1)*%
X153289000Y-68072000D02*
X153289000Y-69570000D01*
%TO.N,Net-(J7-CANH)*%
X153290000Y-66421000D02*
X153289000Y-66422000D01*
X158307000Y-66421000D02*
X153290000Y-66421000D01*
X146261000Y-73450400D02*
X153289000Y-66422000D01*
X127266000Y-73450400D02*
X146261000Y-73450400D01*
X125177000Y-75540000D02*
X127266000Y-73450400D01*
X124000000Y-75540000D02*
X125177000Y-75540000D01*
%TO.N,Net-(C4-Pad1)*%
X153289000Y-63373000D02*
X153289000Y-61875000D01*
%TO.N,Net-(J7-CANL)*%
X153288000Y-65024000D02*
X146812000Y-65024000D01*
X153289000Y-65023000D02*
X153288000Y-65024000D01*
X137050000Y-65926600D02*
X136430000Y-66546700D01*
X145909000Y-65926600D02*
X137050000Y-65926600D01*
X146812000Y-65024000D02*
X145909000Y-65926600D01*
X153417000Y-65151000D02*
X153289000Y-65023000D01*
X158307000Y-65151000D02*
X153417000Y-65151000D01*
%TO.N,Net-(JP1-A)*%
X125177000Y-73000000D02*
X124000000Y-73000000D01*
X129851000Y-68326000D02*
X125177000Y-73000000D01*
X135001000Y-68326000D02*
X129851000Y-68326000D01*
X135256000Y-68070800D02*
X135001000Y-68326000D01*
X135256000Y-66692200D02*
X135256000Y-68070800D01*
X136924000Y-65024000D02*
X135256000Y-66692200D01*
X145162000Y-65024000D02*
X136924000Y-65024000D01*
%TO.N,LED_RUN*%
X202056000Y-89916000D02*
X202057000Y-89915000D01*
X194818000Y-89916000D02*
X202056000Y-89916000D01*
%TO.N,LED_ERR*%
X199898000Y-82296000D02*
X199898000Y-78041000D01*
X194818000Y-87376000D02*
X199898000Y-82296000D01*
%TO.N,Net-(J9-TX)*%
X168432000Y-115540000D02*
X168000000Y-115540000D01*
X173228000Y-110744000D02*
X168432000Y-115540000D01*
X186182000Y-110744000D02*
X173228000Y-110744000D01*
X193548000Y-103378000D02*
X186182000Y-110744000D01*
X193548000Y-101346000D02*
X193548000Y-103378000D01*
X192278000Y-100076000D02*
X193548000Y-101346000D01*
%TO.N,Net-(J9-RX)*%
X187663000Y-107231000D02*
X192278000Y-102616000D01*
X174946000Y-107231000D02*
X187663000Y-107231000D01*
X169177000Y-113000000D02*
X174946000Y-107231000D01*
X168000000Y-113000000D02*
X169177000Y-113000000D01*
%TO.N,+5V*%
X205740000Y-114173000D02*
X205740000Y-113030000D01*
X199293000Y-120620000D02*
X205740000Y-114173000D01*
X175000000Y-120620000D02*
X199293000Y-120620000D01*
X161420000Y-64519000D02*
X161420000Y-66595100D01*
X159639000Y-62738000D02*
X161420000Y-64519000D01*
X156720000Y-62738000D02*
X159639000Y-62738000D01*
X155323000Y-64135000D02*
X156720000Y-62738000D01*
X151892000Y-64135000D02*
X155323000Y-64135000D01*
X151765000Y-64008000D02*
X151892000Y-64135000D01*
X135890000Y-64008000D02*
X151765000Y-64008000D01*
X133858000Y-61976000D02*
X135890000Y-64008000D01*
X164232000Y-65151000D02*
X163696000Y-65151000D01*
X165989000Y-66908000D02*
X164232000Y-65151000D01*
X165989000Y-68834000D02*
X165989000Y-66908000D01*
X162179000Y-72644000D02*
X164465000Y-70358000D01*
X162179000Y-81026000D02*
X162179000Y-72644000D01*
X161751000Y-81454400D02*
X162179000Y-81026000D01*
X161751000Y-81534000D02*
X161751000Y-81454400D01*
X163696000Y-65151000D02*
X163257000Y-65151000D01*
X153133000Y-82931000D02*
X152823000Y-82620700D01*
X154559000Y-82931000D02*
X153133000Y-82931000D01*
X155956000Y-81534000D02*
X154559000Y-82931000D01*
X161751000Y-81534000D02*
X155956000Y-81534000D01*
X161751000Y-82063700D02*
X161751000Y-81534000D01*
X152823000Y-82634900D02*
X152823000Y-82620700D01*
X152020000Y-83438000D02*
X152823000Y-82634900D01*
X152020000Y-84074000D02*
X152020000Y-83438000D01*
D32*
X134488000Y-121412000D02*
X133370000Y-121412000D01*
X135626000Y-120274000D02*
X134488000Y-121412000D01*
X140464000Y-120274000D02*
X135626000Y-120274000D01*
D31*
X152823000Y-80111100D02*
X152020000Y-79308000D01*
X152823000Y-82620700D02*
X152823000Y-80111100D01*
X173823000Y-120620000D02*
X175000000Y-120620000D01*
X171468000Y-122975000D02*
X173823000Y-120620000D01*
X143165000Y-122975000D02*
X171468000Y-122975000D01*
X140464000Y-120274000D02*
X143165000Y-122975000D01*
X159359000Y-68656100D02*
X159359000Y-75565000D01*
X161420000Y-66595100D02*
X159359000Y-68656100D01*
X162864000Y-65151000D02*
X161420000Y-66595100D01*
X163257000Y-65151000D02*
X162864000Y-65151000D01*
X152020000Y-84328000D02*
X152020000Y-84074000D01*
X161751000Y-82063700D02*
X161751000Y-81534000D01*
X163696000Y-65151000D02*
X163257000Y-65151000D01*
X161751000Y-82591000D02*
X162858000Y-82591000D01*
X161751000Y-82063700D02*
X161751000Y-82591000D01*
X162858000Y-82591000D02*
X162858500Y-82591000D01*
%TO.N,Net-(D2-A)*%
X202460000Y-87862000D02*
X202057000Y-88265000D01*
X202460000Y-83693000D02*
X202460000Y-87862000D01*
%TO.N,Net-(D1-A)*%
X199961000Y-76454000D02*
X199898000Y-76391000D01*
X202460000Y-76454000D02*
X199961000Y-76454000D01*
%TO.N,GND*%
X199547000Y-118080000D02*
X175000000Y-118080000D01*
X203200000Y-114427000D02*
X199547000Y-118080000D01*
X203200000Y-113030000D02*
X203200000Y-114427000D01*
X203350000Y-57000000D02*
X204000000Y-57000000D01*
X197326000Y-63024100D02*
X203350000Y-57000000D01*
X197326000Y-68167200D02*
X197326000Y-63024100D01*
X199477000Y-74930000D02*
X199350000Y-75057000D01*
X203073000Y-74930000D02*
X199477000Y-74930000D01*
X204597000Y-76454000D02*
X203073000Y-74930000D01*
X205000000Y-76454000D02*
X204597000Y-76454000D01*
X132588000Y-63246000D02*
X132588000Y-60706000D01*
X133858000Y-64516000D02*
X132588000Y-63246000D01*
X159736000Y-79248000D02*
X160909000Y-78075000D01*
X155448000Y-79248000D02*
X159736000Y-79248000D01*
X154686000Y-78486000D02*
X155448000Y-79248000D01*
X156592000Y-74550000D02*
X156592000Y-71120000D01*
X158877000Y-76835000D02*
X156592000Y-74550000D01*
X160463000Y-76835000D02*
X158877000Y-76835000D01*
X160909000Y-76388700D02*
X160463000Y-76835000D01*
X158360000Y-84541000D02*
X159467600Y-84541000D01*
X156856000Y-86045000D02*
X158360000Y-84541000D01*
X150561000Y-86045000D02*
X156856000Y-86045000D01*
X147585000Y-83069100D02*
X150561000Y-86045000D01*
X147585000Y-82450700D02*
X147585000Y-83069100D01*
D32*
X132588000Y-118618000D02*
X132588000Y-116332000D01*
X130830000Y-120376000D02*
X132588000Y-118618000D01*
X130830000Y-121412000D02*
X130830000Y-120376000D01*
X132334000Y-116586000D02*
X132588000Y-116332000D01*
X123571000Y-116586000D02*
X132334000Y-116586000D01*
D31*
X168000000Y-118080000D02*
X161000000Y-118080000D01*
X156592000Y-71120000D02*
X153289000Y-71120000D01*
X168000000Y-118080000D02*
X175000000Y-118080000D01*
D32*
X140082000Y-116332000D02*
X140273000Y-116523000D01*
X132588000Y-116332000D02*
X140082000Y-116332000D01*
X140273000Y-116523000D02*
X140464000Y-116714000D01*
D31*
X146749000Y-110047000D02*
X146749000Y-104902000D01*
X140273000Y-116523000D02*
X146749000Y-110047000D01*
X143828000Y-81026000D02*
X145669000Y-82867000D01*
X135128000Y-81026000D02*
X143828000Y-81026000D01*
X133858000Y-79756000D02*
X135128000Y-81026000D01*
X146085000Y-82450700D02*
X147585000Y-82450700D01*
X145669000Y-82867000D02*
X146085000Y-82450700D01*
X160909000Y-76388700D02*
X160909000Y-78075000D01*
X193389000Y-68167200D02*
X197326000Y-68167200D01*
X192278000Y-67056000D02*
X193389000Y-68167200D01*
X199350000Y-75223700D02*
X194818000Y-79756000D01*
X160909000Y-76388700D02*
X160909000Y-75565000D01*
X162235000Y-66421000D02*
X163257000Y-66421000D01*
X160909000Y-67747400D02*
X162235000Y-66421000D01*
X160909000Y-75565000D02*
X160909000Y-67747400D01*
X199350000Y-75057000D02*
X199350000Y-75223700D01*
X199350000Y-75223700D02*
X199350000Y-75057000D01*
X199350000Y-70191600D02*
X197326000Y-68167200D01*
X199350000Y-75057000D02*
X199350000Y-70191600D01*
X159467600Y-84541000D02*
X159468000Y-84541000D01*
X154686000Y-80802000D02*
X153670000Y-81818000D01*
X154686000Y-78486000D02*
X154686000Y-80802000D01*
X152908000Y-60706000D02*
X132588000Y-60706000D01*
X153289000Y-60325000D02*
X152908000Y-60706000D01*
X124177000Y-57000000D02*
X123000000Y-57000000D01*
X127883000Y-60706000D02*
X124177000Y-57000000D01*
X132588000Y-60706000D02*
X127883000Y-60706000D01*
%TD*%
M02*
