%TF.GenerationSoftware,KiCad,Pcbnew,7.0.8*%
%TF.CreationDate,2023-10-27T12:44:36+09:00*%
%TF.ProjectId,doggedness_schemetic,646f6767-6564-46e6-9573-735f73636865,rev?*%
%TF.SameCoordinates,Original*%
%TF.FileFunction,Soldermask,Bot*%
%TF.FilePolarity,Negative*%
%FSLAX46Y46*%
G04 Gerber Fmt 4.6, Leading zero omitted, Abs format (unit mm)*
G04 Created by KiCad (PCBNEW 7.0.8) date 2023-10-27 12:44:36*
%MOMM*%
%LPD*%
G01*
G04 APERTURE LIST*
G04 Aperture macros list*
%AMRoundRect*
0 Rectangle with rounded corners*
0 $1 Rounding radius*
0 $2 $3 $4 $5 $6 $7 $8 $9 X,Y pos of 4 corners*
0 Add a 4 corners polygon primitive as box body*
4,1,4,$2,$3,$4,$5,$6,$7,$8,$9,$2,$3,0*
0 Add four circle primitives for the rounded corners*
1,1,$1+$1,$2,$3*
1,1,$1+$1,$4,$5*
1,1,$1+$1,$6,$7*
1,1,$1+$1,$8,$9*
0 Add four rect primitives between the rounded corners*
20,1,$1+$1,$2,$3,$4,$5,0*
20,1,$1+$1,$4,$5,$6,$7,0*
20,1,$1+$1,$6,$7,$8,$9,0*
20,1,$1+$1,$8,$9,$2,$3,0*%
G04 Aperture macros list end*
%ADD10R,1.700000X1.700000*%
%ADD11O,1.700000X1.700000*%
%ADD12RoundRect,0.102000X-1.050000X-1.050000X1.050000X-1.050000X1.050000X1.050000X-1.050000X1.050000X0*%
%ADD13C,2.304000*%
%ADD14R,3.800000X3.800000*%
%ADD15C,4.000000*%
%ADD16R,1.800000X1.800000*%
%ADD17C,1.800000*%
%ADD18C,3.000000*%
%ADD19RoundRect,0.102000X-0.765000X-0.765000X0.765000X-0.765000X0.765000X0.765000X-0.765000X0.765000X0*%
%ADD20C,1.734000*%
G04 APERTURE END LIST*
D10*
%TO.C,J10*%
X175000000Y-113000000D03*
D11*
X175000000Y-115540000D03*
X175000000Y-118080000D03*
X175000000Y-120620000D03*
%TD*%
D10*
%TO.C,J9*%
X168000000Y-113000000D03*
D11*
X168000000Y-115540000D03*
X168000000Y-118080000D03*
X168000000Y-120620000D03*
%TD*%
D10*
%TO.C,JP1*%
X124000000Y-73000000D03*
D11*
X124000000Y-75540000D03*
%TD*%
D10*
%TO.C,J5*%
X204000000Y-97000000D03*
D11*
X204000000Y-99540000D03*
X204000000Y-102080000D03*
%TD*%
D10*
%TO.C,J7*%
X124000000Y-85110000D03*
D11*
X124000000Y-87650000D03*
%TD*%
D12*
%TO.C,VR1*%
X140464000Y-113154000D03*
D13*
X140464000Y-116714000D03*
X140464000Y-120274000D03*
X152654000Y-121539000D03*
X152654000Y-111889000D03*
%TD*%
D10*
%TO.C,J2*%
X123000000Y-57000000D03*
D11*
X123000000Y-59540000D03*
X123000000Y-62080000D03*
%TD*%
D10*
%TO.C,J4*%
X123000000Y-97000000D03*
D11*
X123000000Y-99540000D03*
X123000000Y-102080000D03*
%TD*%
D10*
%TO.C,J3*%
X204000000Y-57000000D03*
D11*
X204000000Y-59540000D03*
X204000000Y-62080000D03*
%TD*%
D10*
%TO.C,J11*%
X130830000Y-121412000D03*
D11*
X133370000Y-121412000D03*
%TD*%
D14*
%TO.C,J1*%
X123571000Y-116586000D03*
D15*
X123571000Y-111586000D03*
%TD*%
D16*
%TO.C,D2*%
X205000000Y-83693000D03*
D17*
X202460000Y-83693000D03*
%TD*%
D10*
%TO.C,J8*%
X161000000Y-113000000D03*
D11*
X161000000Y-115540000D03*
X161000000Y-118080000D03*
X161000000Y-120620000D03*
%TD*%
D10*
%TO.C,J6*%
X205740000Y-113030000D03*
D11*
X203200000Y-113030000D03*
X200660000Y-113030000D03*
X198120000Y-113030000D03*
X195580000Y-113030000D03*
X193040000Y-113030000D03*
X190500000Y-113030000D03*
X187960000Y-113030000D03*
X185420000Y-113030000D03*
X182880000Y-113030000D03*
%TD*%
D18*
%TO.C,U1*%
X138938000Y-53086000D03*
X171958000Y-105156000D03*
X187198000Y-54356000D03*
D19*
X131318000Y-56896000D03*
D20*
X133858000Y-56896000D03*
X131318000Y-59436000D03*
X133858000Y-59436000D03*
X131318000Y-61976000D03*
X133858000Y-61976000D03*
X131318000Y-64516000D03*
X133858000Y-64516000D03*
X131318000Y-67056000D03*
X133858000Y-67056000D03*
X131318000Y-69596000D03*
X133858000Y-69596000D03*
X131318000Y-72136000D03*
X133858000Y-72136000D03*
X131318000Y-74676000D03*
X133858000Y-74676000D03*
X131318000Y-77216000D03*
X133858000Y-77216000D03*
X131318000Y-79756000D03*
X133858000Y-79756000D03*
X131318000Y-82296000D03*
X133858000Y-82296000D03*
X131318000Y-84836000D03*
X133858000Y-84836000D03*
X131318000Y-87376000D03*
X133858000Y-87376000D03*
X131318000Y-89916000D03*
X133858000Y-89916000D03*
X131318000Y-92456000D03*
X133858000Y-92456000D03*
X131318000Y-94996000D03*
X133858000Y-94996000D03*
X131318000Y-97536000D03*
X133858000Y-97536000D03*
X131318000Y-100076000D03*
X133858000Y-100076000D03*
X131318000Y-102616000D03*
X133858000Y-102616000D03*
D19*
X192278000Y-56896000D03*
D20*
X194818000Y-56896000D03*
X192278000Y-59436000D03*
X194818000Y-59436000D03*
X192278000Y-61976000D03*
X194818000Y-61976000D03*
X192278000Y-64516000D03*
X194818000Y-64516000D03*
X192278000Y-67056000D03*
X194818000Y-67056000D03*
X192278000Y-69596000D03*
X194818000Y-69596000D03*
X192278000Y-72136000D03*
X194818000Y-72136000D03*
X192278000Y-74676000D03*
X194818000Y-74676000D03*
X192278000Y-77216000D03*
X194818000Y-77216000D03*
X192278000Y-79756000D03*
X194818000Y-79756000D03*
X192278000Y-82296000D03*
X194818000Y-82296000D03*
X192278000Y-84836000D03*
X194818000Y-84836000D03*
X192278000Y-87376000D03*
X194818000Y-87376000D03*
X192278000Y-89916000D03*
X194818000Y-89916000D03*
X192278000Y-92456000D03*
X194818000Y-92456000D03*
X192278000Y-94996000D03*
X194818000Y-94996000D03*
X192278000Y-97536000D03*
X194818000Y-97536000D03*
X192278000Y-100076000D03*
X194818000Y-100076000D03*
X192278000Y-102616000D03*
X194818000Y-102616000D03*
%TD*%
D16*
%TO.C,D1*%
X205000000Y-76454000D03*
D17*
X202460000Y-76454000D03*
%TD*%
M02*
