%TF.GenerationSoftware,KiCad,Pcbnew,7.0.8*%
%TF.CreationDate,2023-10-27T03:08:27+09:00*%
%TF.ProjectId,doggedness_schemetic,646f6767-6564-46e6-9573-735f73636865,rev?*%
%TF.SameCoordinates,Original*%
%TF.FileFunction,Copper,L2,Bot*%
%TF.FilePolarity,Positive*%
%FSLAX46Y46*%
G04 Gerber Fmt 4.6, Leading zero omitted, Abs format (unit mm)*
G04 Created by KiCad (PCBNEW 7.0.8) date 2023-10-27 03:08:27*
%MOMM*%
%LPD*%
G01*
G04 APERTURE LIST*
%TA.AperFunction,ComponentPad*%
%ADD10C,1.530000*%
%TD*%
%TA.AperFunction,ComponentPad*%
%ADD11R,1.530000X1.530000*%
%TD*%
%TA.AperFunction,ComponentPad*%
%ADD12R,1.700000X1.700000*%
%TD*%
%TA.AperFunction,ComponentPad*%
%ADD13O,1.700000X1.700000*%
%TD*%
%TA.AperFunction,ComponentPad*%
%ADD14R,2.100000X2.100000*%
%TD*%
%TA.AperFunction,ComponentPad*%
%ADD15C,2.100000*%
%TD*%
%TA.AperFunction,ComponentPad*%
%ADD16R,3.800000X3.800000*%
%TD*%
%TA.AperFunction,ComponentPad*%
%ADD17C,4.000000*%
%TD*%
%TA.AperFunction,ComponentPad*%
%ADD18C,1.800000*%
%TD*%
%TA.AperFunction,ComponentPad*%
%ADD19R,1.800000X1.800000*%
%TD*%
%TA.AperFunction,ViaPad*%
%ADD20C,0.800000*%
%TD*%
%TA.AperFunction,Conductor*%
%ADD21C,0.250000*%
%TD*%
G04 APERTURE END LIST*
D10*
%TO.P,U1,CN10_38*%
%TO.N,N/C*%
X194818000Y-102616000D03*
%TO.P,U1,CN10_37,PA3*%
%TO.N,Net-(J9-RX)*%
X192278000Y-102616000D03*
%TO.P,U1,CN10_36*%
%TO.N,N/C*%
X194818000Y-100076000D03*
%TO.P,U1,CN10_35,PA2*%
%TO.N,Net-(J9-TX)*%
X192278000Y-100076000D03*
%TO.P,U1,CN10_34,PC4*%
%TO.N,unconnected-(U1B-PC4-PadCN10_34)*%
X194818000Y-97536000D03*
%TO.P,U1,CN10_33,PA10*%
%TO.N,unconnected-(U1B-PA10-PadCN10_33)*%
X192278000Y-97536000D03*
%TO.P,U1,CN10_32,AGND*%
%TO.N,unconnected-(U1B-AGND-PadCN10_32)*%
X194818000Y-94996000D03*
%TO.P,U1,CN10_31,PB3*%
%TO.N,unconnected-(U1B-PB3-PadCN10_31)*%
X192278000Y-94996000D03*
%TO.P,U1,CN10_30,PB13*%
%TO.N,unconnected-(U1B-PB13-PadCN10_30)*%
X194818000Y-92456000D03*
%TO.P,U1,CN10_29,PB5*%
%TO.N,MOTOR_TXE*%
X192278000Y-92456000D03*
%TO.P,U1,CN10_28,PB14*%
%TO.N,LED_RUN*%
X194818000Y-89916000D03*
%TO.P,U1,CN10_27,PB4*%
%TO.N,GY_INT*%
X192278000Y-89916000D03*
%TO.P,U1,CN10_26,PB15*%
%TO.N,LED_ERR*%
X194818000Y-87376000D03*
%TO.P,U1,CN10_25,PB10*%
%TO.N,Net-(J10-TX)*%
X192278000Y-87376000D03*
%TO.P,U1,CN10_24,PB1*%
%TO.N,unconnected-(U1B-PB1-PadCN10_24)*%
X194818000Y-84836000D03*
%TO.P,U1,CN10_23,PA8*%
%TO.N,unconnected-(U1B-PA8-PadCN10_23)*%
X192278000Y-84836000D03*
%TO.P,U1,CN10_22,PB2*%
%TO.N,unconnected-(U1B-PB2-PadCN10_22)*%
X194818000Y-82296000D03*
%TO.P,U1,CN10_21,PA9*%
%TO.N,unconnected-(U1B-PA9-PadCN10_21)*%
X192278000Y-82296000D03*
%TO.P,U1,CN10_20,CN10_GND*%
%TO.N,GND*%
X194818000Y-79756000D03*
%TO.P,U1,CN10_19,PC7*%
%TO.N,Net-(J8-RX)*%
X192278000Y-79756000D03*
%TO.P,U1,CN10_18*%
%TO.N,N/C*%
X194818000Y-77216000D03*
%TO.P,U1,CN10_17,PB6*%
%TO.N,MOTOR_TX*%
X192278000Y-77216000D03*
%TO.P,U1,CN10_16,PB12*%
%TO.N,unconnected-(U1B-PB12-PadCN10_16)*%
X194818000Y-74676000D03*
%TO.P,U1,CN10_15,PA7*%
%TO.N,unconnected-(U1B-PA7-PadCN10_15)*%
X192278000Y-74676000D03*
%TO.P,U1,CN10_14,PA11*%
%TO.N,CAN_RX*%
X194818000Y-72136000D03*
%TO.P,U1,CN10_13,PA6*%
%TO.N,unconnected-(U1B-PA6-PadCN10_13)*%
X192278000Y-72136000D03*
%TO.P,U1,CN10_12,PA12*%
%TO.N,CAN_TX*%
X194818000Y-69596000D03*
%TO.P,U1,CN10_11,PA5*%
%TO.N,unconnected-(U1B-PA5-PadCN10_11)*%
X192278000Y-69596000D03*
%TO.P,U1,CN10_10*%
%TO.N,N/C*%
X194818000Y-67056000D03*
%TO.P,U1,CN10_9,CN10_GND*%
%TO.N,GND*%
X192278000Y-67056000D03*
%TO.P,U1,CN10_8,U5V*%
%TO.N,unconnected-(U1B-U5V-PadCN10_8)*%
X194818000Y-64516000D03*
%TO.P,U1,CN10_7,AVDD*%
%TO.N,unconnected-(U1B-AVDD-PadCN10_7)*%
X192278000Y-64516000D03*
%TO.P,U1,CN10_6,PC5*%
%TO.N,Net-(J10-RX)*%
X194818000Y-61976000D03*
%TO.P,U1,CN10_5,PB9*%
%TO.N,GY_SDA*%
X192278000Y-61976000D03*
%TO.P,U1,CN10_4,PC6*%
%TO.N,Net-(J8-TX)*%
X194818000Y-59436000D03*
%TO.P,U1,CN10_3,PB8*%
%TO.N,GY_SCL*%
X192278000Y-59436000D03*
%TO.P,U1,CN10_2,PC8*%
%TO.N,unconnected-(U1B-PC8-PadCN10_2)*%
X194818000Y-56896000D03*
D11*
%TO.P,U1,CN10_1,PC9*%
%TO.N,unconnected-(U1B-PC9-PadCN10_1)*%
X192278000Y-56896000D03*
D10*
%TO.P,U1,CN7_38,PC0/PB8*%
%TO.N,unconnected-(U1A-PC0{slash}PB8-PadCN7_38)*%
X133858000Y-102616000D03*
%TO.P,U1,CN7_37,PC3*%
%TO.N,unconnected-(U1A-PC3-PadCN7_37)*%
X131318000Y-102616000D03*
%TO.P,U1,CN7_36,PC1/PB9*%
%TO.N,unconnected-(U1A-PC1{slash}PB9-PadCN7_36)*%
X133858000Y-100076000D03*
%TO.P,U1,CN7_35,PC2*%
%TO.N,unconnected-(U1A-PC2-PadCN7_35)*%
X131318000Y-100076000D03*
%TO.P,U1,CN7_34,PB0*%
%TO.N,unconnected-(U1A-PB0-PadCN7_34)*%
X133858000Y-97536000D03*
%TO.P,U1,CN7_33,VBAT*%
%TO.N,unconnected-(U1A-VBAT-PadCN7_33)*%
X131318000Y-97536000D03*
%TO.P,U1,CN7_32,PA4*%
%TO.N,unconnected-(U1A-PA4-PadCN7_32)*%
X133858000Y-94996000D03*
%TO.P,U1,CN7_31,PH1*%
%TO.N,unconnected-(U1A-PH1-PadCN7_31)*%
X131318000Y-94996000D03*
%TO.P,U1,CN7_30,PA1*%
%TO.N,unconnected-(U1A-PA1-PadCN7_30)*%
X133858000Y-92456000D03*
%TO.P,U1,CN7_29,PH0*%
%TO.N,unconnected-(U1A-PH0-PadCN7_29)*%
X131318000Y-92456000D03*
%TO.P,U1,CN7_28,PA0*%
%TO.N,Net-(U1A-PA0)*%
X133858000Y-89916000D03*
%TO.P,U1,CN7_27,PC15*%
%TO.N,unconnected-(U1A-PC15-PadCN7_27)*%
X131318000Y-89916000D03*
%TO.P,U1,CN7_26*%
%TO.N,N/C*%
X133858000Y-87376000D03*
%TO.P,U1,CN7_25,PC14*%
%TO.N,unconnected-(U1A-PC14-PadCN7_25)*%
X131318000Y-87376000D03*
%TO.P,U1,CN7_24,CN7_VIN*%
%TO.N,unconnected-(U1A-CN7_VIN-PadCN7_24)*%
X133858000Y-84836000D03*
%TO.P,U1,CN7_23,PC13*%
%TO.N,unconnected-(U1A-PC13-PadCN7_23)*%
X131318000Y-84836000D03*
%TO.P,U1,CN7_22,CN7_GND*%
%TO.N,GND*%
X133858000Y-82296000D03*
%TO.P,U1,CN7_21,PB7*%
%TO.N,MOTOR_RX*%
X131318000Y-82296000D03*
%TO.P,U1,CN7_20,CN7_GND*%
%TO.N,GND*%
X133858000Y-79756000D03*
%TO.P,U1,CN7_19,CN7_GND*%
X131318000Y-79756000D03*
%TO.P,U1,CN7_18,CN7_+5V*%
%TO.N,unconnected-(U1A-CN7_+5V-PadCN7_18)*%
X133858000Y-77216000D03*
%TO.P,U1,CN7_17,PA15*%
%TO.N,unconnected-(U1A-PA15-PadCN7_17)*%
X131318000Y-77216000D03*
%TO.P,U1,CN7_16,CN7_+3V3*%
%TO.N,+3.3V*%
X133858000Y-74676000D03*
%TO.P,U1,CN7_15,PA14*%
%TO.N,unconnected-(U1A-PA14-PadCN7_15)*%
X131318000Y-74676000D03*
%TO.P,U1,CN7_14,CN7_RESET*%
%TO.N,unconnected-(U1A-CN7_RESET-PadCN7_14)*%
X133858000Y-72136000D03*
%TO.P,U1,CN7_13,PA13*%
%TO.N,unconnected-(U1A-PA13-PadCN7_13)*%
X131318000Y-72136000D03*
%TO.P,U1,CN7_12,CN7_IOREF*%
%TO.N,unconnected-(U1A-CN7_IOREF-PadCN7_12)*%
X133858000Y-69596000D03*
%TO.P,U1,CN7_11*%
%TO.N,N/C*%
X131318000Y-69596000D03*
%TO.P,U1,CN7_10*%
X133858000Y-67056000D03*
%TO.P,U1,CN7_9*%
X131318000Y-67056000D03*
%TO.P,U1,CN7_8,CN7_GND*%
%TO.N,GND*%
X133858000Y-64516000D03*
%TO.P,U1,CN7_7,BOOT0*%
%TO.N,unconnected-(U1A-BOOT0-PadCN7_7)*%
X131318000Y-64516000D03*
%TO.P,U1,CN7_6,E5V*%
%TO.N,+5V*%
X133858000Y-61976000D03*
%TO.P,U1,CN7_5,VDD*%
%TO.N,unconnected-(U1A-VDD-PadCN7_5)*%
X131318000Y-61976000D03*
%TO.P,U1,CN7_4,PD2*%
%TO.N,unconnected-(U1A-PD2-PadCN7_4)*%
X133858000Y-59436000D03*
%TO.P,U1,CN7_3,PC12*%
%TO.N,unconnected-(U1A-PC12-PadCN7_3)*%
X131318000Y-59436000D03*
%TO.P,U1,CN7_2,PC11*%
%TO.N,unconnected-(U1A-PC11-PadCN7_2)*%
X133858000Y-56896000D03*
D11*
%TO.P,U1,CN7_1,PC10*%
%TO.N,unconnected-(U1A-PC10-PadCN7_1)*%
X131318000Y-56896000D03*
%TD*%
D12*
%TO.P,J11,1,-*%
%TO.N,GND*%
X130830000Y-121412000D03*
D13*
%TO.P,J11,2,+*%
%TO.N,+5V*%
X133370000Y-121412000D03*
%TD*%
D12*
%TO.P,J10,1,RX*%
%TO.N,Net-(J10-RX)*%
X175000000Y-113000000D03*
D13*
%TO.P,J10,2,TX*%
%TO.N,Net-(J10-TX)*%
X175000000Y-115540000D03*
%TO.P,J10,3,GND*%
%TO.N,GND*%
X175000000Y-118080000D03*
%TO.P,J10,4,VCC*%
%TO.N,+5V*%
X175000000Y-120620000D03*
%TD*%
D12*
%TO.P,J9,1,RX*%
%TO.N,Net-(J9-RX)*%
X168000000Y-113000000D03*
D13*
%TO.P,J9,2,TX*%
%TO.N,Net-(J9-TX)*%
X168000000Y-115540000D03*
%TO.P,J9,3,GND*%
%TO.N,GND*%
X168000000Y-118080000D03*
%TO.P,J9,4,VCC*%
%TO.N,+3.3V*%
X168000000Y-120620000D03*
%TD*%
%TO.P,JP1,2,B*%
%TO.N,Net-(J7-CANH)*%
X124000000Y-75540000D03*
D12*
%TO.P,JP1,1,A*%
%TO.N,Net-(JP1-A)*%
X124000000Y-73000000D03*
%TD*%
%TO.P,J5,1,GND*%
%TO.N,GND*%
X204000000Y-97000000D03*
D13*
%TO.P,J5,2,VDD*%
%TO.N,+BATT*%
X204000000Y-99540000D03*
%TO.P,J5,3,DATA*%
%TO.N,Net-(J2-DATA)*%
X204000000Y-102080000D03*
%TD*%
%TO.P,J7,2,CANL*%
%TO.N,Net-(J7-CANL)*%
X124000000Y-87650000D03*
D12*
%TO.P,J7,1,CANH*%
%TO.N,Net-(J7-CANH)*%
X124000000Y-85110000D03*
%TD*%
D14*
%TO.P,VR1,1,VI*%
%TO.N,+BATT*%
X140464000Y-113154000D03*
D15*
%TO.P,VR1,2,GND*%
%TO.N,GND*%
X140464000Y-116714000D03*
%TO.P,VR1,3,VO*%
%TO.N,+5V*%
X140464000Y-120274000D03*
%TO.P,VR1,4,VO_ADJ*%
%TO.N,Net-(VR1-VO_ADJ)*%
X152654000Y-121539000D03*
%TO.P,VR1,5,~{INHIBIT}*%
%TO.N,unconnected-(VR1-~{INHIBIT}-Pad5)*%
X152654000Y-111889000D03*
%TD*%
D12*
%TO.P,J2,1,GND*%
%TO.N,GND*%
X123000000Y-57000000D03*
D13*
%TO.P,J2,2,VDD*%
%TO.N,+BATT*%
X123000000Y-59540000D03*
%TO.P,J2,3,DATA*%
%TO.N,Net-(J2-DATA)*%
X123000000Y-62080000D03*
%TD*%
D12*
%TO.P,J4,1,GND*%
%TO.N,GND*%
X123000000Y-97000000D03*
D13*
%TO.P,J4,2,VDD*%
%TO.N,+BATT*%
X123000000Y-99540000D03*
%TO.P,J4,3,DATA*%
%TO.N,Net-(J2-DATA)*%
X123000000Y-102080000D03*
%TD*%
D12*
%TO.P,J3,1,GND*%
%TO.N,GND*%
X204000000Y-57000000D03*
D13*
%TO.P,J3,2,VDD*%
%TO.N,+BATT*%
X204000000Y-59540000D03*
%TO.P,J3,3,DATA*%
%TO.N,Net-(J2-DATA)*%
X204000000Y-62080000D03*
%TD*%
D16*
%TO.P,J1,1,-*%
%TO.N,GND*%
X123571000Y-116586000D03*
D17*
%TO.P,J1,2,+*%
%TO.N,+BATT*%
X123571000Y-111586000D03*
%TD*%
D18*
%TO.P,D2,2,A*%
%TO.N,Net-(D2-A)*%
X202460000Y-83693000D03*
D19*
%TO.P,D2,1,K*%
%TO.N,GND*%
X205000000Y-83693000D03*
%TD*%
D12*
%TO.P,J8,1,TX*%
%TO.N,Net-(J8-TX)*%
X161000000Y-113000000D03*
D13*
%TO.P,J8,2,RX*%
%TO.N,Net-(J8-RX)*%
X161000000Y-115540000D03*
%TO.P,J8,3,GND*%
%TO.N,GND*%
X161000000Y-118080000D03*
%TO.P,J8,4*%
%TO.N,N/C*%
X161000000Y-120620000D03*
%TD*%
D12*
%TO.P,J6,1,VCC*%
%TO.N,+5V*%
X205740000Y-113030000D03*
D13*
%TO.P,J6,2,GND*%
%TO.N,GND*%
X203200000Y-113030000D03*
%TO.P,J6,3,SCL*%
%TO.N,GY_SCL*%
X200660000Y-113030000D03*
%TO.P,J6,4,SDA*%
%TO.N,GY_SDA*%
X198120000Y-113030000D03*
%TO.P,J6,5,EDA*%
%TO.N,unconnected-(J6-EDA-Pad5)*%
X195580000Y-113030000D03*
%TO.P,J6,6,ECL*%
%TO.N,unconnected-(J6-ECL-Pad6)*%
X193040000Y-113030000D03*
%TO.P,J6,7,AD0*%
%TO.N,unconnected-(J6-AD0-Pad7)*%
X190500000Y-113030000D03*
%TO.P,J6,8,INT*%
%TO.N,GY_INT*%
X187960000Y-113030000D03*
%TO.P,J6,9,NCS*%
%TO.N,unconnected-(J6-NCS-Pad9)*%
X185420000Y-113030000D03*
%TO.P,J6,10,FSYNC*%
%TO.N,unconnected-(J6-FSYNC-Pad10)*%
X182880000Y-113030000D03*
%TD*%
D18*
%TO.P,D1,2,A*%
%TO.N,Net-(D1-A)*%
X202460000Y-76454000D03*
D19*
%TO.P,D1,1,K*%
%TO.N,GND*%
X205000000Y-76454000D03*
%TD*%
D20*
%TO.N,MOTOR_RX*%
X154979000Y-86771900D03*
X154694000Y-84328000D03*
%TO.N,Net-(J2-DATA)*%
X150372000Y-79125300D03*
%TO.N,Net-(J7-CANL)*%
X136430000Y-66546700D03*
%TO.N,+5V*%
X165989000Y-68834000D03*
X164465000Y-70358000D03*
%TD*%
D21*
%TO.N,Net-(J10-TX)*%
X188531000Y-95441400D02*
X188531000Y-91122600D01*
X188531000Y-91122600D02*
X192278000Y-87376000D01*
X177268000Y-106704000D02*
X185087000Y-98885400D01*
X185087000Y-98885400D02*
X188531000Y-95441400D01*
X177268000Y-113816000D02*
X177268000Y-106704000D01*
X175544000Y-115540000D02*
X177268000Y-113816000D01*
X175000000Y-115540000D02*
X175544000Y-115540000D01*
%TO.N,Net-(J10-RX)*%
X175000000Y-97903800D02*
X175000000Y-113000000D01*
X186798000Y-86106000D02*
X175000000Y-97903800D01*
X191878000Y-81026000D02*
X186798000Y-86106000D01*
X193548000Y-80088500D02*
X192610000Y-81026000D01*
X193548000Y-63246000D02*
X193548000Y-80088500D01*
X192610000Y-81026000D02*
X191878000Y-81026000D01*
X194818000Y-61976000D02*
X193548000Y-63246000D01*
%TO.N,Net-(J8-TX)*%
X189383000Y-62712300D02*
X161000000Y-91095300D01*
X191389000Y-60706000D02*
X189383000Y-62712300D01*
X192922000Y-60706000D02*
X191389000Y-60706000D01*
X194192000Y-59436000D02*
X192922000Y-60706000D01*
X194818000Y-59436000D02*
X194192000Y-59436000D01*
X161000000Y-91095300D02*
X161000000Y-113000000D01*
%TO.N,Net-(J8-RX)*%
X190651000Y-79756000D02*
X192278000Y-79756000D01*
X164172000Y-106235000D02*
X190651000Y-79756000D01*
X164172000Y-113069000D02*
X164172000Y-106235000D01*
X161671000Y-115570000D02*
X164172000Y-113069000D01*
X161030000Y-115570000D02*
X161671000Y-115570000D01*
X161000000Y-115540000D02*
X161030000Y-115570000D01*
%TO.N,MOTOR_RX*%
X154979000Y-84613000D02*
X154694000Y-84328000D01*
X154979000Y-86771900D02*
X154979000Y-84613000D01*
%TO.N,Net-(J2-DATA)*%
X204028000Y-102108000D02*
X204000000Y-102080000D01*
X204470000Y-102108000D02*
X204028000Y-102108000D01*
X206629000Y-99949000D02*
X204470000Y-102108000D01*
X206629000Y-65885900D02*
X206629000Y-99949000D01*
X204000000Y-63256900D02*
X206629000Y-65885900D01*
X204000000Y-62080000D02*
X204000000Y-63256900D01*
X151000000Y-78497400D02*
X151000000Y-76978000D01*
X150372000Y-79125300D02*
X151000000Y-78497400D01*
X123000000Y-63256900D02*
X123000000Y-62080000D01*
X121285000Y-64971900D02*
X123000000Y-63256900D01*
X121285000Y-100330000D02*
X121285000Y-64971900D01*
X123000000Y-102045000D02*
X121285000Y-100330000D01*
X123000000Y-102080000D02*
X123000000Y-102045000D01*
X202823000Y-62080000D02*
X204000000Y-62080000D01*
X196537000Y-55794100D02*
X202823000Y-62080000D01*
X189285000Y-55794100D02*
X196537000Y-55794100D01*
X188388000Y-56691300D02*
X189285000Y-55794100D01*
X171287000Y-56691300D02*
X188388000Y-56691300D01*
X151000000Y-76978000D02*
X171287000Y-56691300D01*
X124177000Y-62080000D02*
X123000000Y-62080000D01*
X125376000Y-60880800D02*
X124177000Y-62080000D01*
X134903000Y-60880800D02*
X125376000Y-60880800D01*
X151000000Y-76978000D02*
X134903000Y-60880800D01*
%TO.N,Net-(J7-CANH)*%
X124000000Y-85110000D02*
X124000000Y-75540000D01*
%TO.N,Net-(J7-CANL)*%
X124186000Y-87650000D02*
X124000000Y-87650000D01*
X125857000Y-85979000D02*
X124186000Y-87650000D01*
X125857000Y-70959700D02*
X125857000Y-85979000D01*
X131031000Y-65786000D02*
X125857000Y-70959700D01*
X131605000Y-65786000D02*
X131031000Y-65786000D01*
X132522000Y-64869300D02*
X131605000Y-65786000D01*
X132522000Y-64265000D02*
X132522000Y-64869300D01*
X133391000Y-63395800D02*
X132522000Y-64265000D01*
X134289000Y-63395800D02*
X133391000Y-63395800D01*
X136430000Y-65536700D02*
X134289000Y-63395800D01*
X136430000Y-66546700D02*
X136430000Y-65536700D01*
%TO.N,+3.3V*%
X166823000Y-120620000D02*
X168000000Y-120620000D01*
X163364000Y-124079000D02*
X166823000Y-120620000D01*
X140843000Y-124079000D02*
X163364000Y-124079000D01*
X135636000Y-118872000D02*
X140843000Y-124079000D01*
X135636000Y-76454000D02*
X135636000Y-118872000D01*
X133858000Y-74676000D02*
X135636000Y-76454000D01*
%TO.N,GY_INT*%
X189325000Y-92869400D02*
X192278000Y-89916000D01*
X189325000Y-110488000D02*
X189325000Y-92869400D01*
X187960000Y-111853000D02*
X189325000Y-110488000D01*
X187960000Y-113030000D02*
X187960000Y-111853000D01*
%TO.N,GY_SDA*%
X198120000Y-63695800D02*
X198120000Y-113030000D01*
X195307000Y-60882400D02*
X198120000Y-63695800D01*
X193385000Y-60882400D02*
X195307000Y-60882400D01*
X192291000Y-61976000D02*
X193385000Y-60882400D01*
X192278000Y-61976000D02*
X192291000Y-61976000D01*
%TO.N,GY_SCL*%
X200660000Y-63717100D02*
X200660000Y-113030000D01*
X195283000Y-58340400D02*
X200660000Y-63717100D01*
X193374000Y-58340400D02*
X195283000Y-58340400D01*
X192278000Y-59436000D02*
X193374000Y-58340400D01*
%TO.N,+5V*%
X164465000Y-70358000D02*
X165862000Y-68961000D01*
X137181000Y-116991000D02*
X140464000Y-120274000D01*
X137181000Y-65298900D02*
X137181000Y-116991000D01*
X133858000Y-61976000D02*
X137181000Y-65298900D01*
X165989000Y-68834000D02*
X165862000Y-68961000D01*
X165862000Y-68961000D02*
X165626000Y-69196500D01*
%TO.N,GND*%
X202974000Y-97000000D02*
X204000000Y-97000000D01*
X201676000Y-98298000D02*
X202974000Y-97000000D01*
X201676000Y-110329000D02*
X201676000Y-98298000D01*
X203200000Y-111853000D02*
X201676000Y-110329000D01*
X203200000Y-113030000D02*
X203200000Y-111853000D01*
X131318000Y-79756000D02*
X132588000Y-78486000D01*
X132588000Y-65786000D02*
X133858000Y-64516000D01*
X132588000Y-78486000D02*
X132588000Y-65786000D01*
X123035000Y-97000000D02*
X123000000Y-97000000D01*
X125910000Y-99874800D02*
X123035000Y-97000000D01*
X125910000Y-112577000D02*
X125910000Y-99874800D01*
X124128000Y-114359000D02*
X125910000Y-112577000D01*
X123571000Y-114359000D02*
X124128000Y-114359000D01*
X123571000Y-116586000D02*
X123571000Y-114359000D01*
X204000000Y-85919900D02*
X204000000Y-97000000D01*
X205000000Y-84919900D02*
X204000000Y-85919900D01*
X205000000Y-83693000D02*
X205000000Y-84919900D01*
X133858000Y-82296000D02*
X133858000Y-79756000D01*
X205000000Y-83693000D02*
X205000000Y-76454000D01*
X132747000Y-78644700D02*
X132588000Y-78486000D01*
X133858000Y-79756000D02*
X132747000Y-78644700D01*
X127858000Y-83216300D02*
X131318000Y-79756000D01*
X127858000Y-90965400D02*
X127858000Y-83216300D01*
X123000000Y-95823100D02*
X127858000Y-90965400D01*
X123000000Y-97000000D02*
X123000000Y-95823100D01*
X141830000Y-118080000D02*
X140464000Y-116714000D01*
X161000000Y-118080000D02*
X141830000Y-118080000D01*
%TD*%
M02*
