%TF.GenerationSoftware,KiCad,Pcbnew,7.0.8*%
%TF.CreationDate,2023-10-27T03:08:27+09:00*%
%TF.ProjectId,doggedness_schemetic,646f6767-6564-46e6-9573-735f73636865,rev?*%
%TF.SameCoordinates,Original*%
%TF.FileFunction,Legend,Top*%
%TF.FilePolarity,Positive*%
%FSLAX46Y46*%
G04 Gerber Fmt 4.6, Leading zero omitted, Abs format (unit mm)*
G04 Created by KiCad (PCBNEW 7.0.8) date 2023-10-27 03:08:27*
%MOMM*%
%LPD*%
G01*
G04 APERTURE LIST*
G04 Aperture macros list*
%AMRoundRect*
0 Rectangle with rounded corners*
0 $1 Rounding radius*
0 $2 $3 $4 $5 $6 $7 $8 $9 X,Y pos of 4 corners*
0 Add a 4 corners polygon primitive as box body*
4,1,4,$2,$3,$4,$5,$6,$7,$8,$9,$2,$3,0*
0 Add four circle primitives for the rounded corners*
1,1,$1+$1,$2,$3*
1,1,$1+$1,$4,$5*
1,1,$1+$1,$6,$7*
1,1,$1+$1,$8,$9*
0 Add four rect primitives between the rounded corners*
20,1,$1+$1,$2,$3,$4,$5,0*
20,1,$1+$1,$4,$5,$6,$7,0*
20,1,$1+$1,$6,$7,$8,$9,0*
20,1,$1+$1,$8,$9,$2,$3,0*%
G04 Aperture macros list end*
%ADD10C,0.150000*%
%ADD11C,0.200000*%
%ADD12C,0.127000*%
%ADD13C,0.120000*%
%ADD14C,0.152400*%
%ADD15C,1.734000*%
%ADD16RoundRect,0.102000X-0.765000X-0.765000X0.765000X-0.765000X0.765000X0.765000X-0.765000X0.765000X0*%
%ADD17C,3.000000*%
%ADD18R,1.700000X1.700000*%
%ADD19O,1.700000X1.700000*%
%ADD20RoundRect,0.225000X0.250000X-0.225000X0.250000X0.225000X-0.250000X0.225000X-0.250000X-0.225000X0*%
%ADD21RoundRect,0.225000X-0.225000X-0.250000X0.225000X-0.250000X0.225000X0.250000X-0.225000X0.250000X0*%
%ADD22RoundRect,0.200000X-0.275000X0.200000X-0.275000X-0.200000X0.275000X-0.200000X0.275000X0.200000X0*%
%ADD23RoundRect,0.200000X0.275000X-0.200000X0.275000X0.200000X-0.275000X0.200000X-0.275000X-0.200000X0*%
%ADD24RoundRect,0.200000X-0.200000X-0.275000X0.200000X-0.275000X0.200000X0.275000X-0.200000X0.275000X0*%
%ADD25RoundRect,0.200000X0.200000X0.275000X-0.200000X0.275000X-0.200000X-0.275000X0.200000X-0.275000X0*%
%ADD26RoundRect,0.102000X-1.050000X-1.050000X1.050000X-1.050000X1.050000X1.050000X-1.050000X1.050000X0*%
%ADD27C,2.304000*%
%ADD28RoundRect,0.150000X0.825000X0.150000X-0.825000X0.150000X-0.825000X-0.150000X0.825000X-0.150000X0*%
%ADD29R,3.800000X3.800000*%
%ADD30C,4.000000*%
%ADD31C,1.800000*%
%ADD32R,1.800000X1.800000*%
%ADD33R,1.562100X0.355600*%
%ADD34RoundRect,0.225000X-0.250000X0.225000X-0.250000X-0.225000X0.250000X-0.225000X0.250000X0.225000X0*%
%ADD35RoundRect,0.250000X-0.550000X1.500000X-0.550000X-1.500000X0.550000X-1.500000X0.550000X1.500000X0*%
G04 APERTURE END LIST*
D10*
G36*
X198738999Y-124494180D02*
G01*
X198731247Y-124512402D01*
X198726298Y-124516650D01*
X198708798Y-124525647D01*
X198702362Y-124526420D01*
X197294058Y-124526420D01*
X197270131Y-124525986D01*
X197247810Y-124524685D01*
X197227095Y-124522517D01*
X197201972Y-124518277D01*
X197179704Y-124512495D01*
X197160291Y-124505172D01*
X197140038Y-124493849D01*
X197124246Y-124480118D01*
X197121623Y-124477083D01*
X197109942Y-124460136D01*
X197100242Y-124439826D01*
X197093907Y-124421157D01*
X197088839Y-124400335D01*
X197085038Y-124377361D01*
X197082504Y-124352234D01*
X197081435Y-124331977D01*
X197081078Y-124310509D01*
X197081078Y-124131235D01*
X197081508Y-124109840D01*
X197082796Y-124089801D01*
X197085849Y-124065194D01*
X197090428Y-124042998D01*
X197096534Y-124023214D01*
X197106314Y-124001877D01*
X197118478Y-123984307D01*
X197129927Y-123972965D01*
X197147217Y-123961285D01*
X197168252Y-123951585D01*
X197187776Y-123945249D01*
X197209697Y-123940181D01*
X197234014Y-123936380D01*
X197253825Y-123934361D01*
X197274984Y-123933054D01*
X197297491Y-123932461D01*
X197305293Y-123932421D01*
X198425391Y-123932421D01*
X198445170Y-123931532D01*
X198464691Y-123927582D01*
X198475705Y-123921186D01*
X198484131Y-123902379D01*
X198486545Y-123882935D01*
X198486940Y-123868429D01*
X198486940Y-123746308D01*
X198486167Y-123725348D01*
X198482733Y-123704854D01*
X198477170Y-123693551D01*
X198458518Y-123684785D01*
X198437634Y-123682492D01*
X198428322Y-123682316D01*
X197114784Y-123682316D01*
X197095627Y-123678279D01*
X197088406Y-123674501D01*
X197076313Y-123658246D01*
X197075705Y-123652519D01*
X197075705Y-123555799D01*
X197084089Y-123537442D01*
X197088406Y-123534305D01*
X197107167Y-123526658D01*
X197114784Y-123526001D01*
X198458608Y-123526001D01*
X198479054Y-123526239D01*
X198501952Y-123527155D01*
X198523063Y-123528758D01*
X198545436Y-123531496D01*
X198565378Y-123535170D01*
X198568029Y-123535771D01*
X198587965Y-123541205D01*
X198607839Y-123549216D01*
X198625008Y-123559237D01*
X198634951Y-123567034D01*
X198649301Y-123582490D01*
X198659605Y-123599337D01*
X198667436Y-123618966D01*
X198670122Y-123628583D01*
X198674397Y-123649466D01*
X198677135Y-123669541D01*
X198678938Y-123691300D01*
X198679739Y-123711290D01*
X198679892Y-123725303D01*
X198679892Y-123894808D01*
X198679458Y-123915670D01*
X198678158Y-123935211D01*
X198675074Y-123959208D01*
X198670449Y-123980854D01*
X198664281Y-124000149D01*
X198654404Y-124020962D01*
X198642118Y-124038102D01*
X198630555Y-124049169D01*
X198613417Y-124060568D01*
X198592535Y-124070035D01*
X198573133Y-124076217D01*
X198551334Y-124081163D01*
X198527139Y-124084872D01*
X198507420Y-124086843D01*
X198486352Y-124088118D01*
X198463937Y-124088698D01*
X198456166Y-124088736D01*
X197333137Y-124088736D01*
X197313474Y-124089664D01*
X197293257Y-124094278D01*
X197284288Y-124100460D01*
X197276961Y-124120244D01*
X197274862Y-124140794D01*
X197274519Y-124156147D01*
X197274519Y-124302693D01*
X197275407Y-124323572D01*
X197278907Y-124343108D01*
X197285754Y-124356915D01*
X197303950Y-124366807D01*
X197324536Y-124369782D01*
X197336068Y-124370104D01*
X198699431Y-124370104D01*
X198719038Y-124374142D01*
X198726298Y-124377920D01*
X198738391Y-124394175D01*
X198738999Y-124399902D01*
X198738999Y-124494180D01*
G37*
G36*
X198108852Y-123269546D02*
G01*
X198098788Y-123286446D01*
X198087847Y-123294947D01*
X198067201Y-123295176D01*
X198050234Y-123289085D01*
X198024518Y-123277897D01*
X197998846Y-123266314D01*
X197973216Y-123254335D01*
X197947629Y-123241962D01*
X197922085Y-123229193D01*
X197896584Y-123216030D01*
X197871126Y-123202472D01*
X197845711Y-123188518D01*
X197820339Y-123174170D01*
X197795010Y-123159427D01*
X197778147Y-123149378D01*
X197761388Y-123139153D01*
X197744694Y-123128748D01*
X197728064Y-123118163D01*
X197711500Y-123107399D01*
X197695000Y-123096456D01*
X197678565Y-123085333D01*
X197662195Y-123074031D01*
X197645890Y-123062550D01*
X197629650Y-123050889D01*
X197613474Y-123039049D01*
X197597364Y-123027030D01*
X197581318Y-123014831D01*
X197565338Y-123002453D01*
X197549422Y-122989895D01*
X197533571Y-122977159D01*
X197517785Y-122964242D01*
X197497745Y-122979910D01*
X197477439Y-122995406D01*
X197456865Y-123010731D01*
X197436024Y-123025883D01*
X197414916Y-123040864D01*
X197393541Y-123055673D01*
X197371899Y-123070311D01*
X197349990Y-123084776D01*
X197327813Y-123099070D01*
X197305370Y-123113192D01*
X197282659Y-123127143D01*
X197259681Y-123140922D01*
X197236436Y-123154529D01*
X197212924Y-123167964D01*
X197189144Y-123181227D01*
X197165098Y-123194319D01*
X197140845Y-123207153D01*
X197116326Y-123219766D01*
X197091539Y-123232158D01*
X197066485Y-123244328D01*
X197041164Y-123256277D01*
X197015575Y-123268004D01*
X196989720Y-123279510D01*
X196963598Y-123290795D01*
X196937208Y-123301858D01*
X196910551Y-123312701D01*
X196883627Y-123323321D01*
X196856436Y-123333721D01*
X196828978Y-123343899D01*
X196801252Y-123353855D01*
X196773260Y-123363591D01*
X196745000Y-123373105D01*
X196725963Y-123378394D01*
X196717157Y-123378967D01*
X196699941Y-123369615D01*
X196697617Y-123364801D01*
X196652676Y-123261242D01*
X196652018Y-123241130D01*
X196655607Y-123233398D01*
X196669031Y-123218592D01*
X196678078Y-123213859D01*
X196698823Y-123206452D01*
X196719414Y-123198946D01*
X196739852Y-123191343D01*
X196760136Y-123183641D01*
X196780266Y-123175841D01*
X196800243Y-123167943D01*
X196820066Y-123159946D01*
X196839736Y-123151851D01*
X196859252Y-123143658D01*
X196878614Y-123135367D01*
X196897823Y-123126977D01*
X196916878Y-123118489D01*
X196935780Y-123109903D01*
X196954528Y-123101219D01*
X196973123Y-123092436D01*
X196991563Y-123083555D01*
X197009851Y-123074576D01*
X197027984Y-123065498D01*
X197045964Y-123056322D01*
X197063791Y-123047048D01*
X197081463Y-123037676D01*
X197098983Y-123028205D01*
X197116348Y-123018636D01*
X197133560Y-123008969D01*
X197150618Y-122999204D01*
X197167523Y-122989340D01*
X197200872Y-122969318D01*
X197233606Y-122948903D01*
X197265726Y-122928094D01*
X197297271Y-122906870D01*
X197328161Y-122885207D01*
X197358393Y-122863105D01*
X197387969Y-122840564D01*
X197416889Y-122817584D01*
X197445153Y-122794165D01*
X197472760Y-122770308D01*
X197499711Y-122746011D01*
X197526005Y-122721276D01*
X197551643Y-122696102D01*
X197576624Y-122670489D01*
X197600949Y-122644437D01*
X197624618Y-122617946D01*
X197647630Y-122591016D01*
X197669986Y-122563648D01*
X197691685Y-122535840D01*
X197702415Y-122518238D01*
X197706502Y-122498133D01*
X197699990Y-122483084D01*
X197684305Y-122470879D01*
X197664254Y-122464640D01*
X197643814Y-122463056D01*
X196795803Y-122463056D01*
X196776613Y-122459073D01*
X196763710Y-122442484D01*
X196762097Y-122429351D01*
X196762097Y-122338004D01*
X196766837Y-122318953D01*
X196784348Y-122307840D01*
X196795803Y-122306741D01*
X197719529Y-122306741D01*
X197745999Y-122307200D01*
X197770820Y-122308578D01*
X197793993Y-122310875D01*
X197815517Y-122314091D01*
X197835392Y-122318225D01*
X197859328Y-122325167D01*
X197880333Y-122333742D01*
X197898407Y-122343951D01*
X197916877Y-122359009D01*
X197930220Y-122376704D01*
X197937886Y-122397429D01*
X197939875Y-122421183D01*
X197937379Y-122442367D01*
X197931250Y-122465490D01*
X197924270Y-122484105D01*
X197915245Y-122503810D01*
X197904177Y-122524605D01*
X197892089Y-122545557D01*
X197879516Y-122566401D01*
X197866458Y-122587139D01*
X197852916Y-122607770D01*
X197838889Y-122628294D01*
X197824378Y-122648711D01*
X197809382Y-122669021D01*
X197793901Y-122689225D01*
X197777936Y-122709322D01*
X197761485Y-122729311D01*
X197744551Y-122749194D01*
X197727131Y-122768970D01*
X197709227Y-122788639D01*
X197690838Y-122808202D01*
X197671965Y-122827657D01*
X197652607Y-122847006D01*
X197674191Y-122864132D01*
X197695895Y-122880889D01*
X197717719Y-122897276D01*
X197739664Y-122913295D01*
X197761729Y-122928944D01*
X197783914Y-122944224D01*
X197806219Y-122959135D01*
X197828645Y-122973676D01*
X197851190Y-122987849D01*
X197873856Y-123001652D01*
X197889034Y-123010648D01*
X197911831Y-123023789D01*
X197934612Y-123036466D01*
X197957375Y-123048679D01*
X197980121Y-123060428D01*
X198002850Y-123071714D01*
X198025562Y-123082536D01*
X198048256Y-123092894D01*
X198070934Y-123102789D01*
X198093594Y-123112220D01*
X198116237Y-123121187D01*
X198131323Y-123126908D01*
X198148899Y-123139020D01*
X198158418Y-123156866D01*
X198154777Y-123178060D01*
X198153793Y-123180153D01*
X198108852Y-123269546D01*
G37*
G36*
X198640813Y-123356496D02*
G01*
X198526019Y-123356496D01*
X198505411Y-123352680D01*
X198490756Y-123338025D01*
X198486940Y-123317418D01*
X198486940Y-121970662D01*
X198490756Y-121950054D01*
X198505411Y-121935400D01*
X198526019Y-121931584D01*
X198640813Y-121931584D01*
X198661421Y-121935400D01*
X198676076Y-121950054D01*
X198679892Y-121970662D01*
X198679892Y-123317418D01*
X198676076Y-123338025D01*
X198661421Y-123352680D01*
X198640813Y-123356496D01*
G37*
G36*
X197708294Y-121998506D02*
G01*
X197708294Y-122080572D01*
X197704191Y-122100922D01*
X197690202Y-122114602D01*
X197668869Y-122119124D01*
X197666284Y-122119162D01*
X197033695Y-122119162D01*
X197013388Y-122115530D01*
X196997593Y-122101226D01*
X196992055Y-122081450D01*
X196991685Y-122073244D01*
X196991685Y-121974570D01*
X196995009Y-121953791D01*
X197008096Y-121937629D01*
X197028608Y-121931752D01*
X197033695Y-121931584D01*
X197666284Y-121962847D01*
X197686592Y-121965667D01*
X197703330Y-121978204D01*
X197708294Y-121998506D01*
G37*
G36*
X200673402Y-122337027D02*
G01*
X200665779Y-122359126D01*
X200657563Y-122381277D01*
X200648754Y-122403479D01*
X200639353Y-122425733D01*
X200629360Y-122448038D01*
X200618774Y-122470395D01*
X200607595Y-122492803D01*
X200595825Y-122515263D01*
X200583461Y-122537774D01*
X200570505Y-122560337D01*
X200561539Y-122575408D01*
X200547669Y-122597918D01*
X200533352Y-122620385D01*
X200518588Y-122642809D01*
X200503379Y-122665190D01*
X200487722Y-122687528D01*
X200471619Y-122709823D01*
X200455070Y-122732076D01*
X200438074Y-122754285D01*
X200420632Y-122776452D01*
X200402743Y-122798575D01*
X200390569Y-122813300D01*
X200404748Y-122829666D01*
X200419199Y-122845914D01*
X200433920Y-122862044D01*
X200448912Y-122878055D01*
X200464176Y-122893948D01*
X200479710Y-122909723D01*
X200495515Y-122925379D01*
X200511591Y-122940917D01*
X200527938Y-122956337D01*
X200544556Y-122971638D01*
X200561445Y-122986821D01*
X200578605Y-123001886D01*
X200596036Y-123016833D01*
X200613738Y-123031661D01*
X200631711Y-123046371D01*
X200649955Y-123060963D01*
X200668317Y-123075335D01*
X200686645Y-123089386D01*
X200704938Y-123103117D01*
X200723197Y-123116528D01*
X200741422Y-123129618D01*
X200759612Y-123142387D01*
X200777768Y-123154836D01*
X200795890Y-123166964D01*
X200813977Y-123178772D01*
X200832030Y-123190259D01*
X200850049Y-123201425D01*
X200868033Y-123212271D01*
X200885983Y-123222796D01*
X200903899Y-123233001D01*
X200921780Y-123242885D01*
X200939627Y-123252449D01*
X200956781Y-123264995D01*
X200963009Y-123284962D01*
X200956235Y-123305694D01*
X200891755Y-123400949D01*
X200876412Y-123414424D01*
X200866842Y-123416580D01*
X200847036Y-123414405D01*
X200836068Y-123409253D01*
X200818221Y-123399308D01*
X200800340Y-123389011D01*
X200782424Y-123378364D01*
X200764474Y-123367365D01*
X200746490Y-123356016D01*
X200728471Y-123344315D01*
X200710418Y-123332263D01*
X200692331Y-123319860D01*
X200674209Y-123307106D01*
X200656053Y-123294001D01*
X200637863Y-123280544D01*
X200619638Y-123266737D01*
X200601379Y-123252579D01*
X200583086Y-123238069D01*
X200564758Y-123223208D01*
X200546396Y-123207997D01*
X200528099Y-123192554D01*
X200509966Y-123177001D01*
X200491997Y-123161337D01*
X200474192Y-123145562D01*
X200456551Y-123129677D01*
X200439074Y-123113681D01*
X200421761Y-123097574D01*
X200404613Y-123081357D01*
X200387628Y-123065029D01*
X200370808Y-123048590D01*
X200354152Y-123032041D01*
X200337660Y-123015381D01*
X200321332Y-122998610D01*
X200305168Y-122981729D01*
X200289168Y-122964737D01*
X200273332Y-122947634D01*
X200253245Y-122968530D01*
X200232918Y-122989209D01*
X200212350Y-123009670D01*
X200191542Y-123029913D01*
X200170493Y-123049939D01*
X200149204Y-123069748D01*
X200127674Y-123089339D01*
X200105904Y-123108712D01*
X200083893Y-123127868D01*
X200061643Y-123146806D01*
X200039151Y-123165527D01*
X200016419Y-123184030D01*
X199993447Y-123202316D01*
X199970235Y-123220384D01*
X199946782Y-123238235D01*
X199923088Y-123255868D01*
X199899265Y-123273135D01*
X199875423Y-123290009D01*
X199851561Y-123306490D01*
X199827681Y-123322577D01*
X199803781Y-123338272D01*
X199779863Y-123353573D01*
X199755925Y-123368481D01*
X199731968Y-123382997D01*
X199707992Y-123397119D01*
X199683997Y-123410848D01*
X199659983Y-123424184D01*
X199635950Y-123437127D01*
X199611898Y-123449677D01*
X199587827Y-123461834D01*
X199563736Y-123473597D01*
X199539627Y-123484968D01*
X199521034Y-123492031D01*
X199511295Y-123495226D01*
X199492039Y-123488954D01*
X199489313Y-123484968D01*
X199433137Y-123387271D01*
X199428128Y-123368257D01*
X199430206Y-123357962D01*
X199441476Y-123341653D01*
X199450234Y-123336468D01*
X199470806Y-123325917D01*
X199491244Y-123315206D01*
X199511548Y-123304336D01*
X199531719Y-123293306D01*
X199551757Y-123282117D01*
X199571661Y-123270769D01*
X199591431Y-123259261D01*
X199611068Y-123247595D01*
X199630571Y-123235768D01*
X199649941Y-123223783D01*
X199669177Y-123211638D01*
X199688279Y-123199334D01*
X199707248Y-123186870D01*
X199726083Y-123174247D01*
X199744785Y-123161465D01*
X199763353Y-123148524D01*
X199781788Y-123135423D01*
X199800089Y-123122163D01*
X199818256Y-123108743D01*
X199836290Y-123095164D01*
X199854191Y-123081426D01*
X199871957Y-123067528D01*
X199889591Y-123053472D01*
X199907090Y-123039255D01*
X199924456Y-123024880D01*
X199941689Y-123010345D01*
X199958788Y-122995651D01*
X199975753Y-122980797D01*
X199992585Y-122965785D01*
X200009283Y-122950612D01*
X200025848Y-122935281D01*
X200042279Y-122919790D01*
X200058540Y-122904119D01*
X200074597Y-122888306D01*
X200090448Y-122872352D01*
X200106095Y-122856256D01*
X200121536Y-122840020D01*
X200136772Y-122823642D01*
X200151803Y-122807124D01*
X200166629Y-122790464D01*
X200181249Y-122773662D01*
X200195665Y-122756720D01*
X200209876Y-122739636D01*
X200223881Y-122722411D01*
X200237681Y-122705045D01*
X200251276Y-122687538D01*
X200264666Y-122669890D01*
X200277851Y-122652100D01*
X200290831Y-122634169D01*
X200303605Y-122616097D01*
X200316175Y-122597884D01*
X200328539Y-122579529D01*
X200340698Y-122561034D01*
X200352652Y-122542397D01*
X200364401Y-122523619D01*
X200375945Y-122504699D01*
X200387284Y-122485639D01*
X200398417Y-122466437D01*
X200409346Y-122447094D01*
X200420069Y-122427610D01*
X200430587Y-122407985D01*
X200440900Y-122388218D01*
X200451008Y-122368311D01*
X200460911Y-122348262D01*
X200468574Y-122330127D01*
X200472231Y-122309777D01*
X200466284Y-122292575D01*
X200449361Y-122280887D01*
X200429111Y-122276296D01*
X200413039Y-122275478D01*
X199592872Y-122275478D01*
X199573682Y-122271495D01*
X199560779Y-122254905D01*
X199559166Y-122241772D01*
X199559166Y-122150425D01*
X199563906Y-122131374D01*
X199581417Y-122120261D01*
X199592872Y-122119162D01*
X200488755Y-122119162D01*
X200515139Y-122119587D01*
X200539702Y-122120862D01*
X200562445Y-122122987D01*
X200583368Y-122125963D01*
X200608434Y-122131252D01*
X200630263Y-122138053D01*
X200648856Y-122146365D01*
X200667546Y-122158880D01*
X200676333Y-122167522D01*
X200687338Y-122184283D01*
X200694098Y-122204645D01*
X200696612Y-122228609D01*
X200695566Y-122250373D01*
X200691803Y-122274443D01*
X200687198Y-122294008D01*
X200681064Y-122314869D01*
X200673402Y-122337027D01*
G37*
G36*
X201286940Y-122681898D02*
G01*
X201286940Y-121971151D01*
X201290756Y-121950285D01*
X201305411Y-121935448D01*
X201326019Y-121931584D01*
X201440813Y-121931584D01*
X201461421Y-121935400D01*
X201476076Y-121950054D01*
X201479892Y-121970662D01*
X201479892Y-123776594D01*
X201476076Y-123797202D01*
X201461421Y-123811857D01*
X201440813Y-123815673D01*
X201326019Y-123815673D01*
X201305411Y-123811857D01*
X201290756Y-123797202D01*
X201286940Y-123776594D01*
X201286940Y-122838213D01*
X200757422Y-122838213D01*
X200736841Y-122834403D01*
X200723533Y-122820078D01*
X200721274Y-122805973D01*
X200721274Y-122714138D01*
X200726357Y-122694491D01*
X200743337Y-122683440D01*
X200757422Y-122681898D01*
X201286940Y-122681898D01*
G37*
G36*
X201524833Y-124463893D02*
G01*
X200108224Y-124463893D01*
X200084297Y-124463490D01*
X200061976Y-124462279D01*
X200041261Y-124460261D01*
X200016138Y-124456315D01*
X199993870Y-124450934D01*
X199974457Y-124444118D01*
X199954204Y-124433581D01*
X199938412Y-124420801D01*
X199935789Y-124417976D01*
X199924109Y-124402217D01*
X199914408Y-124383333D01*
X199906687Y-124361325D01*
X199901936Y-124341469D01*
X199898452Y-124319613D01*
X199896234Y-124295758D01*
X199895284Y-124269902D01*
X199895244Y-124263126D01*
X199895244Y-123731165D01*
X199899061Y-123710299D01*
X199913715Y-123695462D01*
X199934323Y-123691598D01*
X200049117Y-123691598D01*
X200069725Y-123695462D01*
X200084380Y-123710299D01*
X200088196Y-123731165D01*
X200088196Y-124248960D01*
X200089201Y-124268623D01*
X200094199Y-124288840D01*
X200100897Y-124297808D01*
X200120192Y-124305136D01*
X200141108Y-124307339D01*
X200152676Y-124307578D01*
X201524833Y-124307578D01*
X201544080Y-124311734D01*
X201552676Y-124316371D01*
X201565722Y-124331731D01*
X201566842Y-124338841D01*
X201566842Y-124432630D01*
X201559524Y-124451063D01*
X201552676Y-124456078D01*
X201533639Y-124463130D01*
X201524833Y-124463893D01*
G37*
G36*
X203981357Y-123463713D02*
G01*
X204004254Y-123464629D01*
X204025366Y-123466232D01*
X204047739Y-123468970D01*
X204067681Y-123472643D01*
X204070332Y-123473244D01*
X204090268Y-123478679D01*
X204110142Y-123486690D01*
X204127311Y-123496711D01*
X204137254Y-123504508D01*
X204151603Y-123519706D01*
X204161907Y-123536403D01*
X204169739Y-123555959D01*
X204172425Y-123565568D01*
X204176699Y-123586207D01*
X204179438Y-123606069D01*
X204181241Y-123627614D01*
X204182042Y-123647420D01*
X204182195Y-123661311D01*
X204182195Y-123865010D01*
X204181761Y-123885698D01*
X204179834Y-123911252D01*
X204176365Y-123934486D01*
X204171354Y-123955399D01*
X204164802Y-123973992D01*
X204154443Y-123993970D01*
X204141675Y-124010323D01*
X204132858Y-124018394D01*
X204115708Y-124029653D01*
X204094790Y-124039002D01*
X204075342Y-124045109D01*
X204053483Y-124049993D01*
X204029211Y-124053657D01*
X204009425Y-124055603D01*
X203988281Y-124056863D01*
X203965781Y-124057435D01*
X203957980Y-124057473D01*
X202834951Y-124057473D01*
X202815288Y-124058401D01*
X202795071Y-124063015D01*
X202786103Y-124069197D01*
X202778775Y-124088981D01*
X202776677Y-124109531D01*
X202776333Y-124124884D01*
X202776333Y-124302693D01*
X202777222Y-124323572D01*
X202780722Y-124343108D01*
X202787568Y-124356915D01*
X202805764Y-124366807D01*
X202826350Y-124369782D01*
X202837882Y-124370104D01*
X204201734Y-124370104D01*
X204220891Y-124374142D01*
X204228113Y-124377920D01*
X204240205Y-124394175D01*
X204240813Y-124399902D01*
X204240813Y-124494180D01*
X204233061Y-124512402D01*
X204228113Y-124516650D01*
X204210612Y-124525647D01*
X204204177Y-124526420D01*
X202795872Y-124526420D01*
X202772033Y-124525986D01*
X202749791Y-124524685D01*
X202729146Y-124522517D01*
X202704103Y-124518277D01*
X202681900Y-124512495D01*
X202662536Y-124505172D01*
X202642324Y-124493849D01*
X202626548Y-124480118D01*
X202623926Y-124477083D01*
X202612245Y-124460136D01*
X202602545Y-124439826D01*
X202596210Y-124421157D01*
X202591142Y-124400335D01*
X202587341Y-124377361D01*
X202584807Y-124352234D01*
X202583738Y-124331977D01*
X202583381Y-124310509D01*
X202583381Y-124100460D01*
X202583811Y-124078978D01*
X202585099Y-124058861D01*
X202588152Y-124034161D01*
X202592731Y-124011890D01*
X202598837Y-123992045D01*
X202608616Y-123970652D01*
X202620781Y-123953052D01*
X202632230Y-123941702D01*
X202649508Y-123930022D01*
X202670507Y-123920321D01*
X202689986Y-123913986D01*
X202711845Y-123908918D01*
X202736086Y-123905117D01*
X202755830Y-123903098D01*
X202776913Y-123901791D01*
X202799336Y-123901198D01*
X202807108Y-123901158D01*
X203927205Y-123901158D01*
X203946985Y-123900308D01*
X203966505Y-123896530D01*
X203977519Y-123890411D01*
X203985946Y-123871727D01*
X203988480Y-123850239D01*
X203988755Y-123838143D01*
X203988755Y-123682805D01*
X203987982Y-123662120D01*
X203984547Y-123641992D01*
X203978985Y-123631025D01*
X203960333Y-123622259D01*
X203939448Y-123619966D01*
X203930136Y-123619790D01*
X202616598Y-123619790D01*
X202597441Y-123615753D01*
X202590220Y-123611974D01*
X202578127Y-123595719D01*
X202577519Y-123589993D01*
X202577519Y-123493272D01*
X202585904Y-123474916D01*
X202590220Y-123471779D01*
X202608982Y-123464132D01*
X202616598Y-123463475D01*
X203960911Y-123463475D01*
X203981357Y-123463713D01*
G37*
G36*
X204163724Y-121935400D02*
G01*
X204178379Y-121950054D01*
X204182195Y-121970662D01*
X204182195Y-122525582D01*
X204568587Y-122525582D01*
X204587821Y-122529208D01*
X204597896Y-122534863D01*
X204609592Y-122551036D01*
X204610597Y-122559288D01*
X204610597Y-122648192D01*
X204602845Y-122666844D01*
X204597896Y-122671639D01*
X204579544Y-122680685D01*
X204568587Y-122681898D01*
X204182195Y-122681898D01*
X204182195Y-123239260D01*
X204178379Y-123259868D01*
X204163724Y-123274522D01*
X204143116Y-123278339D01*
X204027833Y-123278339D01*
X204007225Y-123274522D01*
X203992571Y-123259868D01*
X203988755Y-123239260D01*
X203988755Y-121970174D01*
X203992571Y-121949824D01*
X204007225Y-121935352D01*
X204027833Y-121931584D01*
X204143116Y-121931584D01*
X204163724Y-121935400D01*
G37*
G36*
X203633905Y-122028116D02*
G01*
X203650643Y-122040309D01*
X203655607Y-122060055D01*
X203655607Y-122147006D01*
X203650643Y-122166752D01*
X203633905Y-122178945D01*
X203613598Y-122181688D01*
X203389383Y-122181688D01*
X203389383Y-122984270D01*
X203413792Y-122982011D01*
X203437926Y-122979630D01*
X203461785Y-122977126D01*
X203485370Y-122974501D01*
X203508680Y-122971753D01*
X203531715Y-122968883D01*
X203554476Y-122965891D01*
X203576961Y-122962777D01*
X203599294Y-122959571D01*
X203621352Y-122956304D01*
X203643136Y-122952977D01*
X203664644Y-122949588D01*
X203685878Y-122946138D01*
X203706837Y-122942627D01*
X203727522Y-122939055D01*
X203747931Y-122935422D01*
X203767988Y-122932531D01*
X203781637Y-122934445D01*
X203793121Y-122950390D01*
X203795803Y-122958381D01*
X203812411Y-123053147D01*
X203812285Y-123072730D01*
X203809480Y-123079036D01*
X203792540Y-123088884D01*
X203775775Y-123093203D01*
X203755945Y-123096729D01*
X203735536Y-123100225D01*
X203714546Y-123103690D01*
X203692976Y-123107124D01*
X203670827Y-123110529D01*
X203648097Y-123113902D01*
X203624787Y-123117245D01*
X203600897Y-123120558D01*
X203576610Y-123123741D01*
X203552109Y-123126939D01*
X203527395Y-123130152D01*
X203502467Y-123133381D01*
X203477325Y-123136624D01*
X203451970Y-123139883D01*
X203426401Y-123143158D01*
X203400618Y-123146448D01*
X203381162Y-123148795D01*
X203361629Y-123151073D01*
X203342018Y-123153282D01*
X203322330Y-123155423D01*
X203302565Y-123157496D01*
X203282723Y-123159499D01*
X203262803Y-123161434D01*
X203242806Y-123163300D01*
X203222732Y-123165098D01*
X203202581Y-123166827D01*
X203189103Y-123167941D01*
X203169014Y-123169476D01*
X203149044Y-123170969D01*
X203129194Y-123172419D01*
X203109465Y-123173826D01*
X203089856Y-123175189D01*
X203063898Y-123176941D01*
X203038153Y-123178616D01*
X203012622Y-123180216D01*
X202987305Y-123181738D01*
X202981009Y-123182107D01*
X202960981Y-123182107D01*
X202940220Y-123182107D01*
X202918727Y-123182107D01*
X202896501Y-123182107D01*
X202873542Y-123182107D01*
X202849850Y-123182107D01*
X202825426Y-123182107D01*
X202800269Y-123182107D01*
X202774631Y-123182130D01*
X202748764Y-123182199D01*
X202729214Y-123182280D01*
X202709535Y-123182387D01*
X202689727Y-123182521D01*
X202669790Y-123182679D01*
X202649724Y-123182864D01*
X202629530Y-123183074D01*
X202609207Y-123183311D01*
X202588755Y-123183572D01*
X202568364Y-123183834D01*
X202548042Y-123184070D01*
X202527789Y-123184281D01*
X202507605Y-123184465D01*
X202487489Y-123184624D01*
X202467442Y-123184757D01*
X202447464Y-123184865D01*
X202427554Y-123184946D01*
X202407713Y-123185002D01*
X202387941Y-123185032D01*
X202374798Y-123185038D01*
X202348908Y-123184992D01*
X202323751Y-123184855D01*
X202299327Y-123184626D01*
X202275635Y-123184305D01*
X202252676Y-123183893D01*
X202230450Y-123183389D01*
X202208957Y-123182794D01*
X202188196Y-123182107D01*
X202168962Y-123177909D01*
X202158887Y-123171360D01*
X202147427Y-123155198D01*
X202146187Y-123146936D01*
X202146187Y-123060963D01*
X202152190Y-123042030D01*
X202158887Y-123035561D01*
X202177240Y-123026946D01*
X202188196Y-123025792D01*
X202208788Y-123025827D01*
X202230261Y-123025935D01*
X202252618Y-123026114D01*
X202275857Y-123026364D01*
X202299978Y-123026686D01*
X202319910Y-123026995D01*
X202335230Y-123027257D01*
X202356029Y-123027555D01*
X202377149Y-123027715D01*
X202398589Y-123027738D01*
X202420349Y-123027623D01*
X202442430Y-123027371D01*
X202464832Y-123026982D01*
X202487554Y-123026456D01*
X202510597Y-123025792D01*
X202510597Y-122181688D01*
X202700618Y-122181688D01*
X202700618Y-123025792D01*
X202723327Y-123025792D01*
X202745965Y-123025792D01*
X202768531Y-123025792D01*
X202791026Y-123025792D01*
X202813449Y-123025792D01*
X202835800Y-123025792D01*
X202844721Y-123025792D01*
X202866839Y-123025792D01*
X202888313Y-123025792D01*
X202909142Y-123025792D01*
X202929328Y-123025792D01*
X202948870Y-123025792D01*
X202971470Y-123025792D01*
X202975147Y-123025792D01*
X203087498Y-123019930D01*
X203108398Y-123018728D01*
X203129333Y-123017319D01*
X203150301Y-123015705D01*
X203171304Y-123013885D01*
X203192342Y-123011858D01*
X203199362Y-123011137D01*
X203199362Y-122181688D01*
X202700618Y-122181688D01*
X202510597Y-122181688D01*
X202208224Y-122181688D01*
X202188618Y-122176389D01*
X202181357Y-122171430D01*
X202170158Y-122155011D01*
X202168657Y-122144563D01*
X202168657Y-122062498D01*
X202174660Y-122043103D01*
X202181357Y-122036120D01*
X202198658Y-122026643D01*
X202208224Y-122025373D01*
X203613598Y-122025373D01*
X203633905Y-122028116D01*
G37*
G36*
X207040813Y-124526420D02*
G01*
X206926019Y-124526420D01*
X206905411Y-124522556D01*
X206890756Y-124507718D01*
X206886940Y-124486852D01*
X206886940Y-121971151D01*
X206890756Y-121950285D01*
X206905411Y-121935448D01*
X206926019Y-121931584D01*
X207040813Y-121931584D01*
X207061421Y-121935448D01*
X207076076Y-121950285D01*
X207079892Y-121971151D01*
X207079892Y-124486852D01*
X207076076Y-124507718D01*
X207061421Y-124522556D01*
X207040813Y-124526420D01*
G37*
G36*
X206329578Y-122340446D02*
G01*
X206327546Y-122370517D01*
X206324991Y-122400522D01*
X206321913Y-122430463D01*
X206318312Y-122460339D01*
X206314189Y-122490150D01*
X206309542Y-122519896D01*
X206304373Y-122549577D01*
X206298681Y-122579193D01*
X206292466Y-122608745D01*
X206285729Y-122638232D01*
X206278468Y-122667653D01*
X206270685Y-122697010D01*
X206262379Y-122726302D01*
X206253550Y-122755529D01*
X206244198Y-122784691D01*
X206234323Y-122813789D01*
X206223941Y-122842772D01*
X206213067Y-122871590D01*
X206201700Y-122900245D01*
X206189841Y-122928736D01*
X206177489Y-122957062D01*
X206164645Y-122985224D01*
X206151309Y-123013223D01*
X206137481Y-123041057D01*
X206123160Y-123068727D01*
X206108347Y-123096233D01*
X206093042Y-123123575D01*
X206077245Y-123150752D01*
X206060955Y-123177766D01*
X206044173Y-123204615D01*
X206026898Y-123231301D01*
X206009131Y-123257822D01*
X205990888Y-123284082D01*
X205972182Y-123310105D01*
X205953015Y-123335892D01*
X205933386Y-123361442D01*
X205913295Y-123386756D01*
X205892742Y-123411833D01*
X205871728Y-123436673D01*
X205850251Y-123461277D01*
X205828313Y-123485644D01*
X205805914Y-123509774D01*
X205783052Y-123533668D01*
X205759729Y-123557325D01*
X205735944Y-123580746D01*
X205711697Y-123603930D01*
X205686988Y-123626877D01*
X205661818Y-123649588D01*
X205636205Y-123672009D01*
X205610168Y-123694086D01*
X205583708Y-123715820D01*
X205556824Y-123737210D01*
X205529517Y-123758257D01*
X205501786Y-123778960D01*
X205473631Y-123799320D01*
X205445053Y-123819337D01*
X205416051Y-123839010D01*
X205386625Y-123858339D01*
X205356776Y-123877325D01*
X205326503Y-123895968D01*
X205295807Y-123914267D01*
X205264687Y-123932223D01*
X205233143Y-123949835D01*
X205201176Y-123967103D01*
X205182350Y-123974544D01*
X205161936Y-123972563D01*
X205147931Y-123958799D01*
X205086382Y-123861102D01*
X205079083Y-123841944D01*
X205084286Y-123822745D01*
X205097617Y-123813230D01*
X205127140Y-123797706D01*
X205156235Y-123781906D01*
X205184903Y-123765832D01*
X205213144Y-123749483D01*
X205240957Y-123732859D01*
X205268343Y-123715961D01*
X205295301Y-123698787D01*
X205321832Y-123681339D01*
X205347935Y-123663616D01*
X205373612Y-123645619D01*
X205398860Y-123627346D01*
X205423681Y-123608799D01*
X205448075Y-123589977D01*
X205472041Y-123570881D01*
X205495580Y-123551509D01*
X205518692Y-123531863D01*
X205541441Y-123511976D01*
X205563770Y-123491883D01*
X205585679Y-123471584D01*
X205607169Y-123451079D01*
X205628238Y-123430368D01*
X205648888Y-123409451D01*
X205669119Y-123388328D01*
X205688929Y-123366999D01*
X205708320Y-123345463D01*
X205727290Y-123323722D01*
X205745841Y-123301775D01*
X205763973Y-123279621D01*
X205781684Y-123257261D01*
X205798976Y-123234696D01*
X205815848Y-123211924D01*
X205832300Y-123188946D01*
X205848389Y-123165788D01*
X205864051Y-123142479D01*
X205879286Y-123119016D01*
X205894093Y-123095401D01*
X205908473Y-123071633D01*
X205922425Y-123047712D01*
X205935950Y-123023639D01*
X205949048Y-122999413D01*
X205961718Y-122975035D01*
X205973960Y-122950504D01*
X205985776Y-122925820D01*
X205997163Y-122900983D01*
X206008124Y-122875994D01*
X206018657Y-122850853D01*
X206028762Y-122825558D01*
X206038441Y-122800111D01*
X206047686Y-122774483D01*
X206056492Y-122748767D01*
X206064859Y-122722963D01*
X206072787Y-122697071D01*
X206080277Y-122671092D01*
X206087327Y-122645025D01*
X206093939Y-122618870D01*
X206100112Y-122592627D01*
X206105846Y-122566296D01*
X206111141Y-122539878D01*
X206115997Y-122513372D01*
X206120415Y-122486778D01*
X206124393Y-122460096D01*
X206127933Y-122433327D01*
X206131033Y-122406470D01*
X206133695Y-122379525D01*
X206134940Y-122358020D01*
X206131634Y-122337508D01*
X206121972Y-122322372D01*
X206104769Y-122312251D01*
X206084419Y-122307718D01*
X206066284Y-122306741D01*
X205175775Y-122306741D01*
X205155533Y-122302001D01*
X205143726Y-122284490D01*
X205142558Y-122273035D01*
X205142558Y-122181688D01*
X205147229Y-122162637D01*
X205164486Y-122151524D01*
X205175775Y-122150425D01*
X206119529Y-122150425D01*
X206143469Y-122150829D01*
X206165828Y-122152039D01*
X206186608Y-122154057D01*
X206211857Y-122158003D01*
X206234297Y-122163384D01*
X206253928Y-122170200D01*
X206274517Y-122180738D01*
X206290717Y-122193518D01*
X206293430Y-122196343D01*
X206305389Y-122211839D01*
X206315011Y-122229936D01*
X206322296Y-122250632D01*
X206327242Y-122273928D01*
X206329517Y-122294437D01*
X206330295Y-122316610D01*
X206329578Y-122340446D01*
G37*
X123463207Y-90833580D02*
X123415588Y-90881200D01*
X123415588Y-90881200D02*
X123272731Y-90928819D01*
X123272731Y-90928819D02*
X123177493Y-90928819D01*
X123177493Y-90928819D02*
X123034636Y-90881200D01*
X123034636Y-90881200D02*
X122939398Y-90785961D01*
X122939398Y-90785961D02*
X122891779Y-90690723D01*
X122891779Y-90690723D02*
X122844160Y-90500247D01*
X122844160Y-90500247D02*
X122844160Y-90357390D01*
X122844160Y-90357390D02*
X122891779Y-90166914D01*
X122891779Y-90166914D02*
X122939398Y-90071676D01*
X122939398Y-90071676D02*
X123034636Y-89976438D01*
X123034636Y-89976438D02*
X123177493Y-89928819D01*
X123177493Y-89928819D02*
X123272731Y-89928819D01*
X123272731Y-89928819D02*
X123415588Y-89976438D01*
X123415588Y-89976438D02*
X123463207Y-90024057D01*
X123844160Y-90643104D02*
X124320350Y-90643104D01*
X123748922Y-90928819D02*
X124082255Y-89928819D01*
X124082255Y-89928819D02*
X124415588Y-90928819D01*
X124748922Y-90928819D02*
X124748922Y-89928819D01*
X124748922Y-89928819D02*
X125320350Y-90928819D01*
X125320350Y-90928819D02*
X125320350Y-89928819D01*
X126447779Y-85041819D02*
X126447779Y-84041819D01*
X126447779Y-84518009D02*
X127019207Y-84518009D01*
X127019207Y-85041819D02*
X127019207Y-84041819D01*
X126923969Y-88261819D02*
X126447779Y-88261819D01*
X126447779Y-88261819D02*
X126447779Y-87261819D01*
X200488779Y-95918866D02*
X201250684Y-95918866D01*
X200488779Y-99138866D02*
X201250684Y-99138866D01*
X200869731Y-99519819D02*
X200869731Y-98757914D01*
X200488779Y-102739819D02*
X200488779Y-101739819D01*
X200488779Y-101739819D02*
X200726874Y-101739819D01*
X200726874Y-101739819D02*
X200869731Y-101787438D01*
X200869731Y-101787438D02*
X200964969Y-101882676D01*
X200964969Y-101882676D02*
X201012588Y-101977914D01*
X201012588Y-101977914D02*
X201060207Y-102168390D01*
X201060207Y-102168390D02*
X201060207Y-102311247D01*
X201060207Y-102311247D02*
X201012588Y-102501723D01*
X201012588Y-102501723D02*
X200964969Y-102596961D01*
X200964969Y-102596961D02*
X200869731Y-102692200D01*
X200869731Y-102692200D02*
X200726874Y-102739819D01*
X200726874Y-102739819D02*
X200488779Y-102739819D01*
X200615779Y-56040866D02*
X201377684Y-56040866D01*
X200615779Y-59260866D02*
X201377684Y-59260866D01*
X200996731Y-59641819D02*
X200996731Y-58879914D01*
X200615779Y-62861819D02*
X200615779Y-61861819D01*
X200615779Y-61861819D02*
X200853874Y-61861819D01*
X200853874Y-61861819D02*
X200996731Y-61909438D01*
X200996731Y-61909438D02*
X201091969Y-62004676D01*
X201091969Y-62004676D02*
X201139588Y-62099914D01*
X201139588Y-62099914D02*
X201187207Y-62290390D01*
X201187207Y-62290390D02*
X201187207Y-62433247D01*
X201187207Y-62433247D02*
X201139588Y-62623723D01*
X201139588Y-62623723D02*
X201091969Y-62718961D01*
X201091969Y-62718961D02*
X200996731Y-62814200D01*
X200996731Y-62814200D02*
X200853874Y-62861819D01*
X200853874Y-62861819D02*
X200615779Y-62861819D01*
X125558779Y-56167866D02*
X126320684Y-56167866D01*
X125558779Y-59387866D02*
X126320684Y-59387866D01*
X125939731Y-59768819D02*
X125939731Y-59006914D01*
X125558779Y-62988819D02*
X125558779Y-61988819D01*
X125558779Y-61988819D02*
X125796874Y-61988819D01*
X125796874Y-61988819D02*
X125939731Y-62036438D01*
X125939731Y-62036438D02*
X126034969Y-62131676D01*
X126034969Y-62131676D02*
X126082588Y-62226914D01*
X126082588Y-62226914D02*
X126130207Y-62417390D01*
X126130207Y-62417390D02*
X126130207Y-62560247D01*
X126130207Y-62560247D02*
X126082588Y-62750723D01*
X126082588Y-62750723D02*
X126034969Y-62845961D01*
X126034969Y-62845961D02*
X125939731Y-62941200D01*
X125939731Y-62941200D02*
X125796874Y-62988819D01*
X125796874Y-62988819D02*
X125558779Y-62988819D01*
X125685779Y-96045866D02*
X126447684Y-96045866D01*
X125685779Y-99265866D02*
X126447684Y-99265866D01*
X126066731Y-99646819D02*
X126066731Y-98884914D01*
X125685779Y-102866819D02*
X125685779Y-101866819D01*
X125685779Y-101866819D02*
X125923874Y-101866819D01*
X125923874Y-101866819D02*
X126066731Y-101914438D01*
X126066731Y-101914438D02*
X126161969Y-102009676D01*
X126161969Y-102009676D02*
X126209588Y-102104914D01*
X126209588Y-102104914D02*
X126257207Y-102295390D01*
X126257207Y-102295390D02*
X126257207Y-102438247D01*
X126257207Y-102438247D02*
X126209588Y-102628723D01*
X126209588Y-102628723D02*
X126161969Y-102723961D01*
X126161969Y-102723961D02*
X126066731Y-102819200D01*
X126066731Y-102819200D02*
X125923874Y-102866819D01*
X125923874Y-102866819D02*
X125685779Y-102866819D01*
X122399588Y-123059819D02*
X121828160Y-123059819D01*
X122113874Y-123059819D02*
X122113874Y-122059819D01*
X122113874Y-122059819D02*
X122018636Y-122202676D01*
X122018636Y-122202676D02*
X121923398Y-122297914D01*
X121923398Y-122297914D02*
X121828160Y-122345533D01*
X123351969Y-123059819D02*
X122780541Y-123059819D01*
X123066255Y-123059819D02*
X123066255Y-122059819D01*
X123066255Y-122059819D02*
X122971017Y-122202676D01*
X122971017Y-122202676D02*
X122875779Y-122297914D01*
X122875779Y-122297914D02*
X122780541Y-122345533D01*
X123780541Y-122964580D02*
X123828160Y-123012200D01*
X123828160Y-123012200D02*
X123780541Y-123059819D01*
X123780541Y-123059819D02*
X123732922Y-123012200D01*
X123732922Y-123012200D02*
X123780541Y-122964580D01*
X123780541Y-122964580D02*
X123780541Y-123059819D01*
X124780540Y-123059819D02*
X124209112Y-123059819D01*
X124494826Y-123059819D02*
X124494826Y-122059819D01*
X124494826Y-122059819D02*
X124399588Y-122202676D01*
X124399588Y-122202676D02*
X124304350Y-122297914D01*
X124304350Y-122297914D02*
X124209112Y-122345533D01*
X125066255Y-122059819D02*
X125399588Y-123059819D01*
X125399588Y-123059819D02*
X125732921Y-122059819D01*
X171596207Y-112383819D02*
X171262874Y-111907628D01*
X171024779Y-112383819D02*
X171024779Y-111383819D01*
X171024779Y-111383819D02*
X171405731Y-111383819D01*
X171405731Y-111383819D02*
X171500969Y-111431438D01*
X171500969Y-111431438D02*
X171548588Y-111479057D01*
X171548588Y-111479057D02*
X171596207Y-111574295D01*
X171596207Y-111574295D02*
X171596207Y-111717152D01*
X171596207Y-111717152D02*
X171548588Y-111812390D01*
X171548588Y-111812390D02*
X171500969Y-111860009D01*
X171500969Y-111860009D02*
X171405731Y-111907628D01*
X171405731Y-111907628D02*
X171024779Y-111907628D01*
X170881922Y-114603819D02*
X171453350Y-114603819D01*
X171167636Y-115603819D02*
X171167636Y-114603819D01*
X171024779Y-118442866D02*
X171786684Y-118442866D01*
X171500969Y-121043819D02*
X171024779Y-121043819D01*
X171024779Y-121043819D02*
X170977160Y-121520009D01*
X170977160Y-121520009D02*
X171024779Y-121472390D01*
X171024779Y-121472390D02*
X171120017Y-121424771D01*
X171120017Y-121424771D02*
X171358112Y-121424771D01*
X171358112Y-121424771D02*
X171453350Y-121472390D01*
X171453350Y-121472390D02*
X171500969Y-121520009D01*
X171500969Y-121520009D02*
X171548588Y-121615247D01*
X171548588Y-121615247D02*
X171548588Y-121853342D01*
X171548588Y-121853342D02*
X171500969Y-121948580D01*
X171500969Y-121948580D02*
X171453350Y-121996200D01*
X171453350Y-121996200D02*
X171358112Y-122043819D01*
X171358112Y-122043819D02*
X171120017Y-122043819D01*
X171120017Y-122043819D02*
X171024779Y-121996200D01*
X171024779Y-121996200D02*
X170977160Y-121948580D01*
X171834303Y-121043819D02*
X172167636Y-122043819D01*
X172167636Y-122043819D02*
X172500969Y-121043819D01*
X164195303Y-112510819D02*
X163928636Y-112034628D01*
X163738160Y-112510819D02*
X163738160Y-111510819D01*
X163738160Y-111510819D02*
X164042922Y-111510819D01*
X164042922Y-111510819D02*
X164119112Y-111558438D01*
X164119112Y-111558438D02*
X164157207Y-111606057D01*
X164157207Y-111606057D02*
X164195303Y-111701295D01*
X164195303Y-111701295D02*
X164195303Y-111844152D01*
X164195303Y-111844152D02*
X164157207Y-111939390D01*
X164157207Y-111939390D02*
X164119112Y-111987009D01*
X164119112Y-111987009D02*
X164042922Y-112034628D01*
X164042922Y-112034628D02*
X163738160Y-112034628D01*
X163623874Y-114730819D02*
X164081017Y-114730819D01*
X163852445Y-115730819D02*
X163852445Y-114730819D01*
X163738160Y-118569866D02*
X164347684Y-118569866D01*
X163661969Y-121170819D02*
X164157207Y-121170819D01*
X164157207Y-121170819D02*
X163890541Y-121551771D01*
X163890541Y-121551771D02*
X164004826Y-121551771D01*
X164004826Y-121551771D02*
X164081017Y-121599390D01*
X164081017Y-121599390D02*
X164119112Y-121647009D01*
X164119112Y-121647009D02*
X164157207Y-121742247D01*
X164157207Y-121742247D02*
X164157207Y-121980342D01*
X164157207Y-121980342D02*
X164119112Y-122075580D01*
X164119112Y-122075580D02*
X164081017Y-122123200D01*
X164081017Y-122123200D02*
X164004826Y-122170819D01*
X164004826Y-122170819D02*
X163776255Y-122170819D01*
X163776255Y-122170819D02*
X163700064Y-122123200D01*
X163700064Y-122123200D02*
X163661969Y-122075580D01*
X164385779Y-121170819D02*
X164652446Y-122170819D01*
X164652446Y-122170819D02*
X164919112Y-121170819D01*
X165109588Y-121170819D02*
X165604826Y-121170819D01*
X165604826Y-121170819D02*
X165338160Y-121551771D01*
X165338160Y-121551771D02*
X165452445Y-121551771D01*
X165452445Y-121551771D02*
X165528636Y-121599390D01*
X165528636Y-121599390D02*
X165566731Y-121647009D01*
X165566731Y-121647009D02*
X165604826Y-121742247D01*
X165604826Y-121742247D02*
X165604826Y-121980342D01*
X165604826Y-121980342D02*
X165566731Y-122075580D01*
X165566731Y-122075580D02*
X165528636Y-122123200D01*
X165528636Y-122123200D02*
X165452445Y-122170819D01*
X165452445Y-122170819D02*
X165223874Y-122170819D01*
X165223874Y-122170819D02*
X165147683Y-122123200D01*
X165147683Y-122123200D02*
X165109588Y-122075580D01*
X157673922Y-111428819D02*
X158245350Y-111428819D01*
X157959636Y-112428819D02*
X157959636Y-111428819D01*
X158388207Y-115648819D02*
X158054874Y-115172628D01*
X157816779Y-115648819D02*
X157816779Y-114648819D01*
X157816779Y-114648819D02*
X158197731Y-114648819D01*
X158197731Y-114648819D02*
X158292969Y-114696438D01*
X158292969Y-114696438D02*
X158340588Y-114744057D01*
X158340588Y-114744057D02*
X158388207Y-114839295D01*
X158388207Y-114839295D02*
X158388207Y-114982152D01*
X158388207Y-114982152D02*
X158340588Y-115077390D01*
X158340588Y-115077390D02*
X158292969Y-115125009D01*
X158292969Y-115125009D02*
X158197731Y-115172628D01*
X158197731Y-115172628D02*
X157816779Y-115172628D01*
X157816779Y-118487866D02*
X158578684Y-118487866D01*
X173167922Y-123075819D02*
X173739350Y-123075819D01*
X173453636Y-124075819D02*
X173453636Y-123075819D01*
X174072684Y-123552009D02*
X174406017Y-123552009D01*
X174548874Y-124075819D02*
X174072684Y-124075819D01*
X174072684Y-124075819D02*
X174072684Y-123075819D01*
X174072684Y-123075819D02*
X174548874Y-123075819D01*
X175453636Y-124075819D02*
X174977446Y-124075819D01*
X174977446Y-124075819D02*
X174977446Y-123075819D01*
X175786970Y-123552009D02*
X176120303Y-123552009D01*
X176263160Y-124075819D02*
X175786970Y-124075819D01*
X175786970Y-124075819D02*
X175786970Y-123075819D01*
X175786970Y-123075819D02*
X176263160Y-123075819D01*
X176691732Y-124075819D02*
X176691732Y-123075819D01*
X176691732Y-123075819D02*
X177025065Y-123790104D01*
X177025065Y-123790104D02*
X177358398Y-123075819D01*
X177358398Y-123075819D02*
X177358398Y-124075819D01*
X177834589Y-123552009D02*
X178167922Y-123552009D01*
X178310779Y-124075819D02*
X177834589Y-124075819D01*
X177834589Y-124075819D02*
X177834589Y-123075819D01*
X177834589Y-123075819D02*
X178310779Y-123075819D01*
X178596494Y-123075819D02*
X179167922Y-123075819D01*
X178882208Y-124075819D02*
X178882208Y-123075819D01*
X180072684Y-124075819D02*
X179739351Y-123599628D01*
X179501256Y-124075819D02*
X179501256Y-123075819D01*
X179501256Y-123075819D02*
X179882208Y-123075819D01*
X179882208Y-123075819D02*
X179977446Y-123123438D01*
X179977446Y-123123438D02*
X180025065Y-123171057D01*
X180025065Y-123171057D02*
X180072684Y-123266295D01*
X180072684Y-123266295D02*
X180072684Y-123409152D01*
X180072684Y-123409152D02*
X180025065Y-123504390D01*
X180025065Y-123504390D02*
X179977446Y-123552009D01*
X179977446Y-123552009D02*
X179882208Y-123599628D01*
X179882208Y-123599628D02*
X179501256Y-123599628D01*
X180691732Y-123599628D02*
X180691732Y-124075819D01*
X180358399Y-123075819D02*
X180691732Y-123599628D01*
X180691732Y-123599628D02*
X181025065Y-123075819D01*
X165627207Y-123980580D02*
X165579588Y-124028200D01*
X165579588Y-124028200D02*
X165436731Y-124075819D01*
X165436731Y-124075819D02*
X165341493Y-124075819D01*
X165341493Y-124075819D02*
X165198636Y-124028200D01*
X165198636Y-124028200D02*
X165103398Y-123932961D01*
X165103398Y-123932961D02*
X165055779Y-123837723D01*
X165055779Y-123837723D02*
X165008160Y-123647247D01*
X165008160Y-123647247D02*
X165008160Y-123504390D01*
X165008160Y-123504390D02*
X165055779Y-123313914D01*
X165055779Y-123313914D02*
X165103398Y-123218676D01*
X165103398Y-123218676D02*
X165198636Y-123123438D01*
X165198636Y-123123438D02*
X165341493Y-123075819D01*
X165341493Y-123075819D02*
X165436731Y-123075819D01*
X165436731Y-123075819D02*
X165579588Y-123123438D01*
X165579588Y-123123438D02*
X165627207Y-123171057D01*
X166246255Y-123075819D02*
X166436731Y-123075819D01*
X166436731Y-123075819D02*
X166531969Y-123123438D01*
X166531969Y-123123438D02*
X166627207Y-123218676D01*
X166627207Y-123218676D02*
X166674826Y-123409152D01*
X166674826Y-123409152D02*
X166674826Y-123742485D01*
X166674826Y-123742485D02*
X166627207Y-123932961D01*
X166627207Y-123932961D02*
X166531969Y-124028200D01*
X166531969Y-124028200D02*
X166436731Y-124075819D01*
X166436731Y-124075819D02*
X166246255Y-124075819D01*
X166246255Y-124075819D02*
X166151017Y-124028200D01*
X166151017Y-124028200D02*
X166055779Y-123932961D01*
X166055779Y-123932961D02*
X166008160Y-123742485D01*
X166008160Y-123742485D02*
X166008160Y-123409152D01*
X166008160Y-123409152D02*
X166055779Y-123218676D01*
X166055779Y-123218676D02*
X166151017Y-123123438D01*
X166151017Y-123123438D02*
X166246255Y-123075819D01*
X167103398Y-124075819D02*
X167103398Y-123075819D01*
X167103398Y-123075819D02*
X167674826Y-124075819D01*
X167674826Y-124075819D02*
X167674826Y-123075819D01*
X168103398Y-124028200D02*
X168246255Y-124075819D01*
X168246255Y-124075819D02*
X168484350Y-124075819D01*
X168484350Y-124075819D02*
X168579588Y-124028200D01*
X168579588Y-124028200D02*
X168627207Y-123980580D01*
X168627207Y-123980580D02*
X168674826Y-123885342D01*
X168674826Y-123885342D02*
X168674826Y-123790104D01*
X168674826Y-123790104D02*
X168627207Y-123694866D01*
X168627207Y-123694866D02*
X168579588Y-123647247D01*
X168579588Y-123647247D02*
X168484350Y-123599628D01*
X168484350Y-123599628D02*
X168293874Y-123552009D01*
X168293874Y-123552009D02*
X168198636Y-123504390D01*
X168198636Y-123504390D02*
X168151017Y-123456771D01*
X168151017Y-123456771D02*
X168103398Y-123361533D01*
X168103398Y-123361533D02*
X168103398Y-123266295D01*
X168103398Y-123266295D02*
X168151017Y-123171057D01*
X168151017Y-123171057D02*
X168198636Y-123123438D01*
X168198636Y-123123438D02*
X168293874Y-123075819D01*
X168293874Y-123075819D02*
X168531969Y-123075819D01*
X168531969Y-123075819D02*
X168674826Y-123123438D01*
X169293874Y-123075819D02*
X169484350Y-123075819D01*
X169484350Y-123075819D02*
X169579588Y-123123438D01*
X169579588Y-123123438D02*
X169674826Y-123218676D01*
X169674826Y-123218676D02*
X169722445Y-123409152D01*
X169722445Y-123409152D02*
X169722445Y-123742485D01*
X169722445Y-123742485D02*
X169674826Y-123932961D01*
X169674826Y-123932961D02*
X169579588Y-124028200D01*
X169579588Y-124028200D02*
X169484350Y-124075819D01*
X169484350Y-124075819D02*
X169293874Y-124075819D01*
X169293874Y-124075819D02*
X169198636Y-124028200D01*
X169198636Y-124028200D02*
X169103398Y-123932961D01*
X169103398Y-123932961D02*
X169055779Y-123742485D01*
X169055779Y-123742485D02*
X169055779Y-123409152D01*
X169055779Y-123409152D02*
X169103398Y-123218676D01*
X169103398Y-123218676D02*
X169198636Y-123123438D01*
X169198636Y-123123438D02*
X169293874Y-123075819D01*
X170627207Y-124075819D02*
X170151017Y-124075819D01*
X170151017Y-124075819D02*
X170151017Y-123075819D01*
X170960541Y-123552009D02*
X171293874Y-123552009D01*
X171436731Y-124075819D02*
X170960541Y-124075819D01*
X170960541Y-124075819D02*
X170960541Y-123075819D01*
X170960541Y-123075819D02*
X171436731Y-123075819D01*
X158404160Y-124028200D02*
X158547017Y-124075819D01*
X158547017Y-124075819D02*
X158785112Y-124075819D01*
X158785112Y-124075819D02*
X158880350Y-124028200D01*
X158880350Y-124028200D02*
X158927969Y-123980580D01*
X158927969Y-123980580D02*
X158975588Y-123885342D01*
X158975588Y-123885342D02*
X158975588Y-123790104D01*
X158975588Y-123790104D02*
X158927969Y-123694866D01*
X158927969Y-123694866D02*
X158880350Y-123647247D01*
X158880350Y-123647247D02*
X158785112Y-123599628D01*
X158785112Y-123599628D02*
X158594636Y-123552009D01*
X158594636Y-123552009D02*
X158499398Y-123504390D01*
X158499398Y-123504390D02*
X158451779Y-123456771D01*
X158451779Y-123456771D02*
X158404160Y-123361533D01*
X158404160Y-123361533D02*
X158404160Y-123266295D01*
X158404160Y-123266295D02*
X158451779Y-123171057D01*
X158451779Y-123171057D02*
X158499398Y-123123438D01*
X158499398Y-123123438D02*
X158594636Y-123075819D01*
X158594636Y-123075819D02*
X158832731Y-123075819D01*
X158832731Y-123075819D02*
X158975588Y-123123438D01*
X159404160Y-124075819D02*
X159404160Y-123075819D01*
X159404160Y-123075819D02*
X159785112Y-123075819D01*
X159785112Y-123075819D02*
X159880350Y-123123438D01*
X159880350Y-123123438D02*
X159927969Y-123171057D01*
X159927969Y-123171057D02*
X159975588Y-123266295D01*
X159975588Y-123266295D02*
X159975588Y-123409152D01*
X159975588Y-123409152D02*
X159927969Y-123504390D01*
X159927969Y-123504390D02*
X159880350Y-123552009D01*
X159880350Y-123552009D02*
X159785112Y-123599628D01*
X159785112Y-123599628D02*
X159404160Y-123599628D01*
X160356541Y-123790104D02*
X160832731Y-123790104D01*
X160261303Y-124075819D02*
X160594636Y-123075819D01*
X160594636Y-123075819D02*
X160927969Y-124075819D01*
X161832731Y-124075819D02*
X161499398Y-123599628D01*
X161261303Y-124075819D02*
X161261303Y-123075819D01*
X161261303Y-123075819D02*
X161642255Y-123075819D01*
X161642255Y-123075819D02*
X161737493Y-123123438D01*
X161737493Y-123123438D02*
X161785112Y-123171057D01*
X161785112Y-123171057D02*
X161832731Y-123266295D01*
X161832731Y-123266295D02*
X161832731Y-123409152D01*
X161832731Y-123409152D02*
X161785112Y-123504390D01*
X161785112Y-123504390D02*
X161737493Y-123552009D01*
X161737493Y-123552009D02*
X161642255Y-123599628D01*
X161642255Y-123599628D02*
X161261303Y-123599628D01*
X162261303Y-123552009D02*
X162594636Y-123552009D01*
X162737493Y-124075819D02*
X162261303Y-124075819D01*
X162261303Y-124075819D02*
X162261303Y-123075819D01*
X162261303Y-123075819D02*
X162737493Y-123075819D01*
X192122588Y-115376438D02*
X192027350Y-115328819D01*
X192027350Y-115328819D02*
X191884493Y-115328819D01*
X191884493Y-115328819D02*
X191741636Y-115376438D01*
X191741636Y-115376438D02*
X191646398Y-115471676D01*
X191646398Y-115471676D02*
X191598779Y-115566914D01*
X191598779Y-115566914D02*
X191551160Y-115757390D01*
X191551160Y-115757390D02*
X191551160Y-115900247D01*
X191551160Y-115900247D02*
X191598779Y-116090723D01*
X191598779Y-116090723D02*
X191646398Y-116185961D01*
X191646398Y-116185961D02*
X191741636Y-116281200D01*
X191741636Y-116281200D02*
X191884493Y-116328819D01*
X191884493Y-116328819D02*
X191979731Y-116328819D01*
X191979731Y-116328819D02*
X192122588Y-116281200D01*
X192122588Y-116281200D02*
X192170207Y-116233580D01*
X192170207Y-116233580D02*
X192170207Y-115900247D01*
X192170207Y-115900247D02*
X191979731Y-115900247D01*
X192789255Y-115852628D02*
X192789255Y-116328819D01*
X192455922Y-115328819D02*
X192789255Y-115852628D01*
X192789255Y-115852628D02*
X193122588Y-115328819D01*
X193503541Y-116328819D02*
X193694017Y-116328819D01*
X193694017Y-116328819D02*
X193789255Y-116281200D01*
X193789255Y-116281200D02*
X193836874Y-116233580D01*
X193836874Y-116233580D02*
X193932112Y-116090723D01*
X193932112Y-116090723D02*
X193979731Y-115900247D01*
X193979731Y-115900247D02*
X193979731Y-115519295D01*
X193979731Y-115519295D02*
X193932112Y-115424057D01*
X193932112Y-115424057D02*
X193884493Y-115376438D01*
X193884493Y-115376438D02*
X193789255Y-115328819D01*
X193789255Y-115328819D02*
X193598779Y-115328819D01*
X193598779Y-115328819D02*
X193503541Y-115376438D01*
X193503541Y-115376438D02*
X193455922Y-115424057D01*
X193455922Y-115424057D02*
X193408303Y-115519295D01*
X193408303Y-115519295D02*
X193408303Y-115757390D01*
X193408303Y-115757390D02*
X193455922Y-115852628D01*
X193455922Y-115852628D02*
X193503541Y-115900247D01*
X193503541Y-115900247D02*
X193598779Y-115947866D01*
X193598779Y-115947866D02*
X193789255Y-115947866D01*
X193789255Y-115947866D02*
X193884493Y-115900247D01*
X193884493Y-115900247D02*
X193932112Y-115852628D01*
X193932112Y-115852628D02*
X193979731Y-115757390D01*
X194360684Y-115424057D02*
X194408303Y-115376438D01*
X194408303Y-115376438D02*
X194503541Y-115328819D01*
X194503541Y-115328819D02*
X194741636Y-115328819D01*
X194741636Y-115328819D02*
X194836874Y-115376438D01*
X194836874Y-115376438D02*
X194884493Y-115424057D01*
X194884493Y-115424057D02*
X194932112Y-115519295D01*
X194932112Y-115519295D02*
X194932112Y-115614533D01*
X194932112Y-115614533D02*
X194884493Y-115757390D01*
X194884493Y-115757390D02*
X194313065Y-116328819D01*
X194313065Y-116328819D02*
X194932112Y-116328819D01*
X195836874Y-115328819D02*
X195360684Y-115328819D01*
X195360684Y-115328819D02*
X195313065Y-115805009D01*
X195313065Y-115805009D02*
X195360684Y-115757390D01*
X195360684Y-115757390D02*
X195455922Y-115709771D01*
X195455922Y-115709771D02*
X195694017Y-115709771D01*
X195694017Y-115709771D02*
X195789255Y-115757390D01*
X195789255Y-115757390D02*
X195836874Y-115805009D01*
X195836874Y-115805009D02*
X195884493Y-115900247D01*
X195884493Y-115900247D02*
X195884493Y-116138342D01*
X195884493Y-116138342D02*
X195836874Y-116233580D01*
X195836874Y-116233580D02*
X195789255Y-116281200D01*
X195789255Y-116281200D02*
X195694017Y-116328819D01*
X195694017Y-116328819D02*
X195455922Y-116328819D01*
X195455922Y-116328819D02*
X195360684Y-116281200D01*
X195360684Y-116281200D02*
X195313065Y-116233580D01*
X196503541Y-115328819D02*
X196598779Y-115328819D01*
X196598779Y-115328819D02*
X196694017Y-115376438D01*
X196694017Y-115376438D02*
X196741636Y-115424057D01*
X196741636Y-115424057D02*
X196789255Y-115519295D01*
X196789255Y-115519295D02*
X196836874Y-115709771D01*
X196836874Y-115709771D02*
X196836874Y-115947866D01*
X196836874Y-115947866D02*
X196789255Y-116138342D01*
X196789255Y-116138342D02*
X196741636Y-116233580D01*
X196741636Y-116233580D02*
X196694017Y-116281200D01*
X196694017Y-116281200D02*
X196598779Y-116328819D01*
X196598779Y-116328819D02*
X196503541Y-116328819D01*
X196503541Y-116328819D02*
X196408303Y-116281200D01*
X196408303Y-116281200D02*
X196360684Y-116233580D01*
X196360684Y-116233580D02*
X196313065Y-116138342D01*
X196313065Y-116138342D02*
X196265446Y-115947866D01*
X196265446Y-115947866D02*
X196265446Y-115709771D01*
X196265446Y-115709771D02*
X196313065Y-115519295D01*
X196313065Y-115519295D02*
X196360684Y-115424057D01*
X196360684Y-115424057D02*
X196408303Y-115376438D01*
X196408303Y-115376438D02*
X196503541Y-115328819D01*
X202965207Y-81276819D02*
X202631874Y-80800628D01*
X202393779Y-81276819D02*
X202393779Y-80276819D01*
X202393779Y-80276819D02*
X202774731Y-80276819D01*
X202774731Y-80276819D02*
X202869969Y-80324438D01*
X202869969Y-80324438D02*
X202917588Y-80372057D01*
X202917588Y-80372057D02*
X202965207Y-80467295D01*
X202965207Y-80467295D02*
X202965207Y-80610152D01*
X202965207Y-80610152D02*
X202917588Y-80705390D01*
X202917588Y-80705390D02*
X202869969Y-80753009D01*
X202869969Y-80753009D02*
X202774731Y-80800628D01*
X202774731Y-80800628D02*
X202393779Y-80800628D01*
X203393779Y-80276819D02*
X203393779Y-81086342D01*
X203393779Y-81086342D02*
X203441398Y-81181580D01*
X203441398Y-81181580D02*
X203489017Y-81229200D01*
X203489017Y-81229200D02*
X203584255Y-81276819D01*
X203584255Y-81276819D02*
X203774731Y-81276819D01*
X203774731Y-81276819D02*
X203869969Y-81229200D01*
X203869969Y-81229200D02*
X203917588Y-81181580D01*
X203917588Y-81181580D02*
X203965207Y-81086342D01*
X203965207Y-81086342D02*
X203965207Y-80276819D01*
X204441398Y-81276819D02*
X204441398Y-80276819D01*
X204441398Y-80276819D02*
X205012826Y-81276819D01*
X205012826Y-81276819D02*
X205012826Y-80276819D01*
X202647779Y-73260009D02*
X202981112Y-73260009D01*
X203123969Y-73783819D02*
X202647779Y-73783819D01*
X202647779Y-73783819D02*
X202647779Y-72783819D01*
X202647779Y-72783819D02*
X203123969Y-72783819D01*
X204123969Y-73783819D02*
X203790636Y-73307628D01*
X203552541Y-73783819D02*
X203552541Y-72783819D01*
X203552541Y-72783819D02*
X203933493Y-72783819D01*
X203933493Y-72783819D02*
X204028731Y-72831438D01*
X204028731Y-72831438D02*
X204076350Y-72879057D01*
X204076350Y-72879057D02*
X204123969Y-72974295D01*
X204123969Y-72974295D02*
X204123969Y-73117152D01*
X204123969Y-73117152D02*
X204076350Y-73212390D01*
X204076350Y-73212390D02*
X204028731Y-73260009D01*
X204028731Y-73260009D02*
X203933493Y-73307628D01*
X203933493Y-73307628D02*
X203552541Y-73307628D01*
X205123969Y-73783819D02*
X204790636Y-73307628D01*
X204552541Y-73783819D02*
X204552541Y-72783819D01*
X204552541Y-72783819D02*
X204933493Y-72783819D01*
X204933493Y-72783819D02*
X205028731Y-72831438D01*
X205028731Y-72831438D02*
X205076350Y-72879057D01*
X205076350Y-72879057D02*
X205123969Y-72974295D01*
X205123969Y-72974295D02*
X205123969Y-73117152D01*
X205123969Y-73117152D02*
X205076350Y-73212390D01*
X205076350Y-73212390D02*
X205028731Y-73260009D01*
X205028731Y-73260009D02*
X204933493Y-73307628D01*
X204933493Y-73307628D02*
X204552541Y-73307628D01*
X203743112Y-64751009D02*
X203409779Y-64751009D01*
X203409779Y-65274819D02*
X203409779Y-64274819D01*
X203409779Y-64274819D02*
X203885969Y-64274819D01*
X204838350Y-65274819D02*
X204505017Y-64798628D01*
X204266922Y-65274819D02*
X204266922Y-64274819D01*
X204266922Y-64274819D02*
X204647874Y-64274819D01*
X204647874Y-64274819D02*
X204743112Y-64322438D01*
X204743112Y-64322438D02*
X204790731Y-64370057D01*
X204790731Y-64370057D02*
X204838350Y-64465295D01*
X204838350Y-64465295D02*
X204838350Y-64608152D01*
X204838350Y-64608152D02*
X204790731Y-64703390D01*
X204790731Y-64703390D02*
X204743112Y-64751009D01*
X204743112Y-64751009D02*
X204647874Y-64798628D01*
X204647874Y-64798628D02*
X204266922Y-64798628D01*
X203854207Y-105152819D02*
X203520874Y-104676628D01*
X203282779Y-105152819D02*
X203282779Y-104152819D01*
X203282779Y-104152819D02*
X203663731Y-104152819D01*
X203663731Y-104152819D02*
X203758969Y-104200438D01*
X203758969Y-104200438D02*
X203806588Y-104248057D01*
X203806588Y-104248057D02*
X203854207Y-104343295D01*
X203854207Y-104343295D02*
X203854207Y-104486152D01*
X203854207Y-104486152D02*
X203806588Y-104581390D01*
X203806588Y-104581390D02*
X203758969Y-104629009D01*
X203758969Y-104629009D02*
X203663731Y-104676628D01*
X203663731Y-104676628D02*
X203282779Y-104676628D01*
X204854207Y-105152819D02*
X204520874Y-104676628D01*
X204282779Y-105152819D02*
X204282779Y-104152819D01*
X204282779Y-104152819D02*
X204663731Y-104152819D01*
X204663731Y-104152819D02*
X204758969Y-104200438D01*
X204758969Y-104200438D02*
X204806588Y-104248057D01*
X204806588Y-104248057D02*
X204854207Y-104343295D01*
X204854207Y-104343295D02*
X204854207Y-104486152D01*
X204854207Y-104486152D02*
X204806588Y-104581390D01*
X204806588Y-104581390D02*
X204758969Y-104629009D01*
X204758969Y-104629009D02*
X204663731Y-104676628D01*
X204663731Y-104676628D02*
X204282779Y-104676628D01*
X126209419Y-71012207D02*
X126161800Y-70964588D01*
X126161800Y-70964588D02*
X126114180Y-70821731D01*
X126114180Y-70821731D02*
X126114180Y-70726493D01*
X126114180Y-70726493D02*
X126161800Y-70583636D01*
X126161800Y-70583636D02*
X126257038Y-70488398D01*
X126257038Y-70488398D02*
X126352276Y-70440779D01*
X126352276Y-70440779D02*
X126542752Y-70393160D01*
X126542752Y-70393160D02*
X126685609Y-70393160D01*
X126685609Y-70393160D02*
X126876085Y-70440779D01*
X126876085Y-70440779D02*
X126971323Y-70488398D01*
X126971323Y-70488398D02*
X127066561Y-70583636D01*
X127066561Y-70583636D02*
X127114180Y-70726493D01*
X127114180Y-70726493D02*
X127114180Y-70821731D01*
X127114180Y-70821731D02*
X127066561Y-70964588D01*
X127066561Y-70964588D02*
X127018942Y-71012207D01*
X126399895Y-71393160D02*
X126399895Y-71869350D01*
X126114180Y-71297922D02*
X127114180Y-71631255D01*
X127114180Y-71631255D02*
X126114180Y-71964588D01*
X126114180Y-72297922D02*
X127114180Y-72297922D01*
X127114180Y-72297922D02*
X126114180Y-72869350D01*
X126114180Y-72869350D02*
X127114180Y-72869350D01*
X127114180Y-73964589D02*
X127114180Y-74536017D01*
X126114180Y-74250303D02*
X127114180Y-74250303D01*
X126637990Y-74869351D02*
X126637990Y-75202684D01*
X126114180Y-75345541D02*
X126114180Y-74869351D01*
X126114180Y-74869351D02*
X127114180Y-74869351D01*
X127114180Y-74869351D02*
X127114180Y-75345541D01*
X126114180Y-76345541D02*
X126590371Y-76012208D01*
X126114180Y-75774113D02*
X127114180Y-75774113D01*
X127114180Y-75774113D02*
X127114180Y-76155065D01*
X127114180Y-76155065D02*
X127066561Y-76250303D01*
X127066561Y-76250303D02*
X127018942Y-76297922D01*
X127018942Y-76297922D02*
X126923704Y-76345541D01*
X126923704Y-76345541D02*
X126780847Y-76345541D01*
X126780847Y-76345541D02*
X126685609Y-76297922D01*
X126685609Y-76297922D02*
X126637990Y-76250303D01*
X126637990Y-76250303D02*
X126590371Y-76155065D01*
X126590371Y-76155065D02*
X126590371Y-75774113D01*
X126114180Y-76774113D02*
X127114180Y-76774113D01*
X127114180Y-76774113D02*
X126399895Y-77107446D01*
X126399895Y-77107446D02*
X127114180Y-77440779D01*
X127114180Y-77440779D02*
X126114180Y-77440779D01*
X123082207Y-105406819D02*
X122748874Y-104930628D01*
X122510779Y-105406819D02*
X122510779Y-104406819D01*
X122510779Y-104406819D02*
X122891731Y-104406819D01*
X122891731Y-104406819D02*
X122986969Y-104454438D01*
X122986969Y-104454438D02*
X123034588Y-104502057D01*
X123034588Y-104502057D02*
X123082207Y-104597295D01*
X123082207Y-104597295D02*
X123082207Y-104740152D01*
X123082207Y-104740152D02*
X123034588Y-104835390D01*
X123034588Y-104835390D02*
X122986969Y-104883009D01*
X122986969Y-104883009D02*
X122891731Y-104930628D01*
X122891731Y-104930628D02*
X122510779Y-104930628D01*
X123986969Y-105406819D02*
X123510779Y-105406819D01*
X123510779Y-105406819D02*
X123510779Y-104406819D01*
X122844112Y-64878009D02*
X122510779Y-64878009D01*
X122510779Y-65401819D02*
X122510779Y-64401819D01*
X122510779Y-64401819D02*
X122986969Y-64401819D01*
X123844112Y-65401819D02*
X123367922Y-65401819D01*
X123367922Y-65401819D02*
X123367922Y-64401819D01*
X162306095Y-51890819D02*
X162306095Y-52700342D01*
X162306095Y-52700342D02*
X162353714Y-52795580D01*
X162353714Y-52795580D02*
X162401333Y-52843200D01*
X162401333Y-52843200D02*
X162496571Y-52890819D01*
X162496571Y-52890819D02*
X162687047Y-52890819D01*
X162687047Y-52890819D02*
X162782285Y-52843200D01*
X162782285Y-52843200D02*
X162829904Y-52795580D01*
X162829904Y-52795580D02*
X162877523Y-52700342D01*
X162877523Y-52700342D02*
X162877523Y-51890819D01*
X163877523Y-52890819D02*
X163306095Y-52890819D01*
X163591809Y-52890819D02*
X163591809Y-51890819D01*
X163591809Y-51890819D02*
X163496571Y-52033676D01*
X163496571Y-52033676D02*
X163401333Y-52128914D01*
X163401333Y-52128914D02*
X163306095Y-52176533D01*
X142978952Y-101165819D02*
X142978952Y-100165819D01*
X142978952Y-100165819D02*
X143550380Y-101165819D01*
X143550380Y-101165819D02*
X143550380Y-100165819D01*
X144026571Y-100165819D02*
X144026571Y-100975342D01*
X144026571Y-100975342D02*
X144074190Y-101070580D01*
X144074190Y-101070580D02*
X144121809Y-101118200D01*
X144121809Y-101118200D02*
X144217047Y-101165819D01*
X144217047Y-101165819D02*
X144407523Y-101165819D01*
X144407523Y-101165819D02*
X144502761Y-101118200D01*
X144502761Y-101118200D02*
X144550380Y-101070580D01*
X144550380Y-101070580D02*
X144597999Y-100975342D01*
X144597999Y-100975342D02*
X144597999Y-100165819D01*
X145645618Y-101070580D02*
X145597999Y-101118200D01*
X145597999Y-101118200D02*
X145455142Y-101165819D01*
X145455142Y-101165819D02*
X145359904Y-101165819D01*
X145359904Y-101165819D02*
X145217047Y-101118200D01*
X145217047Y-101118200D02*
X145121809Y-101022961D01*
X145121809Y-101022961D02*
X145074190Y-100927723D01*
X145074190Y-100927723D02*
X145026571Y-100737247D01*
X145026571Y-100737247D02*
X145026571Y-100594390D01*
X145026571Y-100594390D02*
X145074190Y-100403914D01*
X145074190Y-100403914D02*
X145121809Y-100308676D01*
X145121809Y-100308676D02*
X145217047Y-100213438D01*
X145217047Y-100213438D02*
X145359904Y-100165819D01*
X145359904Y-100165819D02*
X145455142Y-100165819D01*
X145455142Y-100165819D02*
X145597999Y-100213438D01*
X145597999Y-100213438D02*
X145645618Y-100261057D01*
X146550380Y-101165819D02*
X146074190Y-101165819D01*
X146074190Y-101165819D02*
X146074190Y-100165819D01*
X146883714Y-100642009D02*
X147217047Y-100642009D01*
X147359904Y-101165819D02*
X146883714Y-101165819D01*
X146883714Y-101165819D02*
X146883714Y-100165819D01*
X146883714Y-100165819D02*
X147359904Y-100165819D01*
X147978952Y-100165819D02*
X148169428Y-100165819D01*
X148169428Y-100165819D02*
X148264666Y-100213438D01*
X148264666Y-100213438D02*
X148359904Y-100308676D01*
X148359904Y-100308676D02*
X148407523Y-100499152D01*
X148407523Y-100499152D02*
X148407523Y-100832485D01*
X148407523Y-100832485D02*
X148359904Y-101022961D01*
X148359904Y-101022961D02*
X148264666Y-101118200D01*
X148264666Y-101118200D02*
X148169428Y-101165819D01*
X148169428Y-101165819D02*
X147978952Y-101165819D01*
X147978952Y-101165819D02*
X147883714Y-101118200D01*
X147883714Y-101118200D02*
X147788476Y-101022961D01*
X147788476Y-101022961D02*
X147740857Y-100832485D01*
X147740857Y-100832485D02*
X147740857Y-100499152D01*
X147740857Y-100499152D02*
X147788476Y-100308676D01*
X147788476Y-100308676D02*
X147883714Y-100213438D01*
X147883714Y-100213438D02*
X147978952Y-100165819D01*
X148836095Y-100784866D02*
X149598000Y-100784866D01*
X150407523Y-100642009D02*
X150074190Y-100642009D01*
X150074190Y-101165819D02*
X150074190Y-100165819D01*
X150074190Y-100165819D02*
X150550380Y-100165819D01*
X151359904Y-100499152D02*
X151359904Y-101165819D01*
X151121809Y-100118200D02*
X150883714Y-100832485D01*
X150883714Y-100832485D02*
X151502761Y-100832485D01*
X152312285Y-100499152D02*
X152312285Y-101165819D01*
X152074190Y-100118200D02*
X151836095Y-100832485D01*
X151836095Y-100832485D02*
X152455142Y-100832485D01*
X153264666Y-100165819D02*
X153074190Y-100165819D01*
X153074190Y-100165819D02*
X152978952Y-100213438D01*
X152978952Y-100213438D02*
X152931333Y-100261057D01*
X152931333Y-100261057D02*
X152836095Y-100403914D01*
X152836095Y-100403914D02*
X152788476Y-100594390D01*
X152788476Y-100594390D02*
X152788476Y-100975342D01*
X152788476Y-100975342D02*
X152836095Y-101070580D01*
X152836095Y-101070580D02*
X152883714Y-101118200D01*
X152883714Y-101118200D02*
X152978952Y-101165819D01*
X152978952Y-101165819D02*
X153169428Y-101165819D01*
X153169428Y-101165819D02*
X153264666Y-101118200D01*
X153264666Y-101118200D02*
X153312285Y-101070580D01*
X153312285Y-101070580D02*
X153359904Y-100975342D01*
X153359904Y-100975342D02*
X153359904Y-100737247D01*
X153359904Y-100737247D02*
X153312285Y-100642009D01*
X153312285Y-100642009D02*
X153264666Y-100594390D01*
X153264666Y-100594390D02*
X153169428Y-100546771D01*
X153169428Y-100546771D02*
X152978952Y-100546771D01*
X152978952Y-100546771D02*
X152883714Y-100594390D01*
X152883714Y-100594390D02*
X152836095Y-100642009D01*
X152836095Y-100642009D02*
X152788476Y-100737247D01*
X154359904Y-101165819D02*
X154026571Y-100689628D01*
X153788476Y-101165819D02*
X153788476Y-100165819D01*
X153788476Y-100165819D02*
X154169428Y-100165819D01*
X154169428Y-100165819D02*
X154264666Y-100213438D01*
X154264666Y-100213438D02*
X154312285Y-100261057D01*
X154312285Y-100261057D02*
X154359904Y-100356295D01*
X154359904Y-100356295D02*
X154359904Y-100499152D01*
X154359904Y-100499152D02*
X154312285Y-100594390D01*
X154312285Y-100594390D02*
X154264666Y-100642009D01*
X154264666Y-100642009D02*
X154169428Y-100689628D01*
X154169428Y-100689628D02*
X153788476Y-100689628D01*
X154788476Y-100642009D02*
X155121809Y-100642009D01*
X155264666Y-101165819D02*
X154788476Y-101165819D01*
X154788476Y-101165819D02*
X154788476Y-100165819D01*
X154788476Y-100165819D02*
X155264666Y-100165819D01*
X127514819Y-122221523D02*
X128229104Y-122221523D01*
X128229104Y-122221523D02*
X128371961Y-122269142D01*
X128371961Y-122269142D02*
X128467200Y-122364380D01*
X128467200Y-122364380D02*
X128514819Y-122507237D01*
X128514819Y-122507237D02*
X128514819Y-122602475D01*
X128514819Y-121221523D02*
X128514819Y-121792951D01*
X128514819Y-121507237D02*
X127514819Y-121507237D01*
X127514819Y-121507237D02*
X127657676Y-121602475D01*
X127657676Y-121602475D02*
X127752914Y-121697713D01*
X127752914Y-121697713D02*
X127800533Y-121792951D01*
X128514819Y-120269142D02*
X128514819Y-120840570D01*
X128514819Y-120554856D02*
X127514819Y-120554856D01*
X127514819Y-120554856D02*
X127657676Y-120650094D01*
X127657676Y-120650094D02*
X127752914Y-120745332D01*
X127752914Y-120745332D02*
X127800533Y-120840570D01*
X128841904Y-123533819D02*
X128365714Y-123533819D01*
X128365714Y-123533819D02*
X128318095Y-124010009D01*
X128318095Y-124010009D02*
X128365714Y-123962390D01*
X128365714Y-123962390D02*
X128460952Y-123914771D01*
X128460952Y-123914771D02*
X128699047Y-123914771D01*
X128699047Y-123914771D02*
X128794285Y-123962390D01*
X128794285Y-123962390D02*
X128841904Y-124010009D01*
X128841904Y-124010009D02*
X128889523Y-124105247D01*
X128889523Y-124105247D02*
X128889523Y-124343342D01*
X128889523Y-124343342D02*
X128841904Y-124438580D01*
X128841904Y-124438580D02*
X128794285Y-124486200D01*
X128794285Y-124486200D02*
X128699047Y-124533819D01*
X128699047Y-124533819D02*
X128460952Y-124533819D01*
X128460952Y-124533819D02*
X128365714Y-124486200D01*
X128365714Y-124486200D02*
X128318095Y-124438580D01*
X129175238Y-123533819D02*
X129508571Y-124533819D01*
X129508571Y-124533819D02*
X129841904Y-123533819D01*
X129937143Y-124629057D02*
X130699047Y-124629057D01*
X131127619Y-123533819D02*
X131318095Y-123533819D01*
X131318095Y-123533819D02*
X131413333Y-123581438D01*
X131413333Y-123581438D02*
X131508571Y-123676676D01*
X131508571Y-123676676D02*
X131556190Y-123867152D01*
X131556190Y-123867152D02*
X131556190Y-124200485D01*
X131556190Y-124200485D02*
X131508571Y-124390961D01*
X131508571Y-124390961D02*
X131413333Y-124486200D01*
X131413333Y-124486200D02*
X131318095Y-124533819D01*
X131318095Y-124533819D02*
X131127619Y-124533819D01*
X131127619Y-124533819D02*
X131032381Y-124486200D01*
X131032381Y-124486200D02*
X130937143Y-124390961D01*
X130937143Y-124390961D02*
X130889524Y-124200485D01*
X130889524Y-124200485D02*
X130889524Y-123867152D01*
X130889524Y-123867152D02*
X130937143Y-123676676D01*
X130937143Y-123676676D02*
X131032381Y-123581438D01*
X131032381Y-123581438D02*
X131127619Y-123533819D01*
X131984762Y-123533819D02*
X131984762Y-124343342D01*
X131984762Y-124343342D02*
X132032381Y-124438580D01*
X132032381Y-124438580D02*
X132080000Y-124486200D01*
X132080000Y-124486200D02*
X132175238Y-124533819D01*
X132175238Y-124533819D02*
X132365714Y-124533819D01*
X132365714Y-124533819D02*
X132460952Y-124486200D01*
X132460952Y-124486200D02*
X132508571Y-124438580D01*
X132508571Y-124438580D02*
X132556190Y-124343342D01*
X132556190Y-124343342D02*
X132556190Y-123533819D01*
X132889524Y-123533819D02*
X133460952Y-123533819D01*
X133175238Y-124533819D02*
X133175238Y-123533819D01*
X134270476Y-124533819D02*
X133794286Y-124533819D01*
X133794286Y-124533819D02*
X133794286Y-123533819D01*
X134603810Y-124010009D02*
X134937143Y-124010009D01*
X135080000Y-124533819D02*
X134603810Y-124533819D01*
X134603810Y-124533819D02*
X134603810Y-123533819D01*
X134603810Y-123533819D02*
X135080000Y-123533819D01*
X135365715Y-123533819D02*
X135937143Y-123533819D01*
X135651429Y-124533819D02*
X135651429Y-123533819D01*
X152218580Y-61266666D02*
X152266200Y-61314285D01*
X152266200Y-61314285D02*
X152313819Y-61457142D01*
X152313819Y-61457142D02*
X152313819Y-61552380D01*
X152313819Y-61552380D02*
X152266200Y-61695237D01*
X152266200Y-61695237D02*
X152170961Y-61790475D01*
X152170961Y-61790475D02*
X152075723Y-61838094D01*
X152075723Y-61838094D02*
X151885247Y-61885713D01*
X151885247Y-61885713D02*
X151742390Y-61885713D01*
X151742390Y-61885713D02*
X151551914Y-61838094D01*
X151551914Y-61838094D02*
X151456676Y-61790475D01*
X151456676Y-61790475D02*
X151361438Y-61695237D01*
X151361438Y-61695237D02*
X151313819Y-61552380D01*
X151313819Y-61552380D02*
X151313819Y-61457142D01*
X151313819Y-61457142D02*
X151361438Y-61314285D01*
X151361438Y-61314285D02*
X151409057Y-61266666D01*
X151647152Y-60409523D02*
X152313819Y-60409523D01*
X151266200Y-60647618D02*
X151980485Y-60885713D01*
X151980485Y-60885713D02*
X151980485Y-60266666D01*
X159967333Y-74494580D02*
X159919714Y-74542200D01*
X159919714Y-74542200D02*
X159776857Y-74589819D01*
X159776857Y-74589819D02*
X159681619Y-74589819D01*
X159681619Y-74589819D02*
X159538762Y-74542200D01*
X159538762Y-74542200D02*
X159443524Y-74446961D01*
X159443524Y-74446961D02*
X159395905Y-74351723D01*
X159395905Y-74351723D02*
X159348286Y-74161247D01*
X159348286Y-74161247D02*
X159348286Y-74018390D01*
X159348286Y-74018390D02*
X159395905Y-73827914D01*
X159395905Y-73827914D02*
X159443524Y-73732676D01*
X159443524Y-73732676D02*
X159538762Y-73637438D01*
X159538762Y-73637438D02*
X159681619Y-73589819D01*
X159681619Y-73589819D02*
X159776857Y-73589819D01*
X159776857Y-73589819D02*
X159919714Y-73637438D01*
X159919714Y-73637438D02*
X159967333Y-73685057D01*
X160348286Y-73685057D02*
X160395905Y-73637438D01*
X160395905Y-73637438D02*
X160491143Y-73589819D01*
X160491143Y-73589819D02*
X160729238Y-73589819D01*
X160729238Y-73589819D02*
X160824476Y-73637438D01*
X160824476Y-73637438D02*
X160872095Y-73685057D01*
X160872095Y-73685057D02*
X160919714Y-73780295D01*
X160919714Y-73780295D02*
X160919714Y-73875533D01*
X160919714Y-73875533D02*
X160872095Y-74018390D01*
X160872095Y-74018390D02*
X160300667Y-74589819D01*
X160300667Y-74589819D02*
X160919714Y-74589819D01*
X147553819Y-87319857D02*
X147077628Y-87653190D01*
X147553819Y-87891285D02*
X146553819Y-87891285D01*
X146553819Y-87891285D02*
X146553819Y-87510333D01*
X146553819Y-87510333D02*
X146601438Y-87415095D01*
X146601438Y-87415095D02*
X146649057Y-87367476D01*
X146649057Y-87367476D02*
X146744295Y-87319857D01*
X146744295Y-87319857D02*
X146887152Y-87319857D01*
X146887152Y-87319857D02*
X146982390Y-87367476D01*
X146982390Y-87367476D02*
X147030009Y-87415095D01*
X147030009Y-87415095D02*
X147077628Y-87510333D01*
X147077628Y-87510333D02*
X147077628Y-87891285D01*
X147553819Y-86367476D02*
X147553819Y-86938904D01*
X147553819Y-86653190D02*
X146553819Y-86653190D01*
X146553819Y-86653190D02*
X146696676Y-86748428D01*
X146696676Y-86748428D02*
X146791914Y-86843666D01*
X146791914Y-86843666D02*
X146839533Y-86938904D01*
X147553819Y-85415095D02*
X147553819Y-85986523D01*
X147553819Y-85700809D02*
X146553819Y-85700809D01*
X146553819Y-85700809D02*
X146696676Y-85796047D01*
X146696676Y-85796047D02*
X146791914Y-85891285D01*
X146791914Y-85891285D02*
X146839533Y-85986523D01*
X152313819Y-64364666D02*
X151837628Y-64697999D01*
X152313819Y-64936094D02*
X151313819Y-64936094D01*
X151313819Y-64936094D02*
X151313819Y-64555142D01*
X151313819Y-64555142D02*
X151361438Y-64459904D01*
X151361438Y-64459904D02*
X151409057Y-64412285D01*
X151409057Y-64412285D02*
X151504295Y-64364666D01*
X151504295Y-64364666D02*
X151647152Y-64364666D01*
X151647152Y-64364666D02*
X151742390Y-64412285D01*
X151742390Y-64412285D02*
X151790009Y-64459904D01*
X151790009Y-64459904D02*
X151837628Y-64555142D01*
X151837628Y-64555142D02*
X151837628Y-64936094D01*
X151742390Y-63793237D02*
X151694771Y-63888475D01*
X151694771Y-63888475D02*
X151647152Y-63936094D01*
X151647152Y-63936094D02*
X151551914Y-63983713D01*
X151551914Y-63983713D02*
X151504295Y-63983713D01*
X151504295Y-63983713D02*
X151409057Y-63936094D01*
X151409057Y-63936094D02*
X151361438Y-63888475D01*
X151361438Y-63888475D02*
X151313819Y-63793237D01*
X151313819Y-63793237D02*
X151313819Y-63602761D01*
X151313819Y-63602761D02*
X151361438Y-63507523D01*
X151361438Y-63507523D02*
X151409057Y-63459904D01*
X151409057Y-63459904D02*
X151504295Y-63412285D01*
X151504295Y-63412285D02*
X151551914Y-63412285D01*
X151551914Y-63412285D02*
X151647152Y-63459904D01*
X151647152Y-63459904D02*
X151694771Y-63507523D01*
X151694771Y-63507523D02*
X151742390Y-63602761D01*
X151742390Y-63602761D02*
X151742390Y-63793237D01*
X151742390Y-63793237D02*
X151790009Y-63888475D01*
X151790009Y-63888475D02*
X151837628Y-63936094D01*
X151837628Y-63936094D02*
X151932866Y-63983713D01*
X151932866Y-63983713D02*
X152123342Y-63983713D01*
X152123342Y-63983713D02*
X152218580Y-63936094D01*
X152218580Y-63936094D02*
X152266200Y-63888475D01*
X152266200Y-63888475D02*
X152313819Y-63793237D01*
X152313819Y-63793237D02*
X152313819Y-63602761D01*
X152313819Y-63602761D02*
X152266200Y-63507523D01*
X152266200Y-63507523D02*
X152218580Y-63459904D01*
X152218580Y-63459904D02*
X152123342Y-63412285D01*
X152123342Y-63412285D02*
X151932866Y-63412285D01*
X151932866Y-63412285D02*
X151837628Y-63459904D01*
X151837628Y-63459904D02*
X151790009Y-63507523D01*
X151790009Y-63507523D02*
X151742390Y-63602761D01*
X152678333Y-78332819D02*
X152345000Y-77856628D01*
X152106905Y-78332819D02*
X152106905Y-77332819D01*
X152106905Y-77332819D02*
X152487857Y-77332819D01*
X152487857Y-77332819D02*
X152583095Y-77380438D01*
X152583095Y-77380438D02*
X152630714Y-77428057D01*
X152630714Y-77428057D02*
X152678333Y-77523295D01*
X152678333Y-77523295D02*
X152678333Y-77666152D01*
X152678333Y-77666152D02*
X152630714Y-77761390D01*
X152630714Y-77761390D02*
X152583095Y-77809009D01*
X152583095Y-77809009D02*
X152487857Y-77856628D01*
X152487857Y-77856628D02*
X152106905Y-77856628D01*
X153059286Y-77428057D02*
X153106905Y-77380438D01*
X153106905Y-77380438D02*
X153202143Y-77332819D01*
X153202143Y-77332819D02*
X153440238Y-77332819D01*
X153440238Y-77332819D02*
X153535476Y-77380438D01*
X153535476Y-77380438D02*
X153583095Y-77428057D01*
X153583095Y-77428057D02*
X153630714Y-77523295D01*
X153630714Y-77523295D02*
X153630714Y-77618533D01*
X153630714Y-77618533D02*
X153583095Y-77761390D01*
X153583095Y-77761390D02*
X153011667Y-78332819D01*
X153011667Y-78332819D02*
X153630714Y-78332819D01*
X174190476Y-109684819D02*
X174190476Y-110399104D01*
X174190476Y-110399104D02*
X174142857Y-110541961D01*
X174142857Y-110541961D02*
X174047619Y-110637200D01*
X174047619Y-110637200D02*
X173904762Y-110684819D01*
X173904762Y-110684819D02*
X173809524Y-110684819D01*
X175190476Y-110684819D02*
X174619048Y-110684819D01*
X174904762Y-110684819D02*
X174904762Y-109684819D01*
X174904762Y-109684819D02*
X174809524Y-109827676D01*
X174809524Y-109827676D02*
X174714286Y-109922914D01*
X174714286Y-109922914D02*
X174619048Y-109970533D01*
X175809524Y-109684819D02*
X175904762Y-109684819D01*
X175904762Y-109684819D02*
X176000000Y-109732438D01*
X176000000Y-109732438D02*
X176047619Y-109780057D01*
X176047619Y-109780057D02*
X176095238Y-109875295D01*
X176095238Y-109875295D02*
X176142857Y-110065771D01*
X176142857Y-110065771D02*
X176142857Y-110303866D01*
X176142857Y-110303866D02*
X176095238Y-110494342D01*
X176095238Y-110494342D02*
X176047619Y-110589580D01*
X176047619Y-110589580D02*
X176000000Y-110637200D01*
X176000000Y-110637200D02*
X175904762Y-110684819D01*
X175904762Y-110684819D02*
X175809524Y-110684819D01*
X175809524Y-110684819D02*
X175714286Y-110637200D01*
X175714286Y-110637200D02*
X175666667Y-110589580D01*
X175666667Y-110589580D02*
X175619048Y-110494342D01*
X175619048Y-110494342D02*
X175571429Y-110303866D01*
X175571429Y-110303866D02*
X175571429Y-110065771D01*
X175571429Y-110065771D02*
X175619048Y-109875295D01*
X175619048Y-109875295D02*
X175666667Y-109780057D01*
X175666667Y-109780057D02*
X175714286Y-109732438D01*
X175714286Y-109732438D02*
X175809524Y-109684819D01*
X200352819Y-74842666D02*
X199876628Y-75175999D01*
X200352819Y-75414094D02*
X199352819Y-75414094D01*
X199352819Y-75414094D02*
X199352819Y-75033142D01*
X199352819Y-75033142D02*
X199400438Y-74937904D01*
X199400438Y-74937904D02*
X199448057Y-74890285D01*
X199448057Y-74890285D02*
X199543295Y-74842666D01*
X199543295Y-74842666D02*
X199686152Y-74842666D01*
X199686152Y-74842666D02*
X199781390Y-74890285D01*
X199781390Y-74890285D02*
X199829009Y-74937904D01*
X199829009Y-74937904D02*
X199876628Y-75033142D01*
X199876628Y-75033142D02*
X199876628Y-75414094D01*
X199352819Y-73937904D02*
X199352819Y-74414094D01*
X199352819Y-74414094D02*
X199829009Y-74461713D01*
X199829009Y-74461713D02*
X199781390Y-74414094D01*
X199781390Y-74414094D02*
X199733771Y-74318856D01*
X199733771Y-74318856D02*
X199733771Y-74080761D01*
X199733771Y-74080761D02*
X199781390Y-73985523D01*
X199781390Y-73985523D02*
X199829009Y-73937904D01*
X199829009Y-73937904D02*
X199924247Y-73890285D01*
X199924247Y-73890285D02*
X200162342Y-73890285D01*
X200162342Y-73890285D02*
X200257580Y-73937904D01*
X200257580Y-73937904D02*
X200305200Y-73985523D01*
X200305200Y-73985523D02*
X200352819Y-74080761D01*
X200352819Y-74080761D02*
X200352819Y-74318856D01*
X200352819Y-74318856D02*
X200305200Y-74414094D01*
X200305200Y-74414094D02*
X200257580Y-74461713D01*
X167666666Y-109684819D02*
X167666666Y-110399104D01*
X167666666Y-110399104D02*
X167619047Y-110541961D01*
X167619047Y-110541961D02*
X167523809Y-110637200D01*
X167523809Y-110637200D02*
X167380952Y-110684819D01*
X167380952Y-110684819D02*
X167285714Y-110684819D01*
X168190476Y-110684819D02*
X168380952Y-110684819D01*
X168380952Y-110684819D02*
X168476190Y-110637200D01*
X168476190Y-110637200D02*
X168523809Y-110589580D01*
X168523809Y-110589580D02*
X168619047Y-110446723D01*
X168619047Y-110446723D02*
X168666666Y-110256247D01*
X168666666Y-110256247D02*
X168666666Y-109875295D01*
X168666666Y-109875295D02*
X168619047Y-109780057D01*
X168619047Y-109780057D02*
X168571428Y-109732438D01*
X168571428Y-109732438D02*
X168476190Y-109684819D01*
X168476190Y-109684819D02*
X168285714Y-109684819D01*
X168285714Y-109684819D02*
X168190476Y-109732438D01*
X168190476Y-109732438D02*
X168142857Y-109780057D01*
X168142857Y-109780057D02*
X168095238Y-109875295D01*
X168095238Y-109875295D02*
X168095238Y-110113390D01*
X168095238Y-110113390D02*
X168142857Y-110208628D01*
X168142857Y-110208628D02*
X168190476Y-110256247D01*
X168190476Y-110256247D02*
X168285714Y-110303866D01*
X168285714Y-110303866D02*
X168476190Y-110303866D01*
X168476190Y-110303866D02*
X168571428Y-110256247D01*
X168571428Y-110256247D02*
X168619047Y-110208628D01*
X168619047Y-110208628D02*
X168666666Y-110113390D01*
X123166666Y-69684819D02*
X123166666Y-70399104D01*
X123166666Y-70399104D02*
X123119047Y-70541961D01*
X123119047Y-70541961D02*
X123023809Y-70637200D01*
X123023809Y-70637200D02*
X122880952Y-70684819D01*
X122880952Y-70684819D02*
X122785714Y-70684819D01*
X123642857Y-70684819D02*
X123642857Y-69684819D01*
X123642857Y-69684819D02*
X124023809Y-69684819D01*
X124023809Y-69684819D02*
X124119047Y-69732438D01*
X124119047Y-69732438D02*
X124166666Y-69780057D01*
X124166666Y-69780057D02*
X124214285Y-69875295D01*
X124214285Y-69875295D02*
X124214285Y-70018152D01*
X124214285Y-70018152D02*
X124166666Y-70113390D01*
X124166666Y-70113390D02*
X124119047Y-70161009D01*
X124119047Y-70161009D02*
X124023809Y-70208628D01*
X124023809Y-70208628D02*
X123642857Y-70208628D01*
X125166666Y-70684819D02*
X124595238Y-70684819D01*
X124880952Y-70684819D02*
X124880952Y-69684819D01*
X124880952Y-69684819D02*
X124785714Y-69827676D01*
X124785714Y-69827676D02*
X124690476Y-69922914D01*
X124690476Y-69922914D02*
X124595238Y-69970533D01*
X203666666Y-93684819D02*
X203666666Y-94399104D01*
X203666666Y-94399104D02*
X203619047Y-94541961D01*
X203619047Y-94541961D02*
X203523809Y-94637200D01*
X203523809Y-94637200D02*
X203380952Y-94684819D01*
X203380952Y-94684819D02*
X203285714Y-94684819D01*
X204619047Y-93684819D02*
X204142857Y-93684819D01*
X204142857Y-93684819D02*
X204095238Y-94161009D01*
X204095238Y-94161009D02*
X204142857Y-94113390D01*
X204142857Y-94113390D02*
X204238095Y-94065771D01*
X204238095Y-94065771D02*
X204476190Y-94065771D01*
X204476190Y-94065771D02*
X204571428Y-94113390D01*
X204571428Y-94113390D02*
X204619047Y-94161009D01*
X204619047Y-94161009D02*
X204666666Y-94256247D01*
X204666666Y-94256247D02*
X204666666Y-94494342D01*
X204666666Y-94494342D02*
X204619047Y-94589580D01*
X204619047Y-94589580D02*
X204571428Y-94637200D01*
X204571428Y-94637200D02*
X204476190Y-94684819D01*
X204476190Y-94684819D02*
X204238095Y-94684819D01*
X204238095Y-94684819D02*
X204142857Y-94637200D01*
X204142857Y-94637200D02*
X204095238Y-94589580D01*
X123666666Y-81794819D02*
X123666666Y-82509104D01*
X123666666Y-82509104D02*
X123619047Y-82651961D01*
X123619047Y-82651961D02*
X123523809Y-82747200D01*
X123523809Y-82747200D02*
X123380952Y-82794819D01*
X123380952Y-82794819D02*
X123285714Y-82794819D01*
X124047619Y-81794819D02*
X124714285Y-81794819D01*
X124714285Y-81794819D02*
X124285714Y-82794819D01*
X156774142Y-73004819D02*
X156440809Y-72528628D01*
X156202714Y-73004819D02*
X156202714Y-72004819D01*
X156202714Y-72004819D02*
X156583666Y-72004819D01*
X156583666Y-72004819D02*
X156678904Y-72052438D01*
X156678904Y-72052438D02*
X156726523Y-72100057D01*
X156726523Y-72100057D02*
X156774142Y-72195295D01*
X156774142Y-72195295D02*
X156774142Y-72338152D01*
X156774142Y-72338152D02*
X156726523Y-72433390D01*
X156726523Y-72433390D02*
X156678904Y-72481009D01*
X156678904Y-72481009D02*
X156583666Y-72528628D01*
X156583666Y-72528628D02*
X156202714Y-72528628D01*
X157726523Y-73004819D02*
X157155095Y-73004819D01*
X157440809Y-73004819D02*
X157440809Y-72004819D01*
X157440809Y-72004819D02*
X157345571Y-72147676D01*
X157345571Y-72147676D02*
X157250333Y-72242914D01*
X157250333Y-72242914D02*
X157155095Y-72290533D01*
X158345571Y-72004819D02*
X158440809Y-72004819D01*
X158440809Y-72004819D02*
X158536047Y-72052438D01*
X158536047Y-72052438D02*
X158583666Y-72100057D01*
X158583666Y-72100057D02*
X158631285Y-72195295D01*
X158631285Y-72195295D02*
X158678904Y-72385771D01*
X158678904Y-72385771D02*
X158678904Y-72623866D01*
X158678904Y-72623866D02*
X158631285Y-72814342D01*
X158631285Y-72814342D02*
X158583666Y-72909580D01*
X158583666Y-72909580D02*
X158536047Y-72957200D01*
X158536047Y-72957200D02*
X158440809Y-73004819D01*
X158440809Y-73004819D02*
X158345571Y-73004819D01*
X158345571Y-73004819D02*
X158250333Y-72957200D01*
X158250333Y-72957200D02*
X158202714Y-72909580D01*
X158202714Y-72909580D02*
X158155095Y-72814342D01*
X158155095Y-72814342D02*
X158107476Y-72623866D01*
X158107476Y-72623866D02*
X158107476Y-72385771D01*
X158107476Y-72385771D02*
X158155095Y-72195295D01*
X158155095Y-72195295D02*
X158202714Y-72100057D01*
X158202714Y-72100057D02*
X158250333Y-72052438D01*
X158250333Y-72052438D02*
X158345571Y-72004819D01*
X140944476Y-108463819D02*
X141277809Y-109463819D01*
X141277809Y-109463819D02*
X141611142Y-108463819D01*
X142515904Y-109463819D02*
X142182571Y-108987628D01*
X141944476Y-109463819D02*
X141944476Y-108463819D01*
X141944476Y-108463819D02*
X142325428Y-108463819D01*
X142325428Y-108463819D02*
X142420666Y-108511438D01*
X142420666Y-108511438D02*
X142468285Y-108559057D01*
X142468285Y-108559057D02*
X142515904Y-108654295D01*
X142515904Y-108654295D02*
X142515904Y-108797152D01*
X142515904Y-108797152D02*
X142468285Y-108892390D01*
X142468285Y-108892390D02*
X142420666Y-108940009D01*
X142420666Y-108940009D02*
X142325428Y-108987628D01*
X142325428Y-108987628D02*
X141944476Y-108987628D01*
X143468285Y-109463819D02*
X142896857Y-109463819D01*
X143182571Y-109463819D02*
X143182571Y-108463819D01*
X143182571Y-108463819D02*
X143087333Y-108606676D01*
X143087333Y-108606676D02*
X142992095Y-108701914D01*
X142992095Y-108701914D02*
X142896857Y-108749533D01*
X122666666Y-53684819D02*
X122666666Y-54399104D01*
X122666666Y-54399104D02*
X122619047Y-54541961D01*
X122619047Y-54541961D02*
X122523809Y-54637200D01*
X122523809Y-54637200D02*
X122380952Y-54684819D01*
X122380952Y-54684819D02*
X122285714Y-54684819D01*
X123095238Y-53780057D02*
X123142857Y-53732438D01*
X123142857Y-53732438D02*
X123238095Y-53684819D01*
X123238095Y-53684819D02*
X123476190Y-53684819D01*
X123476190Y-53684819D02*
X123571428Y-53732438D01*
X123571428Y-53732438D02*
X123619047Y-53780057D01*
X123619047Y-53780057D02*
X123666666Y-53875295D01*
X123666666Y-53875295D02*
X123666666Y-53970533D01*
X123666666Y-53970533D02*
X123619047Y-54113390D01*
X123619047Y-54113390D02*
X123047619Y-54684819D01*
X123047619Y-54684819D02*
X123666666Y-54684819D01*
X122666666Y-93684819D02*
X122666666Y-94399104D01*
X122666666Y-94399104D02*
X122619047Y-94541961D01*
X122619047Y-94541961D02*
X122523809Y-94637200D01*
X122523809Y-94637200D02*
X122380952Y-94684819D01*
X122380952Y-94684819D02*
X122285714Y-94684819D01*
X123571428Y-94018152D02*
X123571428Y-94684819D01*
X123333333Y-93637200D02*
X123095238Y-94351485D01*
X123095238Y-94351485D02*
X123714285Y-94351485D01*
X203666666Y-53684819D02*
X203666666Y-54399104D01*
X203666666Y-54399104D02*
X203619047Y-54541961D01*
X203619047Y-54541961D02*
X203523809Y-54637200D01*
X203523809Y-54637200D02*
X203380952Y-54684819D01*
X203380952Y-54684819D02*
X203285714Y-54684819D01*
X204047619Y-53684819D02*
X204666666Y-53684819D01*
X204666666Y-53684819D02*
X204333333Y-54065771D01*
X204333333Y-54065771D02*
X204476190Y-54065771D01*
X204476190Y-54065771D02*
X204571428Y-54113390D01*
X204571428Y-54113390D02*
X204619047Y-54161009D01*
X204619047Y-54161009D02*
X204666666Y-54256247D01*
X204666666Y-54256247D02*
X204666666Y-54494342D01*
X204666666Y-54494342D02*
X204619047Y-54589580D01*
X204619047Y-54589580D02*
X204571428Y-54637200D01*
X204571428Y-54637200D02*
X204476190Y-54684819D01*
X204476190Y-54684819D02*
X204190476Y-54684819D01*
X204190476Y-54684819D02*
X204095238Y-54637200D01*
X204095238Y-54637200D02*
X204047619Y-54589580D01*
X160020095Y-68640819D02*
X160020095Y-69450342D01*
X160020095Y-69450342D02*
X160067714Y-69545580D01*
X160067714Y-69545580D02*
X160115333Y-69593200D01*
X160115333Y-69593200D02*
X160210571Y-69640819D01*
X160210571Y-69640819D02*
X160401047Y-69640819D01*
X160401047Y-69640819D02*
X160496285Y-69593200D01*
X160496285Y-69593200D02*
X160543904Y-69545580D01*
X160543904Y-69545580D02*
X160591523Y-69450342D01*
X160591523Y-69450342D02*
X160591523Y-68640819D01*
X160972476Y-68640819D02*
X161591523Y-68640819D01*
X161591523Y-68640819D02*
X161258190Y-69021771D01*
X161258190Y-69021771D02*
X161401047Y-69021771D01*
X161401047Y-69021771D02*
X161496285Y-69069390D01*
X161496285Y-69069390D02*
X161543904Y-69117009D01*
X161543904Y-69117009D02*
X161591523Y-69212247D01*
X161591523Y-69212247D02*
X161591523Y-69450342D01*
X161591523Y-69450342D02*
X161543904Y-69545580D01*
X161543904Y-69545580D02*
X161496285Y-69593200D01*
X161496285Y-69593200D02*
X161401047Y-69640819D01*
X161401047Y-69640819D02*
X161115333Y-69640819D01*
X161115333Y-69640819D02*
X161020095Y-69593200D01*
X161020095Y-69593200D02*
X160972476Y-69545580D01*
X119025819Y-114419333D02*
X119740104Y-114419333D01*
X119740104Y-114419333D02*
X119882961Y-114466952D01*
X119882961Y-114466952D02*
X119978200Y-114562190D01*
X119978200Y-114562190D02*
X120025819Y-114705047D01*
X120025819Y-114705047D02*
X120025819Y-114800285D01*
X120025819Y-113419333D02*
X120025819Y-113990761D01*
X120025819Y-113705047D02*
X119025819Y-113705047D01*
X119025819Y-113705047D02*
X119168676Y-113800285D01*
X119168676Y-113800285D02*
X119263914Y-113895523D01*
X119263914Y-113895523D02*
X119311533Y-113990761D01*
X123685700Y-121157428D02*
X123685700Y-120014571D01*
X123685700Y-108157428D02*
X123685700Y-107014571D01*
X124257128Y-107585999D02*
X123114271Y-107585999D01*
X155173819Y-67413666D02*
X154697628Y-67746999D01*
X155173819Y-67985094D02*
X154173819Y-67985094D01*
X154173819Y-67985094D02*
X154173819Y-67604142D01*
X154173819Y-67604142D02*
X154221438Y-67508904D01*
X154221438Y-67508904D02*
X154269057Y-67461285D01*
X154269057Y-67461285D02*
X154364295Y-67413666D01*
X154364295Y-67413666D02*
X154507152Y-67413666D01*
X154507152Y-67413666D02*
X154602390Y-67461285D01*
X154602390Y-67461285D02*
X154650009Y-67508904D01*
X154650009Y-67508904D02*
X154697628Y-67604142D01*
X154697628Y-67604142D02*
X154697628Y-67985094D01*
X155173819Y-66937475D02*
X155173819Y-66746999D01*
X155173819Y-66746999D02*
X155126200Y-66651761D01*
X155126200Y-66651761D02*
X155078580Y-66604142D01*
X155078580Y-66604142D02*
X154935723Y-66508904D01*
X154935723Y-66508904D02*
X154745247Y-66461285D01*
X154745247Y-66461285D02*
X154364295Y-66461285D01*
X154364295Y-66461285D02*
X154269057Y-66508904D01*
X154269057Y-66508904D02*
X154221438Y-66556523D01*
X154221438Y-66556523D02*
X154173819Y-66651761D01*
X154173819Y-66651761D02*
X154173819Y-66842237D01*
X154173819Y-66842237D02*
X154221438Y-66937475D01*
X154221438Y-66937475D02*
X154269057Y-66985094D01*
X154269057Y-66985094D02*
X154364295Y-67032713D01*
X154364295Y-67032713D02*
X154602390Y-67032713D01*
X154602390Y-67032713D02*
X154697628Y-66985094D01*
X154697628Y-66985094D02*
X154745247Y-66937475D01*
X154745247Y-66937475D02*
X154792866Y-66842237D01*
X154792866Y-66842237D02*
X154792866Y-66651761D01*
X154792866Y-66651761D02*
X154745247Y-66556523D01*
X154745247Y-66556523D02*
X154697628Y-66508904D01*
X154697628Y-66508904D02*
X154602390Y-66461285D01*
X202991905Y-87107819D02*
X202991905Y-86107819D01*
X202991905Y-86107819D02*
X203230000Y-86107819D01*
X203230000Y-86107819D02*
X203372857Y-86155438D01*
X203372857Y-86155438D02*
X203468095Y-86250676D01*
X203468095Y-86250676D02*
X203515714Y-86345914D01*
X203515714Y-86345914D02*
X203563333Y-86536390D01*
X203563333Y-86536390D02*
X203563333Y-86679247D01*
X203563333Y-86679247D02*
X203515714Y-86869723D01*
X203515714Y-86869723D02*
X203468095Y-86964961D01*
X203468095Y-86964961D02*
X203372857Y-87060200D01*
X203372857Y-87060200D02*
X203230000Y-87107819D01*
X203230000Y-87107819D02*
X202991905Y-87107819D01*
X203944286Y-86203057D02*
X203991905Y-86155438D01*
X203991905Y-86155438D02*
X204087143Y-86107819D01*
X204087143Y-86107819D02*
X204325238Y-86107819D01*
X204325238Y-86107819D02*
X204420476Y-86155438D01*
X204420476Y-86155438D02*
X204468095Y-86203057D01*
X204468095Y-86203057D02*
X204515714Y-86298295D01*
X204515714Y-86298295D02*
X204515714Y-86393533D01*
X204515714Y-86393533D02*
X204468095Y-86536390D01*
X204468095Y-86536390D02*
X203896667Y-87107819D01*
X203896667Y-87107819D02*
X204515714Y-87107819D01*
X160401095Y-83020819D02*
X160401095Y-83830342D01*
X160401095Y-83830342D02*
X160448714Y-83925580D01*
X160448714Y-83925580D02*
X160496333Y-83973200D01*
X160496333Y-83973200D02*
X160591571Y-84020819D01*
X160591571Y-84020819D02*
X160782047Y-84020819D01*
X160782047Y-84020819D02*
X160877285Y-83973200D01*
X160877285Y-83973200D02*
X160924904Y-83925580D01*
X160924904Y-83925580D02*
X160972523Y-83830342D01*
X160972523Y-83830342D02*
X160972523Y-83020819D01*
X161401095Y-83116057D02*
X161448714Y-83068438D01*
X161448714Y-83068438D02*
X161543952Y-83020819D01*
X161543952Y-83020819D02*
X161782047Y-83020819D01*
X161782047Y-83020819D02*
X161877285Y-83068438D01*
X161877285Y-83068438D02*
X161924904Y-83116057D01*
X161924904Y-83116057D02*
X161972523Y-83211295D01*
X161972523Y-83211295D02*
X161972523Y-83306533D01*
X161972523Y-83306533D02*
X161924904Y-83449390D01*
X161924904Y-83449390D02*
X161353476Y-84020819D01*
X161353476Y-84020819D02*
X161972523Y-84020819D01*
X159213550Y-80547219D02*
X159213550Y-80785314D01*
X158975455Y-80690076D02*
X159213550Y-80785314D01*
X159213550Y-80785314D02*
X159451645Y-80690076D01*
X159070693Y-80975790D02*
X159213550Y-80785314D01*
X159213550Y-80785314D02*
X159356407Y-80975790D01*
X160666666Y-109684819D02*
X160666666Y-110399104D01*
X160666666Y-110399104D02*
X160619047Y-110541961D01*
X160619047Y-110541961D02*
X160523809Y-110637200D01*
X160523809Y-110637200D02*
X160380952Y-110684819D01*
X160380952Y-110684819D02*
X160285714Y-110684819D01*
X161285714Y-110113390D02*
X161190476Y-110065771D01*
X161190476Y-110065771D02*
X161142857Y-110018152D01*
X161142857Y-110018152D02*
X161095238Y-109922914D01*
X161095238Y-109922914D02*
X161095238Y-109875295D01*
X161095238Y-109875295D02*
X161142857Y-109780057D01*
X161142857Y-109780057D02*
X161190476Y-109732438D01*
X161190476Y-109732438D02*
X161285714Y-109684819D01*
X161285714Y-109684819D02*
X161476190Y-109684819D01*
X161476190Y-109684819D02*
X161571428Y-109732438D01*
X161571428Y-109732438D02*
X161619047Y-109780057D01*
X161619047Y-109780057D02*
X161666666Y-109875295D01*
X161666666Y-109875295D02*
X161666666Y-109922914D01*
X161666666Y-109922914D02*
X161619047Y-110018152D01*
X161619047Y-110018152D02*
X161571428Y-110065771D01*
X161571428Y-110065771D02*
X161476190Y-110113390D01*
X161476190Y-110113390D02*
X161285714Y-110113390D01*
X161285714Y-110113390D02*
X161190476Y-110161009D01*
X161190476Y-110161009D02*
X161142857Y-110208628D01*
X161142857Y-110208628D02*
X161095238Y-110303866D01*
X161095238Y-110303866D02*
X161095238Y-110494342D01*
X161095238Y-110494342D02*
X161142857Y-110589580D01*
X161142857Y-110589580D02*
X161190476Y-110637200D01*
X161190476Y-110637200D02*
X161285714Y-110684819D01*
X161285714Y-110684819D02*
X161476190Y-110684819D01*
X161476190Y-110684819D02*
X161571428Y-110637200D01*
X161571428Y-110637200D02*
X161619047Y-110589580D01*
X161619047Y-110589580D02*
X161666666Y-110494342D01*
X161666666Y-110494342D02*
X161666666Y-110303866D01*
X161666666Y-110303866D02*
X161619047Y-110208628D01*
X161619047Y-110208628D02*
X161571428Y-110161009D01*
X161571428Y-110161009D02*
X161476190Y-110113390D01*
X155078580Y-70511666D02*
X155126200Y-70559285D01*
X155126200Y-70559285D02*
X155173819Y-70702142D01*
X155173819Y-70702142D02*
X155173819Y-70797380D01*
X155173819Y-70797380D02*
X155126200Y-70940237D01*
X155126200Y-70940237D02*
X155030961Y-71035475D01*
X155030961Y-71035475D02*
X154935723Y-71083094D01*
X154935723Y-71083094D02*
X154745247Y-71130713D01*
X154745247Y-71130713D02*
X154602390Y-71130713D01*
X154602390Y-71130713D02*
X154411914Y-71083094D01*
X154411914Y-71083094D02*
X154316676Y-71035475D01*
X154316676Y-71035475D02*
X154221438Y-70940237D01*
X154221438Y-70940237D02*
X154173819Y-70797380D01*
X154173819Y-70797380D02*
X154173819Y-70702142D01*
X154173819Y-70702142D02*
X154221438Y-70559285D01*
X154221438Y-70559285D02*
X154269057Y-70511666D01*
X154173819Y-69606904D02*
X154173819Y-70083094D01*
X154173819Y-70083094D02*
X154650009Y-70130713D01*
X154650009Y-70130713D02*
X154602390Y-70083094D01*
X154602390Y-70083094D02*
X154554771Y-69987856D01*
X154554771Y-69987856D02*
X154554771Y-69749761D01*
X154554771Y-69749761D02*
X154602390Y-69654523D01*
X154602390Y-69654523D02*
X154650009Y-69606904D01*
X154650009Y-69606904D02*
X154745247Y-69559285D01*
X154745247Y-69559285D02*
X154983342Y-69559285D01*
X154983342Y-69559285D02*
X155078580Y-69606904D01*
X155078580Y-69606904D02*
X155126200Y-69654523D01*
X155126200Y-69654523D02*
X155173819Y-69749761D01*
X155173819Y-69749761D02*
X155173819Y-69987856D01*
X155173819Y-69987856D02*
X155126200Y-70083094D01*
X155126200Y-70083094D02*
X155078580Y-70130713D01*
X207964819Y-113363333D02*
X208679104Y-113363333D01*
X208679104Y-113363333D02*
X208821961Y-113410952D01*
X208821961Y-113410952D02*
X208917200Y-113506190D01*
X208917200Y-113506190D02*
X208964819Y-113649047D01*
X208964819Y-113649047D02*
X208964819Y-113744285D01*
X207964819Y-112458571D02*
X207964819Y-112649047D01*
X207964819Y-112649047D02*
X208012438Y-112744285D01*
X208012438Y-112744285D02*
X208060057Y-112791904D01*
X208060057Y-112791904D02*
X208202914Y-112887142D01*
X208202914Y-112887142D02*
X208393390Y-112934761D01*
X208393390Y-112934761D02*
X208774342Y-112934761D01*
X208774342Y-112934761D02*
X208869580Y-112887142D01*
X208869580Y-112887142D02*
X208917200Y-112839523D01*
X208917200Y-112839523D02*
X208964819Y-112744285D01*
X208964819Y-112744285D02*
X208964819Y-112553809D01*
X208964819Y-112553809D02*
X208917200Y-112458571D01*
X208917200Y-112458571D02*
X208869580Y-112410952D01*
X208869580Y-112410952D02*
X208774342Y-112363333D01*
X208774342Y-112363333D02*
X208536247Y-112363333D01*
X208536247Y-112363333D02*
X208441009Y-112410952D01*
X208441009Y-112410952D02*
X208393390Y-112458571D01*
X208393390Y-112458571D02*
X208345771Y-112553809D01*
X208345771Y-112553809D02*
X208345771Y-112744285D01*
X208345771Y-112744285D02*
X208393390Y-112839523D01*
X208393390Y-112839523D02*
X208441009Y-112887142D01*
X208441009Y-112887142D02*
X208536247Y-112934761D01*
X203941819Y-89256666D02*
X203465628Y-89589999D01*
X203941819Y-89828094D02*
X202941819Y-89828094D01*
X202941819Y-89828094D02*
X202941819Y-89447142D01*
X202941819Y-89447142D02*
X202989438Y-89351904D01*
X202989438Y-89351904D02*
X203037057Y-89304285D01*
X203037057Y-89304285D02*
X203132295Y-89256666D01*
X203132295Y-89256666D02*
X203275152Y-89256666D01*
X203275152Y-89256666D02*
X203370390Y-89304285D01*
X203370390Y-89304285D02*
X203418009Y-89351904D01*
X203418009Y-89351904D02*
X203465628Y-89447142D01*
X203465628Y-89447142D02*
X203465628Y-89828094D01*
X202941819Y-88399523D02*
X202941819Y-88589999D01*
X202941819Y-88589999D02*
X202989438Y-88685237D01*
X202989438Y-88685237D02*
X203037057Y-88732856D01*
X203037057Y-88732856D02*
X203179914Y-88828094D01*
X203179914Y-88828094D02*
X203370390Y-88875713D01*
X203370390Y-88875713D02*
X203751342Y-88875713D01*
X203751342Y-88875713D02*
X203846580Y-88828094D01*
X203846580Y-88828094D02*
X203894200Y-88780475D01*
X203894200Y-88780475D02*
X203941819Y-88685237D01*
X203941819Y-88685237D02*
X203941819Y-88494761D01*
X203941819Y-88494761D02*
X203894200Y-88399523D01*
X203894200Y-88399523D02*
X203846580Y-88351904D01*
X203846580Y-88351904D02*
X203751342Y-88304285D01*
X203751342Y-88304285D02*
X203513247Y-88304285D01*
X203513247Y-88304285D02*
X203418009Y-88351904D01*
X203418009Y-88351904D02*
X203370390Y-88399523D01*
X203370390Y-88399523D02*
X203322771Y-88494761D01*
X203322771Y-88494761D02*
X203322771Y-88685237D01*
X203322771Y-88685237D02*
X203370390Y-88780475D01*
X203370390Y-88780475D02*
X203418009Y-88828094D01*
X203418009Y-88828094D02*
X203513247Y-88875713D01*
X203096905Y-72336819D02*
X203096905Y-71336819D01*
X203096905Y-71336819D02*
X203335000Y-71336819D01*
X203335000Y-71336819D02*
X203477857Y-71384438D01*
X203477857Y-71384438D02*
X203573095Y-71479676D01*
X203573095Y-71479676D02*
X203620714Y-71574914D01*
X203620714Y-71574914D02*
X203668333Y-71765390D01*
X203668333Y-71765390D02*
X203668333Y-71908247D01*
X203668333Y-71908247D02*
X203620714Y-72098723D01*
X203620714Y-72098723D02*
X203573095Y-72193961D01*
X203573095Y-72193961D02*
X203477857Y-72289200D01*
X203477857Y-72289200D02*
X203335000Y-72336819D01*
X203335000Y-72336819D02*
X203096905Y-72336819D01*
X204620714Y-72336819D02*
X204049286Y-72336819D01*
X204335000Y-72336819D02*
X204335000Y-71336819D01*
X204335000Y-71336819D02*
X204239762Y-71479676D01*
X204239762Y-71479676D02*
X204144524Y-71574914D01*
X204144524Y-71574914D02*
X204049286Y-71622533D01*
X157313333Y-78591580D02*
X157265714Y-78639200D01*
X157265714Y-78639200D02*
X157122857Y-78686819D01*
X157122857Y-78686819D02*
X157027619Y-78686819D01*
X157027619Y-78686819D02*
X156884762Y-78639200D01*
X156884762Y-78639200D02*
X156789524Y-78543961D01*
X156789524Y-78543961D02*
X156741905Y-78448723D01*
X156741905Y-78448723D02*
X156694286Y-78258247D01*
X156694286Y-78258247D02*
X156694286Y-78115390D01*
X156694286Y-78115390D02*
X156741905Y-77924914D01*
X156741905Y-77924914D02*
X156789524Y-77829676D01*
X156789524Y-77829676D02*
X156884762Y-77734438D01*
X156884762Y-77734438D02*
X157027619Y-77686819D01*
X157027619Y-77686819D02*
X157122857Y-77686819D01*
X157122857Y-77686819D02*
X157265714Y-77734438D01*
X157265714Y-77734438D02*
X157313333Y-77782057D01*
X157646667Y-77686819D02*
X158265714Y-77686819D01*
X158265714Y-77686819D02*
X157932381Y-78067771D01*
X157932381Y-78067771D02*
X158075238Y-78067771D01*
X158075238Y-78067771D02*
X158170476Y-78115390D01*
X158170476Y-78115390D02*
X158218095Y-78163009D01*
X158218095Y-78163009D02*
X158265714Y-78258247D01*
X158265714Y-78258247D02*
X158265714Y-78496342D01*
X158265714Y-78496342D02*
X158218095Y-78591580D01*
X158218095Y-78591580D02*
X158170476Y-78639200D01*
X158170476Y-78639200D02*
X158075238Y-78686819D01*
X158075238Y-78686819D02*
X157789524Y-78686819D01*
X157789524Y-78686819D02*
X157694286Y-78639200D01*
X157694286Y-78639200D02*
X157646667Y-78591580D01*
X137297580Y-113798666D02*
X137345200Y-113846285D01*
X137345200Y-113846285D02*
X137392819Y-113989142D01*
X137392819Y-113989142D02*
X137392819Y-114084380D01*
X137392819Y-114084380D02*
X137345200Y-114227237D01*
X137345200Y-114227237D02*
X137249961Y-114322475D01*
X137249961Y-114322475D02*
X137154723Y-114370094D01*
X137154723Y-114370094D02*
X136964247Y-114417713D01*
X136964247Y-114417713D02*
X136821390Y-114417713D01*
X136821390Y-114417713D02*
X136630914Y-114370094D01*
X136630914Y-114370094D02*
X136535676Y-114322475D01*
X136535676Y-114322475D02*
X136440438Y-114227237D01*
X136440438Y-114227237D02*
X136392819Y-114084380D01*
X136392819Y-114084380D02*
X136392819Y-113989142D01*
X136392819Y-113989142D02*
X136440438Y-113846285D01*
X136440438Y-113846285D02*
X136488057Y-113798666D01*
X137392819Y-112846285D02*
X137392819Y-113417713D01*
X137392819Y-113131999D02*
X136392819Y-113131999D01*
X136392819Y-113131999D02*
X136535676Y-113227237D01*
X136535676Y-113227237D02*
X136630914Y-113322475D01*
X136630914Y-113322475D02*
X136678533Y-113417713D01*
X147553819Y-84334857D02*
X147077628Y-84668190D01*
X147553819Y-84906285D02*
X146553819Y-84906285D01*
X146553819Y-84906285D02*
X146553819Y-84525333D01*
X146553819Y-84525333D02*
X146601438Y-84430095D01*
X146601438Y-84430095D02*
X146649057Y-84382476D01*
X146649057Y-84382476D02*
X146744295Y-84334857D01*
X146744295Y-84334857D02*
X146887152Y-84334857D01*
X146887152Y-84334857D02*
X146982390Y-84382476D01*
X146982390Y-84382476D02*
X147030009Y-84430095D01*
X147030009Y-84430095D02*
X147077628Y-84525333D01*
X147077628Y-84525333D02*
X147077628Y-84906285D01*
X147553819Y-83382476D02*
X147553819Y-83953904D01*
X147553819Y-83668190D02*
X146553819Y-83668190D01*
X146553819Y-83668190D02*
X146696676Y-83763428D01*
X146696676Y-83763428D02*
X146791914Y-83858666D01*
X146791914Y-83858666D02*
X146839533Y-83953904D01*
X146649057Y-83001523D02*
X146601438Y-82953904D01*
X146601438Y-82953904D02*
X146553819Y-82858666D01*
X146553819Y-82858666D02*
X146553819Y-82620571D01*
X146553819Y-82620571D02*
X146601438Y-82525333D01*
X146601438Y-82525333D02*
X146649057Y-82477714D01*
X146649057Y-82477714D02*
X146744295Y-82430095D01*
X146744295Y-82430095D02*
X146839533Y-82430095D01*
X146839533Y-82430095D02*
X146982390Y-82477714D01*
X146982390Y-82477714D02*
X147553819Y-83049142D01*
X147553819Y-83049142D02*
X147553819Y-82430095D01*
X152678333Y-86052819D02*
X152345000Y-85576628D01*
X152106905Y-86052819D02*
X152106905Y-85052819D01*
X152106905Y-85052819D02*
X152487857Y-85052819D01*
X152487857Y-85052819D02*
X152583095Y-85100438D01*
X152583095Y-85100438D02*
X152630714Y-85148057D01*
X152630714Y-85148057D02*
X152678333Y-85243295D01*
X152678333Y-85243295D02*
X152678333Y-85386152D01*
X152678333Y-85386152D02*
X152630714Y-85481390D01*
X152630714Y-85481390D02*
X152583095Y-85529009D01*
X152583095Y-85529009D02*
X152487857Y-85576628D01*
X152487857Y-85576628D02*
X152106905Y-85576628D01*
X153535476Y-85386152D02*
X153535476Y-86052819D01*
X153297381Y-85005200D02*
X153059286Y-85719485D01*
X153059286Y-85719485D02*
X153678333Y-85719485D01*
X150074333Y-82369819D02*
X149741000Y-81893628D01*
X149502905Y-82369819D02*
X149502905Y-81369819D01*
X149502905Y-81369819D02*
X149883857Y-81369819D01*
X149883857Y-81369819D02*
X149979095Y-81417438D01*
X149979095Y-81417438D02*
X150026714Y-81465057D01*
X150026714Y-81465057D02*
X150074333Y-81560295D01*
X150074333Y-81560295D02*
X150074333Y-81703152D01*
X150074333Y-81703152D02*
X150026714Y-81798390D01*
X150026714Y-81798390D02*
X149979095Y-81846009D01*
X149979095Y-81846009D02*
X149883857Y-81893628D01*
X149883857Y-81893628D02*
X149502905Y-81893628D01*
X150407667Y-81369819D02*
X151026714Y-81369819D01*
X151026714Y-81369819D02*
X150693381Y-81750771D01*
X150693381Y-81750771D02*
X150836238Y-81750771D01*
X150836238Y-81750771D02*
X150931476Y-81798390D01*
X150931476Y-81798390D02*
X150979095Y-81846009D01*
X150979095Y-81846009D02*
X151026714Y-81941247D01*
X151026714Y-81941247D02*
X151026714Y-82179342D01*
X151026714Y-82179342D02*
X150979095Y-82274580D01*
X150979095Y-82274580D02*
X150931476Y-82322200D01*
X150931476Y-82322200D02*
X150836238Y-82369819D01*
X150836238Y-82369819D02*
X150550524Y-82369819D01*
X150550524Y-82369819D02*
X150455286Y-82322200D01*
X150455286Y-82322200D02*
X150407667Y-82274580D01*
X147407333Y-106786819D02*
X147074000Y-106310628D01*
X146835905Y-106786819D02*
X146835905Y-105786819D01*
X146835905Y-105786819D02*
X147216857Y-105786819D01*
X147216857Y-105786819D02*
X147312095Y-105834438D01*
X147312095Y-105834438D02*
X147359714Y-105882057D01*
X147359714Y-105882057D02*
X147407333Y-105977295D01*
X147407333Y-105977295D02*
X147407333Y-106120152D01*
X147407333Y-106120152D02*
X147359714Y-106215390D01*
X147359714Y-106215390D02*
X147312095Y-106263009D01*
X147312095Y-106263009D02*
X147216857Y-106310628D01*
X147216857Y-106310628D02*
X146835905Y-106310628D01*
X148359714Y-106786819D02*
X147788286Y-106786819D01*
X148074000Y-106786819D02*
X148074000Y-105786819D01*
X148074000Y-105786819D02*
X147978762Y-105929676D01*
X147978762Y-105929676D02*
X147883524Y-106024914D01*
X147883524Y-106024914D02*
X147788286Y-106072533D01*
X145820333Y-64048819D02*
X145487000Y-63572628D01*
X145248905Y-64048819D02*
X145248905Y-63048819D01*
X145248905Y-63048819D02*
X145629857Y-63048819D01*
X145629857Y-63048819D02*
X145725095Y-63096438D01*
X145725095Y-63096438D02*
X145772714Y-63144057D01*
X145772714Y-63144057D02*
X145820333Y-63239295D01*
X145820333Y-63239295D02*
X145820333Y-63382152D01*
X145820333Y-63382152D02*
X145772714Y-63477390D01*
X145772714Y-63477390D02*
X145725095Y-63525009D01*
X145725095Y-63525009D02*
X145629857Y-63572628D01*
X145629857Y-63572628D02*
X145248905Y-63572628D01*
X146153667Y-63048819D02*
X146820333Y-63048819D01*
X146820333Y-63048819D02*
X146391762Y-64048819D01*
D11*
%TO.C,U1*%
X190628000Y-56896000D02*
G75*
G03*
X190628000Y-56896000I-100000J0D01*
G01*
X129668000Y-56896000D02*
G75*
G03*
X129668000Y-56896000I-100000J0D01*
G01*
D12*
X196568000Y-105656000D02*
G75*
G03*
X198068000Y-104156000I0J1500000D01*
G01*
X128068000Y-104156000D02*
G75*
G03*
X129568000Y-105656000I1500001J1D01*
G01*
X197993000Y-52436000D02*
X198068000Y-104156000D01*
X196568000Y-105656000D02*
X176068000Y-105656000D01*
X196048000Y-103886000D02*
X196048000Y-55626000D01*
X196048000Y-55626000D02*
X191048000Y-55626000D01*
X191048000Y-103886000D02*
X196048000Y-103886000D01*
X191048000Y-55626000D02*
X191048000Y-103886000D01*
X176068000Y-105656000D02*
X174068000Y-107656000D01*
X174068000Y-107656000D02*
X141068000Y-107656000D01*
X141068000Y-107656000D02*
X139068000Y-105656000D01*
X139068000Y-105656000D02*
X129568000Y-105656000D01*
X135088000Y-103886000D02*
X135088000Y-55626000D01*
X135088000Y-55626000D02*
X130088000Y-55626000D01*
X130088000Y-103886000D02*
X135088000Y-103886000D01*
X130088000Y-55626000D02*
X130088000Y-103886000D01*
X128068000Y-104156000D02*
X128068000Y-51166000D01*
D13*
%TO.C,J11*%
X132100000Y-122742000D02*
X134700000Y-122742000D01*
X132100000Y-120082000D02*
X134700000Y-120082000D01*
X132100000Y-122742000D02*
X132100000Y-120082000D01*
X129500000Y-121412000D02*
X129500000Y-120082000D01*
X129500000Y-120082000D02*
X130830000Y-120082000D01*
X134700000Y-122742000D02*
X134700000Y-120082000D01*
%TO.C,C4*%
X152779000Y-61240580D02*
X152779000Y-60959420D01*
X153799000Y-61240580D02*
X153799000Y-60959420D01*
%TO.C,C2*%
X159993420Y-75055000D02*
X160274580Y-75055000D01*
X159993420Y-76075000D02*
X160274580Y-76075000D01*
%TO.C,R11*%
X146191500Y-86439742D02*
X146191500Y-86914258D01*
X145146500Y-86439742D02*
X145146500Y-86914258D01*
%TO.C,R8*%
X152766500Y-64435258D02*
X152766500Y-63960742D01*
X153811500Y-64435258D02*
X153811500Y-63960742D01*
%TO.C,R2*%
X152607742Y-78785500D02*
X153082258Y-78785500D01*
X152607742Y-79830500D02*
X153082258Y-79830500D01*
%TO.C,J10*%
X173670000Y-114270000D02*
X173670000Y-121950000D01*
X173670000Y-114270000D02*
X176330000Y-114270000D01*
X173670000Y-121950000D02*
X176330000Y-121950000D01*
X175000000Y-111670000D02*
X176330000Y-111670000D01*
X176330000Y-111670000D02*
X176330000Y-113000000D01*
X176330000Y-114270000D02*
X176330000Y-121950000D01*
%TO.C,R5*%
X200420500Y-76978742D02*
X200420500Y-77453258D01*
X199375500Y-76978742D02*
X199375500Y-77453258D01*
%TO.C,J9*%
X166670000Y-114270000D02*
X166670000Y-121950000D01*
X166670000Y-114270000D02*
X169330000Y-114270000D01*
X166670000Y-121950000D02*
X169330000Y-121950000D01*
X168000000Y-111670000D02*
X169330000Y-111670000D01*
X169330000Y-111670000D02*
X169330000Y-113000000D01*
X169330000Y-114270000D02*
X169330000Y-121950000D01*
%TO.C,JP1*%
X125330000Y-74270000D02*
X125330000Y-76870000D01*
X125330000Y-71670000D02*
X125330000Y-73000000D01*
X124000000Y-71670000D02*
X125330000Y-71670000D01*
X122670000Y-76870000D02*
X125330000Y-76870000D01*
X122670000Y-74270000D02*
X125330000Y-74270000D01*
X122670000Y-74270000D02*
X122670000Y-76870000D01*
%TO.C,J5*%
X202670000Y-98270000D02*
X202670000Y-103410000D01*
X202670000Y-98270000D02*
X205330000Y-98270000D01*
X202670000Y-103410000D02*
X205330000Y-103410000D01*
X204000000Y-95670000D02*
X205330000Y-95670000D01*
X205330000Y-95670000D02*
X205330000Y-97000000D01*
X205330000Y-98270000D02*
X205330000Y-103410000D01*
%TO.C,J7*%
X125330000Y-86380000D02*
X125330000Y-88980000D01*
X125330000Y-83780000D02*
X125330000Y-85110000D01*
X124000000Y-83780000D02*
X125330000Y-83780000D01*
X122670000Y-88980000D02*
X125330000Y-88980000D01*
X122670000Y-86380000D02*
X125330000Y-86380000D01*
X122670000Y-86380000D02*
X122670000Y-88980000D01*
%TO.C,R10*%
X157654258Y-71642500D02*
X157179742Y-71642500D01*
X157654258Y-70597500D02*
X157179742Y-70597500D01*
D12*
%TO.C,VR1*%
X138939000Y-110364000D02*
X138939000Y-123064000D01*
X138939000Y-123064000D02*
X154179000Y-123064000D01*
X154179000Y-110364000D02*
X138939000Y-110364000D01*
X154179000Y-123064000D02*
X154179000Y-110364000D01*
D11*
X138059000Y-113064000D02*
G75*
G03*
X138059000Y-113064000I-100000J0D01*
G01*
D13*
%TO.C,J2*%
X121670000Y-58270000D02*
X121670000Y-63410000D01*
X121670000Y-58270000D02*
X124330000Y-58270000D01*
X121670000Y-63410000D02*
X124330000Y-63410000D01*
X123000000Y-55670000D02*
X124330000Y-55670000D01*
X124330000Y-55670000D02*
X124330000Y-57000000D01*
X124330000Y-58270000D02*
X124330000Y-63410000D01*
%TO.C,J4*%
X121670000Y-98270000D02*
X121670000Y-103410000D01*
X121670000Y-98270000D02*
X124330000Y-98270000D01*
X121670000Y-103410000D02*
X124330000Y-103410000D01*
X123000000Y-95670000D02*
X124330000Y-95670000D01*
X124330000Y-95670000D02*
X124330000Y-97000000D01*
X124330000Y-98270000D02*
X124330000Y-103410000D01*
%TO.C,J3*%
X202670000Y-58270000D02*
X202670000Y-63410000D01*
X202670000Y-58270000D02*
X205330000Y-58270000D01*
X202670000Y-63410000D02*
X205330000Y-63410000D01*
X204000000Y-55670000D02*
X205330000Y-55670000D01*
X205330000Y-55670000D02*
X205330000Y-57000000D01*
X205330000Y-58270000D02*
X205330000Y-63410000D01*
%TO.C,U3*%
X160782000Y-68346000D02*
X164232000Y-68346000D01*
X160782000Y-68346000D02*
X158832000Y-68346000D01*
X160782000Y-63226000D02*
X162732000Y-63226000D01*
X160782000Y-63226000D02*
X158832000Y-63226000D01*
%TO.C,J1*%
X122161000Y-119296000D02*
X124981000Y-119296000D01*
X122161000Y-119296000D02*
X120861000Y-117596000D01*
X124981000Y-119296000D02*
X126281000Y-117596000D01*
X120861000Y-117596000D02*
X120861000Y-108876000D01*
X126281000Y-117596000D02*
X126281000Y-108876000D01*
X120861000Y-108876000D02*
X126281000Y-108876000D01*
%TO.C,R9*%
X153811500Y-67009742D02*
X153811500Y-67484258D01*
X152766500Y-67009742D02*
X152766500Y-67484258D01*
%TO.C,D2*%
X205289999Y-82457485D02*
G75*
G03*
X202057666Y-82614392I-1559999J-1235515D01*
G01*
X204770960Y-82613001D02*
G75*
G03*
X202688871Y-82613164I-1040960J-1079999D01*
G01*
X202688871Y-84772836D02*
G75*
G03*
X204770960Y-84772999I1041129J1079836D01*
G01*
X202057666Y-84771608D02*
G75*
G03*
X205289999Y-84928515I1672334J1078608D01*
G01*
X205290000Y-82613000D02*
X205290000Y-82457000D01*
X205290000Y-84929000D02*
X205290000Y-84773000D01*
D14*
%TO.C,U2*%
X159715200Y-85140800D02*
X162610800Y-85140800D01*
X162610800Y-81991200D02*
X159715200Y-81991200D01*
X160858200Y-81991200D02*
G75*
G03*
X161467800Y-81991200I304800J0D01*
G01*
D13*
%TO.C,J8*%
X159670000Y-114270000D02*
X159670000Y-121950000D01*
X159670000Y-114270000D02*
X162330000Y-114270000D01*
X159670000Y-121950000D02*
X162330000Y-121950000D01*
X161000000Y-111670000D02*
X162330000Y-111670000D01*
X162330000Y-111670000D02*
X162330000Y-113000000D01*
X162330000Y-114270000D02*
X162330000Y-121950000D01*
%TO.C,C5*%
X153799000Y-70204420D02*
X153799000Y-70485580D01*
X152779000Y-70204420D02*
X152779000Y-70485580D01*
%TO.C,J6*%
X204470000Y-111700000D02*
X181550000Y-111700000D01*
X204470000Y-111700000D02*
X204470000Y-114360000D01*
X181550000Y-111700000D02*
X181550000Y-114360000D01*
X207070000Y-113030000D02*
X207070000Y-114360000D01*
X207070000Y-114360000D02*
X205740000Y-114360000D01*
X204470000Y-114360000D02*
X181550000Y-114360000D01*
%TO.C,R6*%
X202579500Y-88852742D02*
X202579500Y-89327258D01*
X201534500Y-88852742D02*
X201534500Y-89327258D01*
%TO.C,D1*%
X205289999Y-75218485D02*
G75*
G03*
X202057666Y-75375392I-1559999J-1235515D01*
G01*
X204770960Y-75374001D02*
G75*
G03*
X202688871Y-75374164I-1040960J-1079999D01*
G01*
X202688871Y-77533836D02*
G75*
G03*
X204770960Y-77533999I1041129J1079836D01*
G01*
X202057666Y-77532608D02*
G75*
G03*
X205289999Y-77689515I1672334J1078608D01*
G01*
X205290000Y-75374000D02*
X205290000Y-75218000D01*
X205290000Y-77690000D02*
X205290000Y-77534000D01*
%TO.C,C3*%
X159993420Y-77565000D02*
X160274580Y-77565000D01*
X159993420Y-78585000D02*
X160274580Y-78585000D01*
%TO.C,C1*%
X129178000Y-117042000D02*
X131528000Y-117042000D01*
X135998000Y-117042000D02*
X133648000Y-117042000D01*
X129178000Y-111286437D02*
X129178000Y-117042000D01*
X135998000Y-111286437D02*
X135998000Y-117042000D01*
X130242437Y-110222000D02*
X129178000Y-111286437D01*
X130242437Y-110222000D02*
X131528000Y-110222000D01*
X134933563Y-110222000D02*
X135998000Y-111286437D01*
X134933563Y-110222000D02*
X133648000Y-110222000D01*
X134829250Y-109588250D02*
X134041750Y-109588250D01*
X134435500Y-109194500D02*
X134435500Y-109982000D01*
%TO.C,R12*%
X146191500Y-83454742D02*
X146191500Y-83929258D01*
X145146500Y-83454742D02*
X145146500Y-83929258D01*
%TO.C,R4*%
X152607742Y-84596500D02*
X153082258Y-84596500D01*
X152607742Y-83551500D02*
X153082258Y-83551500D01*
%TO.C,R3*%
X152607742Y-81295500D02*
X153082258Y-81295500D01*
X152607742Y-82340500D02*
X153082258Y-82340500D01*
%TO.C,R1*%
X147811258Y-105424500D02*
X147336742Y-105424500D01*
X147811258Y-104379500D02*
X147336742Y-104379500D01*
%TO.C,R7*%
X145749742Y-64501500D02*
X146224258Y-64501500D01*
X145749742Y-65546500D02*
X146224258Y-65546500D01*
%TD*%
%LPC*%
D15*
%TO.C,U1*%
X194818000Y-102616000D03*
X192278000Y-102616000D03*
X194818000Y-100076000D03*
X192278000Y-100076000D03*
X194818000Y-97536000D03*
X192278000Y-97536000D03*
X194818000Y-94996000D03*
X192278000Y-94996000D03*
X194818000Y-92456000D03*
X192278000Y-92456000D03*
X194818000Y-89916000D03*
X192278000Y-89916000D03*
X194818000Y-87376000D03*
X192278000Y-87376000D03*
X194818000Y-84836000D03*
X192278000Y-84836000D03*
X194818000Y-82296000D03*
X192278000Y-82296000D03*
X194818000Y-79756000D03*
X192278000Y-79756000D03*
X194818000Y-77216000D03*
X192278000Y-77216000D03*
X194818000Y-74676000D03*
X192278000Y-74676000D03*
X194818000Y-72136000D03*
X192278000Y-72136000D03*
X194818000Y-69596000D03*
X192278000Y-69596000D03*
X194818000Y-67056000D03*
X192278000Y-67056000D03*
X194818000Y-64516000D03*
X192278000Y-64516000D03*
X194818000Y-61976000D03*
X192278000Y-61976000D03*
X194818000Y-59436000D03*
X192278000Y-59436000D03*
X194818000Y-56896000D03*
D16*
X192278000Y-56896000D03*
D15*
X133858000Y-102616000D03*
X131318000Y-102616000D03*
X133858000Y-100076000D03*
X131318000Y-100076000D03*
X133858000Y-97536000D03*
X131318000Y-97536000D03*
X133858000Y-94996000D03*
X131318000Y-94996000D03*
X133858000Y-92456000D03*
X131318000Y-92456000D03*
X133858000Y-89916000D03*
X131318000Y-89916000D03*
X133858000Y-87376000D03*
X131318000Y-87376000D03*
X133858000Y-84836000D03*
X131318000Y-84836000D03*
X133858000Y-82296000D03*
X131318000Y-82296000D03*
X133858000Y-79756000D03*
X131318000Y-79756000D03*
X133858000Y-77216000D03*
X131318000Y-77216000D03*
X133858000Y-74676000D03*
X131318000Y-74676000D03*
X133858000Y-72136000D03*
X131318000Y-72136000D03*
X133858000Y-69596000D03*
X131318000Y-69596000D03*
X133858000Y-67056000D03*
X131318000Y-67056000D03*
X133858000Y-64516000D03*
X131318000Y-64516000D03*
X133858000Y-61976000D03*
X131318000Y-61976000D03*
X133858000Y-59436000D03*
X131318000Y-59436000D03*
X133858000Y-56896000D03*
D16*
X131318000Y-56896000D03*
D17*
X187198000Y-54356000D03*
X171958000Y-105156000D03*
X138938000Y-53086000D03*
%TD*%
D18*
%TO.C,J11*%
X130830000Y-121412000D03*
D19*
X133370000Y-121412000D03*
%TD*%
D20*
%TO.C,C4*%
X153289000Y-61875000D03*
X153289000Y-60325000D03*
%TD*%
D21*
%TO.C,C2*%
X159359000Y-75565000D03*
X160909000Y-75565000D03*
%TD*%
D22*
%TO.C,R11*%
X145669000Y-85852000D03*
X145669000Y-87502000D03*
%TD*%
D23*
%TO.C,R8*%
X153289000Y-65023000D03*
X153289000Y-63373000D03*
%TD*%
D24*
%TO.C,R2*%
X152020000Y-79308000D03*
X153670000Y-79308000D03*
%TD*%
D18*
%TO.C,J10*%
X175000000Y-113000000D03*
D19*
X175000000Y-115540000D03*
X175000000Y-118080000D03*
X175000000Y-120620000D03*
%TD*%
D22*
%TO.C,R5*%
X199898000Y-76391000D03*
X199898000Y-78041000D03*
%TD*%
D18*
%TO.C,J9*%
X168000000Y-113000000D03*
D19*
X168000000Y-115540000D03*
X168000000Y-118080000D03*
X168000000Y-120620000D03*
%TD*%
%TO.C,JP1*%
X124000000Y-75540000D03*
D18*
X124000000Y-73000000D03*
%TD*%
%TO.C,J5*%
X204000000Y-97000000D03*
D19*
X204000000Y-99540000D03*
X204000000Y-102080000D03*
%TD*%
%TO.C,J7*%
X124000000Y-87650000D03*
D18*
X124000000Y-85110000D03*
%TD*%
D25*
%TO.C,R10*%
X158242000Y-71120000D03*
X156592000Y-71120000D03*
%TD*%
D26*
%TO.C,VR1*%
X140464000Y-113154000D03*
D27*
X140464000Y-116714000D03*
X140464000Y-120274000D03*
X152654000Y-121539000D03*
X152654000Y-111889000D03*
%TD*%
D18*
%TO.C,J2*%
X123000000Y-57000000D03*
D19*
X123000000Y-59540000D03*
X123000000Y-62080000D03*
%TD*%
D18*
%TO.C,J4*%
X123000000Y-97000000D03*
D19*
X123000000Y-99540000D03*
X123000000Y-102080000D03*
%TD*%
D18*
%TO.C,J3*%
X204000000Y-57000000D03*
D19*
X204000000Y-59540000D03*
X204000000Y-62080000D03*
%TD*%
D28*
%TO.C,U3*%
X163257000Y-67691000D03*
X163257000Y-66421000D03*
X163257000Y-65151000D03*
X163257000Y-63881000D03*
X158307000Y-63881000D03*
X158307000Y-65151000D03*
X158307000Y-66421000D03*
X158307000Y-67691000D03*
%TD*%
D29*
%TO.C,J1*%
X123571000Y-116586000D03*
D30*
X123571000Y-111586000D03*
%TD*%
D22*
%TO.C,R9*%
X153289000Y-66422000D03*
X153289000Y-68072000D03*
%TD*%
D31*
%TO.C,D2*%
X202460000Y-83693000D03*
D32*
X205000000Y-83693000D03*
%TD*%
D33*
%TO.C,U2*%
X159467550Y-82591001D03*
X159467550Y-83240999D03*
X159467550Y-83891001D03*
X159467550Y-84540999D03*
X162858450Y-84540999D03*
X162858450Y-83891001D03*
X162858450Y-83240999D03*
X162858450Y-82591001D03*
%TD*%
D18*
%TO.C,J8*%
X161000000Y-113000000D03*
D19*
X161000000Y-115540000D03*
X161000000Y-118080000D03*
X161000000Y-120620000D03*
%TD*%
D34*
%TO.C,C5*%
X153289000Y-69570000D03*
X153289000Y-71120000D03*
%TD*%
D18*
%TO.C,J6*%
X205740000Y-113030000D03*
D19*
X203200000Y-113030000D03*
X200660000Y-113030000D03*
X198120000Y-113030000D03*
X195580000Y-113030000D03*
X193040000Y-113030000D03*
X190500000Y-113030000D03*
X187960000Y-113030000D03*
X185420000Y-113030000D03*
X182880000Y-113030000D03*
%TD*%
D22*
%TO.C,R6*%
X202057000Y-88265000D03*
X202057000Y-89915000D03*
%TD*%
D31*
%TO.C,D1*%
X202460000Y-76454000D03*
D32*
X205000000Y-76454000D03*
%TD*%
D21*
%TO.C,C3*%
X159359000Y-78075000D03*
X160909000Y-78075000D03*
%TD*%
D35*
%TO.C,C1*%
X132588000Y-116332000D03*
X132588000Y-110932000D03*
%TD*%
D22*
%TO.C,R12*%
X145669000Y-82867000D03*
X145669000Y-84517000D03*
%TD*%
D24*
%TO.C,R4*%
X153670000Y-84074000D03*
X152020000Y-84074000D03*
%TD*%
%TO.C,R3*%
X152020000Y-81818000D03*
X153670000Y-81818000D03*
%TD*%
D25*
%TO.C,R1*%
X148399000Y-104902000D03*
X146749000Y-104902000D03*
%TD*%
D24*
%TO.C,R7*%
X145162000Y-65024000D03*
X146812000Y-65024000D03*
%TD*%
%LPD*%
M02*
